<svg width="239" height="43" viewBox="0 0 239 43" fill="none" xmlns="http://www.w3.org/2000/svg">
<path d="M8.55624 13.2125C8.22291 15.1965 7.85224 17.2245 7.44024 19.2085C9.34424 19.3725 11.3709 19.4991 13.2709 19.5791C13.6416 17.4298 14.0976 15.2351 14.5096 13.0445C12.6096 13.1285 10.4989 13.2085 8.55624 13.2085V13.2125ZM1.64957 21.3191C0.162908 20.9871 -0.334426 19.3765 0.617574 18.2605C1.73491 18.5085 3.14157 18.7578 4.62957 18.9218C4.96157 16.9791 5.33224 15.0325 5.62291 13.1751C4.13624 13.1325 2.81357 13.0525 1.90291 12.9258C0.992241 12.8031 0.908241 11.6031 1.56957 10.8565C2.72824 10.8991 4.25891 10.8991 5.99491 10.8565L7.40157 2.13113C7.65091 0.516466 9.09491 0.765799 10.3389 1.5538C10.0056 4.19913 9.51224 7.38447 8.97357 10.7351C10.9576 10.6511 13.0696 10.5285 15.0536 10.3645C15.6736 7.34313 16.3762 4.44847 17.0389 1.9658C17.3709 0.807132 19.1869 0.516465 19.6042 1.6338C19.0269 4.19913 18.4029 7.0938 17.8682 10.0685C19.3176 9.90447 20.6789 9.65647 21.8002 9.40713C22.7522 10.5245 22.2549 12.0965 20.7669 12.4285C20.0642 12.5925 18.8669 12.7191 17.3749 12.8418C16.9629 15.1165 16.5869 17.4725 16.2162 19.7058C18.0376 19.7485 19.6509 19.7485 20.8469 19.7058C21.5096 20.4511 21.4296 21.6485 20.5149 21.7751C19.3976 21.9391 17.7416 22.0231 15.8416 22.0658C15.3029 25.4991 14.8096 28.6005 14.3549 31.1245C14.1056 32.7391 12.6602 32.4898 11.4176 31.7058C11.7882 28.9338 12.2856 25.6258 12.8669 22.0698C10.8402 22.0698 8.77091 21.9858 6.91357 21.8631C6.20957 25.2551 5.50557 28.4831 4.72157 31.2938C4.38957 32.4525 2.57224 32.7431 2.15624 31.6258C2.85891 28.6045 3.47891 25.1751 4.14024 21.6565C3.06557 21.5725 2.23624 21.4498 1.65891 21.3231L1.64957 21.3191Z" fill="white"/>
<path d="M32.7512 14.5775C28.9458 18.2602 28.7392 27.6055 31.0578 29.9655C32.7512 28.0615 34.8618 23.4309 36.3912 18.6309C34.6978 15.9855 32.7512 14.5775 32.7512 14.5775ZM30.7245 32.4429C24.3152 32.4429 25.1418 12.4669 33.1218 12.4669C34.4872 12.4669 35.8098 13.2549 36.9685 14.8642C37.3018 10.2335 37.9632 5.3922 38.6632 1.3802C40.5258 0.348202 43.9978 -1.43046 40.0698 14.7802C39.4885 21.6855 39.7378 28.3482 41.2712 29.7509C42.7205 29.3375 44.9912 26.4855 45.9858 24.5802C46.4418 23.6709 47.3938 24.0415 47.4738 24.8709C46.8538 27.8082 43.9592 32.0269 40.9378 32.0269C38.5405 32.0269 37.3392 28.9255 36.9272 24.4589C35.2712 28.8829 33.1218 32.4389 30.7245 32.4389V32.4429Z" fill="white"/>
<path d="M51.1562 4.03101C50.6589 5.14701 50.3309 6.80301 49.9549 8.53901C49.4576 8.95234 47.8069 8.91101 47.6802 8.20701C47.4736 7.00567 47.2669 5.10567 47.6376 4.111C48.1776 2.66167 50.5749 3.243 51.1522 4.027L51.1562 4.03101ZM46.6056 13.0483C46.7696 11.931 48.7962 11.4763 49.7496 12.715C49.0029 15.7363 47.6802 27.4003 50.6589 29.755C52.1082 29.343 54.3802 26.4897 55.3736 24.5857C55.8296 23.675 56.7816 24.0457 56.8616 24.8763C56.2416 27.8123 53.3469 32.031 50.3256 32.031C44.3722 32.031 45.8176 17.431 46.6056 13.0443V13.0483Z" fill="white"/>
<path d="M63.8897 23.8393C66.123 21.358 68.483 14.6993 66.207 13.4567C64.9257 15.0287 62.899 18.5847 61.1217 22.9713C61.9057 23.014 62.8577 23.342 63.8937 23.8393H63.8897ZM69.3923 29.7553C70.8417 29.342 73.1137 26.49 74.1083 24.5847C74.563 23.6753 75.515 24.046 75.595 24.8753C74.9763 27.8127 72.0817 32.0313 69.0603 32.0313C66.4137 32.0313 63.7257 28.8033 62.6083 26.406C61.9057 26.5273 60.7043 26.3633 60.0043 25.8233C59.3017 27.766 58.6817 29.7927 58.227 31.8193C58.0203 32.1527 56.2417 32.6033 56.115 31.614C55.163 23.7553 54.9563 12.918 56.983 2.41267C57.2737 0.840673 60.043 0.756672 60.5403 1.83534C58.8843 8.45534 58.223 17.3887 58.1003 24.3793C59.7937 17.43 63.2283 10.8113 66.4563 10.8113C68.2763 10.8113 70.0537 12.05 70.0537 15.1927C70.0537 18.3367 68.7737 22.8447 65.1323 25.242C66.207 27.1047 67.5723 29.1313 69.3923 29.7513V29.7553Z" fill="white"/>
<path d="M76.1728 37.5339C78.9035 39.3965 83.2848 40.1005 85.6875 39.1899C85.4382 37.8245 85.2315 36.2525 85.0262 34.5592C81.8395 35.9245 78.6168 36.7925 76.1728 37.5379V37.5339ZM84.2795 24.5059C82.5435 29.2619 80.1848 32.4485 77.8715 32.4485C72.2462 32.4485 73.9395 19.6685 76.6702 12.9259C77.4155 11.6872 79.4808 12.1005 79.8128 13.0485C77.2088 20.1605 75.9248 28.9299 78.1995 30.1725C80.5968 27.7325 82.6662 22.8112 84.5702 14.2499C85.5235 12.9685 87.1368 13.2165 87.4235 14.2912C86.6768 19.7525 86.8835 25.9125 87.3395 30.7965C89.9435 29.3472 92.2182 27.2819 93.3768 24.5939C93.8328 23.6832 94.7848 24.0539 94.8648 24.8845C93.9968 28.7739 91.0595 31.3779 87.6248 33.2819C87.8315 35.1445 88.0808 36.7592 88.2875 37.8752C88.5355 39.3632 88.7848 41.3512 86.6728 41.8445C83.9422 42.5059 77.7822 42.2579 73.9355 39.5272C72.4062 38.3685 72.4475 36.3832 74.0995 35.5952C76.1688 34.6005 80.5928 33.8179 84.7728 32.0392C84.5248 29.5992 84.3595 27.0752 84.2755 24.5099L84.2795 24.5059Z" fill="white"/>
<path d="M96.9798 23.4263C95.7784 24.3783 94.8304 27.8503 95.5304 29.7556C96.8531 29.4223 97.9704 28.3063 98.9224 26.7343C98.1384 25.6169 97.4731 24.4169 96.9798 23.4263ZM100.329 24.0076C101.033 22.3943 101.694 20.6156 102.234 18.9596C101.202 18.8756 97.6838 18.0916 95.9891 16.5196C93.4238 14.1609 93.5078 8.91027 97.9318 9.32361C98.4718 10.4823 98.5931 13.9956 98.5931 15.0703C99.5878 15.6103 101.324 16.1876 102.562 16.2716C104.177 14.9903 106.701 14.6583 105.209 18.6316C104.298 21.0289 103.305 23.8009 101.981 26.2409C103.305 27.9769 104.712 29.4689 106.12 29.7556C107.569 29.3423 109.84 26.4903 110.834 24.5849C111.289 23.6743 112.241 24.0463 112.321 24.8756C111.702 27.8129 108.808 32.0303 105.786 32.0303C104.05 32.0303 102.104 30.5436 100.452 28.6809C99.0024 30.6236 97.3091 32.0303 95.4038 32.0303C91.7211 32.0303 91.2664 23.4689 96.1078 21.5676C97.7211 20.9489 98.5891 21.3609 99.0864 22.1076L100.325 24.0116L100.329 24.0076Z" fill="white"/>
<path d="M119.101 13.3391C114.221 15.1591 112.937 21.6111 114.303 25.8284C118.397 21.8964 119.515 15.7364 119.101 13.3391ZM118.524 30.5857C122.039 30.5857 124.895 26.0764 125.885 24.1764C126.34 23.2671 127.293 23.6377 127.373 24.4671C126.753 27.4044 123.361 32.8657 118.731 32.8657C107.644 32.8657 108.555 11.2324 119.308 11.2324C124.187 11.2324 122.409 23.0604 115.296 27.9817C116.08 29.1831 117.159 30.1311 118.524 30.5857Z" fill="white"/>
<path d="M147.725 11.6408C148.677 11.6408 149.545 11.8048 150.329 12.6355C149.128 18.5928 148.218 28.3101 150.91 29.7595C152.36 29.3461 154.632 26.4941 155.625 24.5888C156.081 23.6795 157.033 24.0501 157.113 24.8795C156.493 27.8168 153.598 32.0355 150.577 32.0355C144.953 32.0355 145.905 17.9701 147.064 14.2915C143.836 18.0955 140.941 24.3408 139.496 31.8288C139.289 32.1608 137.596 32.6128 137.385 31.6221C136.474 27.4848 135.565 19.5035 137.385 13.0528C133.744 16.4448 130.437 23.9315 128.574 31.8288C128.368 32.1608 126.589 32.6128 126.462 31.6221C125.966 27.4848 125.346 19.3768 126.13 14.5821C126.421 12.9675 128.696 12.9261 129.189 14.0048C128.776 16.4861 128.528 20.2915 128.485 24.2221C130.264 17.1901 133.946 10.4061 137.625 10.4061C138.577 10.4061 139.445 10.5701 140.229 11.4008C139.197 15.2475 138.948 20.4595 139.07 25.2168C140.89 18.1848 143.869 11.6488 147.717 11.6488L147.725 11.6408Z" fill="white"/>
<path d="M159.388 32.4438C153.763 32.4438 155.419 19.6638 158.272 12.9225C159.017 11.6825 161.081 12.0958 161.415 13.0438C158.727 20.1572 157.445 28.9252 159.721 30.1678C162.119 27.7292 164.187 22.8078 166.092 14.2452C166.917 13.1278 168.616 13.2132 168.903 14.2878C168.363 19.5798 167.992 28.0198 170.184 29.7558C171.633 29.3425 173.904 26.4905 174.899 24.5852C175.353 23.6758 176.305 24.0465 176.385 24.8758C175.767 27.8132 172.872 32.0305 169.851 32.0305C167.247 32.0305 166.168 28.5972 165.839 24.4212C164.103 29.2198 161.701 32.4438 159.388 32.4438Z" fill="white"/>
<path d="M178.493 23.4263C177.291 24.3783 176.343 27.8503 177.043 29.7556C178.366 29.4223 179.483 28.3063 180.435 26.7343C179.647 25.6169 178.986 24.4169 178.493 23.4263ZM181.842 24.0076C182.546 22.3943 183.207 20.6156 183.743 18.9596C182.71 18.8756 179.193 18.0916 177.498 16.5196C174.933 14.1609 175.017 8.91027 179.441 9.32361C179.981 10.4823 180.102 13.9956 180.102 15.0703C181.097 15.6103 182.833 16.1876 184.071 16.2716C185.686 14.9903 188.21 14.6583 186.718 18.6316C185.807 21.0289 184.813 23.8009 183.49 26.2409C184.813 27.9769 186.221 29.4689 187.627 29.7556C189.078 29.3423 191.349 26.4903 192.343 24.5849C192.798 23.6743 193.75 24.0463 193.83 24.8756C193.211 27.8129 190.317 32.0303 187.295 32.0303C185.559 32.0303 183.613 30.5436 181.961 28.6809C180.511 30.6236 178.817 32.0303 176.913 32.0303C173.23 32.0303 172.775 23.4689 177.617 21.5676C179.23 20.9489 180.098 21.3609 180.595 22.1076L181.838 24.0116L181.842 24.0076Z" fill="white"/>
<path d="M200.619 13.3391C195.739 15.1591 194.455 21.6111 195.819 25.8284C199.915 21.8964 201.032 15.7364 200.619 13.3391ZM200.042 30.5857C203.556 30.5857 206.412 26.0764 207.403 24.1764C207.858 23.2671 208.81 23.6377 208.891 24.4671C208.271 27.4044 204.879 32.8657 200.248 32.8657C189.162 32.8657 190.072 11.2324 200.826 11.2324C205.704 11.2324 203.927 23.0604 196.814 27.9817C197.602 29.1831 198.676 30.1311 200.042 30.5857Z" fill="white"/>
<path d="M229.242 11.6408C230.194 11.6408 231.062 11.8048 231.846 12.6355C230.645 18.5928 229.735 28.3101 232.427 29.7595C233.877 29.3461 236.149 26.4941 237.142 24.5888C237.598 23.6795 238.55 24.0501 238.63 24.8795C238.01 27.8168 235.115 32.0355 232.095 32.0355C226.47 32.0355 227.422 17.9701 228.581 14.2915C225.353 18.0955 222.458 24.3408 221.013 31.8288C220.806 32.1608 219.113 32.6128 218.902 31.6221C217.991 27.4848 217.082 19.5035 218.902 13.0528C215.261 16.4448 211.954 23.9315 210.091 31.8288C209.885 32.1608 208.106 32.6128 207.979 31.6221C207.483 27.4848 206.863 19.3768 207.647 14.5821C207.938 12.9675 210.213 12.9261 210.706 14.0048C210.293 16.4861 210.045 20.2915 210.002 24.2221C211.781 17.1901 215.463 10.4061 219.142 10.4061C220.094 10.4061 220.962 10.5701 221.746 11.4008C220.714 15.2475 220.465 20.4595 220.587 25.2168C222.407 18.1848 225.386 11.6488 229.234 11.6488L229.242 11.6408Z" fill="white"/>
</svg>
