<?xml version="1.0" encoding="utf-8"?>
<!-- Generator: Adobe Illustrator 19.0.0, SVG Export Plug-In . SVG Version: 6.00 Build 0)  -->
<svg version="1.1" id="layer" xmlns="http://www.w3.org/2000/svg" xmlns:xlink="http://www.w3.org/1999/xlink" x="0px" y="0px"
	 viewBox="-153 -46 652 652" style="enable-background:new -153 -46 652 652;" xml:space="preserve">
<g>
	<path fill="white" d="M-101.4,25.9H-0.9l82.1,500H1.9l-15.6-108.3h-77.8l-16.3,108.3h-75.7 M-22.9,346.7l-26.2-209H-54l-27.6,209H-22.9z"/>
	<path fill="white" d="M519.9,25.8V111l-229.4,41.7c-18.8,3.5-39.9,5.3-62.2,5.3c21.1,0,41.7,2.4,61.6,5.9l230,39.9V290H105.7v-59.9h261.7
		c11.7,0,35.8,1.2,72.2,4.7c-28.2-4.7-47.5-7.6-58.7-10l-275.2-52.3v-31.7L380.8,91c33.4-5.9,53.4-8.8,58.7-10
		c-31.1,3-55.1,4.1-72.2,4.1H105.7V25.8"/>
	<path fill="white" d="M519.9,394.4H199c-25.3,0-39.3,14.7-39.3,34.1c0,19.4,14.1,32.3,39.3,32.3h320.9v65.1H210.1c-73.3,0-113.2-35.8-113.2-98
		c0-63.4,39.3-98.6,115-98.6h308"/>
</g>
</svg>
