<?xml version="1.0" encoding="UTF-8" standalone="no"?>
<!DOCTYPE svg PUBLIC "-//W3C//DTD SVG 1.1//EN" "http://www.w3.org/Graphics/SVG/1.1/DTD/svg11.dtd">
<svg width="100%" height="100%" viewBox="0 0 1302 1505" version="1.1" xmlns="http://www.w3.org/2000/svg" xmlns:xlink="http://www.w3.org/1999/xlink" xml:space="preserve" xmlns:serif="http://www.serif.com/" style="fill-rule:evenodd;clip-rule:evenodd;">
    <g id="path1">
        <path id="path" d="M544.04,875.04C542.049,875.231 541.284,875.314 539.162,874.555M543.743,875.408C542.732,875.299 540.194,875.147 538.982,874.647M539.05,875.04C534.801,875.196 530.078,876.45 527.483,871.395M538.635,874.569C533.869,874.486 529.987,875.329 527.691,872.281M527.71,871.89C526.035,869.403 525.804,865.851 525.445,862.49M528.259,872.479C526.665,868.943 526.665,865.622 525.899,862.457M525.35,862.27C524.661,858.338 523.388,854.985 523.987,850.483M525.259,861.973C523.927,858.157 523.956,854.372 524.143,850.212M523.82,850.82C523.999,838.194 527.412,798.263 527.283,786.521M524.127,850.999C524.588,839.097 528.212,797.858 527.897,786.34M527.77,786.51C527.6,781.337 525.048,773.914 524.701,768.886M527.524,786.322C527.682,781.825 524.97,773.779 524.802,768.025M524.57,768.67C523.808,766.114 525.263,764.288 526.964,763.347M524.755,768.382C523.736,765.995 524.879,763.472 526.877,763.352M527.34,762.91C530.517,761.672 536.195,760.139 538.526,759.3M526.744,762.909C530.91,761.909 536.296,759.78 537.993,759.805M538.46,759.33C542.112,758.212 541.206,755.98 540.783,752.272M538.533,759.336C543.019,758.685 541.583,756.851 541.026,753.228M540.48,752.8C537.333,738.286 529.093,710.26 526.843,701.708M540.311,752.241C536.73,738.406 528.534,710.615 526.931,702.291M527.256,702.143C526.995,699.793 546.39,689.131 548.087,686.02M527.772,702.316C526.075,699.718 547.6,689.193 548.283,685.936M547.845,685.758C549.903,681.339 549.87,682.245 550.044,681.485M547.782,685.197C549.286,681.032 548.93,681.873 549.475,680.846M549.836,681.262C551.019,680.07 554.007,677.152 555.529,676.077M550.294,681.089C551.131,680.357 554.262,676.532 556.295,676.231M555.866,676.622C558.121,675.826 559.427,675.528 561.058,675.304M556.291,676.365C558.671,675.68 559.802,675.231 561.039,675.095M560.869,675.353C562.139,675.053 565.089,674.854 567.868,674.662M561.363,674.816C562.18,674.798 565.759,673.853 566.962,673.861M567.27,674.423C569.97,674.328 573.172,674.589 573.937,674.318M566.596,674.302C568.388,674.214 573.301,675.011 574.607,674.325M574.253,674.341C578.364,674.448 580.545,676.69 585.348,676.346M574.548,674.336C578.812,674.561 581.285,676.457 585.477,675.829M585.528,676.227C588.388,676.132 589.753,677.722 592.266,678.423M585.352,676.082C588.11,675.476 588.605,676.935 592.42,677.661M592.304,678.206C593.577,677.301 596.13,678.877 597.641,678.916M592.22,677.817C594.549,677.943 595.285,679.593 597.827,679.293M597.912,679.172C601.674,678.882 591.775,647.38 595.507,647.647M597.947,679.417C601.922,679.305 590.967,647.561 596.098,648.193M595.821,647.682C607.762,647.767 605.697,649.275 624.549,649.021M595.587,647.119C607.738,646.532 602.291,648.689 623.84,647.95" style="fill:none;fill-rule:nonzero;stroke:white;stroke-opacity:0.1;stroke-width:4px;"/>
        <g id="cross" transform="matrix(1,0,0,1,73.0654,-32.0433)">
            <path d="M545.422,687.315C547.481,682.896 549.87,682.245 550.044,681.485M545.36,686.754C546.864,682.589 548.93,681.873 549.475,680.846M549.836,681.262C551.019,680.07 555.61,675.354 557.132,674.279M550.294,681.089C551.131,680.357 554.955,675.004 556.989,674.703M545.419,675.219C547.508,676.384 549.093,679.101 550.34,680.175M545.894,675.368C547.981,676.699 549.564,679.185 550.484,680.023M550.178,680.066C551.243,680.82 554.843,684.52 556.826,686.476M550.907,680.081C551.461,680.682 556.037,684.36 556.827,685.267" style="fill:none;fill-rule:nonzero;stroke:white;stroke-opacity:0.1;stroke-width:4px;"/>
        </g>
    </g>
    <g id="path2">
        <g transform="matrix(0.999936,0.0113569,-0.0113569,0.999936,125.141,35.9779)">
            <g id="cross1" serif:id="cross">
                <path d="M545.422,687.315C547.481,682.896 549.87,682.245 550.044,681.485M545.36,686.754C546.864,682.589 548.93,681.873 549.475,680.846M549.836,681.262C551.019,680.07 555.61,675.354 557.132,674.279M550.294,681.089C551.131,680.357 554.955,675.004 556.989,674.703M545.419,675.219C547.508,676.384 549.093,679.101 550.34,680.175M545.894,675.368C547.981,676.699 549.564,679.185 550.484,680.023M550.178,680.066C551.243,680.82 554.843,684.52 556.826,686.476M550.907,680.081C551.461,680.682 556.037,684.36 556.827,685.267" style="fill:none;fill-rule:nonzero;stroke:white;stroke-opacity:0.1;stroke-width:4px;"/>
            </g>
        </g>
        <path id="path3" serif:id="path" d="M626.03,648.25C631.383,646.007 637.044,643.804 642.775,641.387M625.562,648.07C630.744,646.125 637.383,644.002 641.528,641.188M642.19,641.76C644.296,640.845 653.603,669.183 654.024,672.323M642.083,641.575C644.79,640.893 652.974,668.482 653.062,670.794M653.356,671.14C653.495,672.833 652.081,694.661 652.086,697.664M653.765,671.634C653.824,672.939 652.387,695.596 652.287,696.91M651.827,697.506C651.586,698.764 667.189,701.305 669.421,701.82M652.454,697.481C652.463,698.306 668.377,699.931 669.571,701.045M669.375,701.304C671.822,701.892 667.531,722.527 670.608,720.913M669.057,701.685C671.099,701.829 667.66,723.051 669.758,721.328" style="fill:none;fill-rule:nonzero;stroke:white;stroke-opacity:0.1;stroke-width:4px;"/>
    </g>
    <g id="path31" serif:id="path3">
        <g id="cross2" serif:id="cross" transform="matrix(0.925278,-0.379289,0.379289,0.925278,-162.994,379.496)">
            <path d="M545.422,687.315C547.481,682.896 549.87,682.245 550.044,681.485M545.36,686.754C546.864,682.589 548.93,681.873 549.475,680.846M549.836,681.262C551.019,680.07 555.61,675.354 557.132,674.279M550.294,681.089C551.131,680.357 554.955,675.004 556.989,674.703M545.419,675.219C547.508,676.384 549.093,679.101 550.34,680.175M545.894,675.368C547.981,676.699 549.564,679.185 550.484,680.023M550.178,680.066C551.243,680.82 554.843,684.52 556.826,686.476M550.907,680.081C551.461,680.682 556.037,684.36 556.827,685.267" style="fill:none;fill-rule:nonzero;stroke:white;stroke-opacity:0.1;stroke-width:4px;"/>
        </g>
        <path id="path4" serif:id="path" d="M669.326,720.32C666.608,725.175 663.742,732.794 662.174,736.276M669.593,720.799C666.637,726.158 663.722,733.631 662.271,736.75M662.484,736.19C661.305,739.527 657.574,737.807 657.759,742.778M662.311,735.781C661.584,739.412 657.512,737.824 657.622,742.821M658.12,742.968C658.879,747.036 656.854,751.356 658.249,755.305M658.496,743.425C659.637,747.547 657.795,751.649 658.685,755.829M658.15,755.78C658.491,758.035 658.33,759.301 657.834,761.323M658.334,755.834C658.639,757.885 659.471,759.164 657.921,761.967M657.6,761.52C652.341,767.009 623.181,793.093 606.159,800.043M657.767,761.862C651.199,767.058 625.001,793.51 605.754,799.54" style="fill:none;fill-rule:nonzero;stroke:white;stroke-opacity:0.1;stroke-width:4px;"/>
    </g>
    <g id="path41" serif:id="path4">
        <g id="cross3" serif:id="cross" transform="matrix(-0.835818,-0.549007,0.549007,-0.835818,631.443,1803.52)">
            <path d="M545.422,687.315C547.481,682.896 549.87,682.245 550.044,681.485M545.36,686.754C546.864,682.589 548.93,681.873 549.475,680.846M549.836,681.262C551.019,680.07 555.61,675.354 557.132,674.279M550.294,681.089C551.131,680.357 554.955,675.004 556.989,674.703M545.419,675.219C547.508,676.384 549.093,679.101 550.34,680.175M545.894,675.368C547.981,676.699 549.564,679.185 550.484,680.023M550.178,680.066C551.243,680.82 554.843,684.52 556.826,686.476M550.907,680.081C551.461,680.682 556.037,684.36 556.827,685.267" style="fill:none;fill-rule:nonzero;stroke:white;stroke-opacity:0.1;stroke-width:4px;"/>
        </g>
        <path id="path5" serif:id="path" d="M587.629,810.626C583.004,813.938 583.798,816.399 579.633,819.382M587.25,811.036C583.027,813.383 583.687,815.608 579.692,819.128M579.93,819.79C574.869,825.624 566.962,821.15 561.193,821.462M580.52,819.869C574.876,825.214 566.607,821.146 561.541,821.715M560.9,821.41C552.405,820.131 538.271,822.274 530.393,822.542M560.46,821.541C551.262,820.692 538.239,822.079 530.478,821.687M530.06,822.23C525.593,821.726 525.936,824.072 525.483,828.05M530.082,821.789C525.473,821.679 526.628,823.785 526.191,828.997M525.7,828.38C525.1,834.885 524.617,845.586 524.369,851.054M525.143,828.296C525.786,834.716 524.27,845.412 524.552,851.862M524.01,851.54C524.241,856.055 524.965,859.798 525.578,863.894M523.561,851.501C523.701,856.283 524.722,859.705 525.551,864.053M525.79,863.56C526.987,867.758 526.827,869.691 526.634,873.767M526.272,863.754C526.322,867.819 526.666,870.377 526.566,873.978M526.701,873.336C526.859,877.603 527.774,879.531 527.901,884.454M527.133,873.127C526.814,878.31 527,879.102 528.005,884.908M527.58,885C527.849,887.736 527.878,893.251 527.787,896.83M527.387,885.195C527.047,888.433 528.108,893.822 527.474,897.706M527.61,897.031C527.992,900.434 527.894,902.033 528.089,905.954M527.374,897.605C527.874,900.401 527.607,901.789 527.945,905.454M528.077,905.427C527.94,911.986 528.942,915.39 529.294,920.903M528.267,906.012C528.015,912.056 529.045,914.752 529.723,920.365M529.88,920.76C530.752,924.263 533.79,926.014 537.357,927.67M530.428,920.404C530.823,924.691 533.231,925.877 537.306,927.291M537.41,927.29C541.332,928.674 545.487,930.98 549.129,932.622M537.549,927.087C541.386,929.31 545.468,930.585 548.87,932.733" style="fill:none;fill-rule:nonzero;stroke:white;stroke-opacity:0.1;stroke-width:4px;"/>
    </g>
    <g id="path51" serif:id="path5">
        <g id="cross4" serif:id="cross" transform="matrix(1,0,0,1,158.409,250.807)">
            <path d="M545.422,687.315C547.481,682.896 549.87,682.245 550.044,681.485M545.36,686.754C546.864,682.589 548.93,681.873 549.475,680.846M549.836,681.262C551.019,680.07 555.61,675.354 557.132,674.279M550.294,681.089C551.131,680.357 554.955,675.004 556.989,674.703M545.419,675.219C547.508,676.384 549.093,679.101 550.34,680.175M545.894,675.368C547.981,676.699 549.564,679.185 550.484,680.023M550.178,680.066C551.243,680.82 554.843,684.52 556.826,686.476M550.907,680.081C551.461,680.682 556.037,684.36 556.827,685.267" style="fill:none;fill-rule:nonzero;stroke:white;stroke-opacity:0.1;stroke-width:4px;"/>
        </g>
        <path id="path6" serif:id="path" d="M693.27,930.394L693.322,937.13C692.421,933.481 693.078,931.453 693.27,930.394ZM693.27,930.394L693.264,929.69C693.343,929.851 693.327,930.08 693.27,930.394ZM692.448,929.951L692.921,936.732C691.637,933.001 692.418,931.123 692.448,929.951ZM692.448,929.951L692.42,929.55C692.444,929.675 692.452,929.807 692.448,929.951ZM694.016,925.424C694.035,925.279 694.011,924.862 693.995,924.287L693.767,925.855C693.816,925.375 693.891,924.66 693.985,923.841C693.965,922.495 694.032,920.578 694.652,919.097C694.742,918.618 694.835,918.195 694.929,917.866L694.796,918.783C694.883,918.609 694.978,918.442 695.084,918.285L694.016,925.424ZM697.764,896.392L697.813,895.937C697.805,896.072 697.788,896.224 697.764,896.392ZM697.928,896.845L697.298,902.899C697.223,902.479 697.196,902.04 697.204,901.593L697.113,902.438C696.854,900.244 697.561,897.781 697.764,896.392L697.435,899.443C697.599,898.503 697.809,897.604 697.928,896.845ZM697.928,896.845L698.021,895.952C698.014,896.218 697.98,896.518 697.928,896.845ZM695.609,912.643C695.764,910.596 695.953,907.851 696.131,907.09L695.609,912.643ZM695.609,912.643C695.526,913.745 695.452,914.645 695.395,914.925L695.609,912.643ZM649.458,895.288L647.213,888.937C649.254,892.093 649.294,894.224 649.458,895.288ZM649.458,895.288L649.693,895.951C649.567,895.825 649.507,895.603 649.458,895.288ZM650.38,895.439L650.537,895.808C650.473,895.698 650.423,895.575 650.38,895.439ZM650.38,895.439L647.721,889.182C650.151,892.29 650.025,894.321 650.38,895.439ZM650.374,900.229C650.403,900.373 650.561,900.759 650.764,901.297L650.468,899.74C650.578,900.21 650.741,900.911 650.919,901.716C651.377,902.981 651.939,904.816 651.835,906.418C651.906,906.901 651.956,907.33 651.975,907.672L651.802,906.761C651.777,906.954 651.741,907.143 651.692,907.326L650.374,900.229ZM655.995,928.522L656.198,929.396C656.118,929.142 656.053,928.847 655.995,928.522ZM655.995,928.522L654.616,922.593C654.824,922.966 654.992,923.372 655.131,923.797L654.942,922.969C655.902,924.958 656.037,927.517 656.298,928.896L655.614,925.905C655.765,926.847 655.86,927.766 655.995,928.522ZM656.298,928.896L656.4,929.342C656.363,929.213 656.33,929.063 656.298,928.896ZM653.035,912.831C652.755,911.762 652.531,910.888 652.494,910.604L653.035,912.831ZM653.035,912.831C653.556,914.817 654.273,917.473 654.353,918.251L653.035,912.831ZM697.826,891.646L696.307,884.689C696.544,885.127 696.734,885.604 696.89,886.103L696.682,885.132C697.772,887.471 697.891,890.469 698.175,892.086L697.421,888.577C697.584,889.681 697.681,890.758 697.826,891.646ZM697.826,891.646L698.05,892.671C697.96,892.373 697.889,892.027 697.826,891.646ZM698.175,892.086L698.287,892.61C698.246,892.458 698.209,892.282 698.175,892.086ZM694.611,873.242C694.3,871.987 694.052,870.961 694.012,870.628L694.611,873.242ZM694.611,873.242C695.188,875.573 695.985,878.69 696.067,879.602L694.611,873.242ZM660.08,880.784C660.231,880.728 660.622,880.49 661.171,880.178L659.529,880.766C660.021,880.567 660.755,880.27 661.599,879.939C662.893,879.226 664.788,878.303 666.552,878.139C667.065,877.979 667.523,877.851 667.893,877.772L666.932,878.116C667.147,878.11 667.36,878.116 667.568,878.137L660.08,880.784ZM690.217,869.445L690.684,869.258C690.55,869.32 690.393,869.382 690.217,869.445ZM689.866,869.837L690.78,869.467C690.519,869.597 690.209,869.719 689.866,869.837ZM689.866,869.837L683.661,872.347C684.029,872.059 684.44,871.807 684.877,871.584L684.01,871.931C686,870.552 688.763,869.964 690.217,869.445L687.084,870.7C688.082,870.373 689.067,870.113 689.866,869.837ZM673.317,875.738C672.205,876.225 671.293,876.617 670.991,876.706L673.317,875.738ZM673.317,875.738C675.385,874.833 678.146,873.601 678.979,873.38L673.317,875.738ZM655.104,882.54L655.527,882.366C655.406,882.424 655.263,882.481 655.104,882.54ZM654.784,882.9L649.158,885.224C649.492,884.959 649.865,884.727 650.262,884.52L649.476,884.842C651.283,883.571 653.786,883.021 655.104,882.54L652.263,883.702C653.168,883.398 654.06,883.155 654.784,882.9ZM654.784,882.9L655.613,882.557C655.376,882.677 655.096,882.79 654.784,882.9ZM695.81,915.525C695.798,914.22 696.687,909.135 697.111,906.382L695.81,915.525ZM651.905,910.172C652.343,911.402 653.16,916.499 653.657,919.24L651.905,910.172ZM693.331,870.117C693.824,871.561 694.7,877.538 695.238,880.752L693.331,870.117ZM670.63,877.416C671.889,876.732 677.291,874.971 680.185,873.962L670.63,877.416Z" style="fill:none;stroke:white;stroke-opacity:0.1;stroke-width:4px;"/>
        <path id="pathdashed" d="M549.01,933.07C552.051,934.742 556.69,936.435 560.884,938.526M549.501,933.153C552.352,935.675 556.86,936.609 560.635,938.223M560.3,938.74C562.665,940.653 565.376,940.795 568.804,941.464M559.926,938.948C562.74,940.373 566.051,941.596 568.11,941.219M568.77,941.59C571.046,941.654 573.7,942.193 575.706,943.495M569.307,942.117C571.906,942.117 573.313,942.272 576.638,943.219M575.99,943.45C580.232,947.136 580.579,956.536 584.891,957.48M575.754,943.013C579.971,946.439 579.657,955.647 586.084,957.669M585.41,958.03C587.142,958.534 588.375,956.812 590.402,955.182M585.177,958.009C586.45,958.246 589.076,956.942 590.43,956.223M590.76,955.77C603.968,951.378 618.194,945.471 629.566,939.919M591.216,956.185C603.626,950.38 618.148,944.722 629.969,940.131M629.33,940.04C636.247,937.497 644.344,933.298 651.018,931.79M629.761,940.421C635.617,937.823 645.114,933.516 650.838,931.244M651.46,931.59C655.359,930.292 658.563,936.11 660.603,936.841M651.36,931.167C654.85,929.837 658.289,936.3 660.468,937.826M661.02,937.17C663.995,937.969 668.962,934.722 670.56,935.282M660.772,937.024C663.113,938.791 668.507,934.38 670.986,935.647M670.94,935.28C674.266,936.709 670.578,940.756 674.772,941.499M671.472,935.715C673.564,936.116 671.23,940.716 673.976,941.692M674.28,941.11C677.766,942.473 689.431,940.616 692.349,942.58M674.172,940.59C678.267,941.78 688.807,940.435 691.796,943.055M691.81,942.6C695.332,947.14 689.585,955.66 697.434,955.026M691.323,942.263C694.902,946.855 689.304,955.398 697.543,955.335M697.42,955.46C700.493,955.245 701.591,956.216 703.653,955.696M697.333,955.84C699.922,955.935 701,956.214 703.619,956.056M703.93,956.18C705.477,955.927 707.608,956.215 708.821,954.739M703.548,956.431C706.02,956.023 707.635,955.765 708.745,954.919M708.38,954.79C708.388,954.273 708.903,952.851 708.605,952.636M708.013,955.306C708.08,954.428 709.414,953.191 708.731,951.701M709.07,952.27C709.269,945.89 708.866,937.325 709.925,929.977M709.555,951.862C709.972,945.859 708.325,937.068 709.112,931.073" style="fill:none;fill-rule:nonzero;stroke:white;stroke-opacity:0.1;stroke-width:4px;"/>
    </g>
    <g id="path61" serif:id="path6">
        <g id="path7" serif:id="path" transform="matrix(0.26318,-0.964747,0.964747,0.26318,110.553,1301.21)">
            <path d="M545.422,687.315C547.481,682.896 549.87,682.245 550.044,681.485M545.36,686.754C546.864,682.589 548.93,681.873 549.475,680.846M549.836,681.262C551.019,680.07 555.61,675.354 557.132,674.279M550.294,681.089C551.131,680.357 554.955,675.004 556.989,674.703M545.419,675.219C547.508,676.384 549.093,679.101 550.34,680.175M545.894,675.368C547.981,676.699 549.564,679.185 550.484,680.023M550.178,680.066C551.243,680.82 554.843,684.52 556.826,686.476M550.907,680.081C551.461,680.682 556.037,684.36 556.827,685.267" style="fill:none;fill-rule:nonzero;stroke:white;stroke-opacity:0.1;stroke-width:4px;"/>
        </g>
        <path id="cross5" serif:id="cross" d="M708.553,942.116C708.621,944.879 708.733,952.198 707.658,953.614M708.048,942.234C708.232,944.626 708.2,951.641 708.26,953.887M708.183,953.766C708.616,956.401 711.039,956.805 712.48,956.646M707.689,953.804C707.489,956.098 710.265,956.753 713.381,956.663M712.98,956.4C722.219,956.187 748.383,958.107 759.518,958.722M713.419,956.282C721.342,957.164 747.936,958.222 759.101,958.694M759.64,958.25C761.509,958.028 762.957,956.456 763.882,955.793M759.146,958.801C761.663,957.482 762.762,956.359 763.855,955.228M764.31,955.2C777.138,943.293 804.241,911.954 815.927,897.877M764.445,954.945C777.782,943.567 804.589,912.15 816.647,898.706M816.08,898.12C817.812,895.997 819.082,894.457 820.745,896.35M816.1,898.698C818.088,896.881 819.438,894.631 821.395,895.411M821.32,896.07C829.118,901.149 860.161,921.194 869.811,927.766M821.141,895.557C828.555,900.289 860.654,922.344 869.251,927.568M869.25,927.6C870.43,929.125 871.036,928.983 873.002,928.025M869.544,927.455C870.342,929.291 871.239,928.474 872.353,928.634M872.63,928.14C873.765,926.562 875.657,922.513 877.373,920.489M872.62,928.675C874.789,926.516 876.014,922.206 877.192,921.25M877.71,920.69C878.382,919.248 880.47,919.824 881.252,920.062M878.08,921.081C878.38,919.969 879.939,919.851 880.431,920.295M881.1,920.62C888.077,923.708 908.438,929.314 916.162,932.283M881.525,920.922C887.31,923.467 908.62,929.013 915.991,932.368M915.899,932.482C920.106,934.379 912.755,943.623 911.893,948.6M916.377,932.58C919.404,934.239 912.924,944.492 912.119,948.698" style="fill:none;fill-rule:nonzero;stroke:white;stroke-opacity:0.1;stroke-width:4px;"/>
    </g>
    <g id="path71" serif:id="path7">
        <g id="cross6" serif:id="cross" transform="matrix(0.727749,-0.685843,0.685843,0.727749,32.938,718.696)">
            <path d="M545.422,687.315C547.481,682.896 549.87,682.245 550.044,681.485M545.36,686.754C546.864,682.589 548.93,681.873 549.475,680.846M549.836,681.262C551.019,680.07 555.61,675.354 557.132,674.279M550.294,681.089C551.131,680.357 554.955,675.004 556.989,674.703M545.419,675.219C547.508,676.384 549.093,679.101 550.34,680.175M545.894,675.368C547.981,676.699 549.564,679.185 550.484,680.023M550.178,680.066C551.243,680.82 554.843,684.52 556.826,686.476M550.907,680.081C551.461,680.682 556.037,684.36 556.827,685.267" style="fill:none;fill-rule:nonzero;stroke:white;stroke-opacity:0.1;stroke-width:4px;"/>
        </g>
        <path id="path8" serif:id="path" d="M911.94,947.64C913.504,942.439 914.943,936.14 917.493,931.056M912.413,947.601C914.352,943.002 915.3,935.71 918.336,931.024M917.73,931.43C923.027,924.538 937.222,907.034 943.066,899.1M918.045,930.946C923.044,924.691 937.087,907.363 943.439,899.485M943.51,899.57C945.489,897.511 948.994,894.541 946.747,892.468M943.958,900.057C945.947,896.718 949.347,894.953 946.818,892.604M947.17,891.97C941.362,885.502 908.822,845.023 901.804,837.9M947.032,891.638C940.948,886 908.904,844.322 902.946,838.83" style="fill:none;fill-rule:nonzero;stroke:white;stroke-opacity:0.1;stroke-width:4px;"/>
    </g>
</svg>
