<?xml version="1.0" encoding="UTF-8" ?>
<svg version="1.1" width="48" height="48" xmlns="http://www.w3.org/2000/svg" shape-rendering="crispEdges">
<rect x="14" y="6" width="1" height="1" fill="#EFEBE1" />
<rect x="15" y="6" width="1" height="1" fill="#EFEBE1" />
<rect x="16" y="6" width="1" height="1" fill="#EFEBE1" />
<rect x="17" y="6" width="1" height="1" fill="#EFEBE1" />
<rect x="14" y="7" width="1" height="1" fill="#EFEBE1" />
<rect x="15" y="7" width="1" height="1" fill="#EFEBE1" />
<rect x="16" y="7" width="1" height="1" fill="#EFEBE1" />
<rect x="17" y="7" width="1" height="1" fill="#EFEBE1" />
<rect x="14" y="8" width="1" height="1" fill="#EFEBE1" />
<rect x="15" y="8" width="1" height="1" fill="#EFEBE1" />
<rect x="16" y="8" width="1" height="1" fill="#EFEBE1" />
<rect x="17" y="8" width="1" height="1" fill="#EFEBE1" />
<rect x="14" y="9" width="1" height="1" fill="#EFEBE1" />
<rect x="15" y="9" width="1" height="1" fill="#EFEBE1" />
<rect x="16" y="9" width="1" height="1" fill="#EFEBE1" />
<rect x="17" y="9" width="1" height="1" fill="#EFEBE1" />
<rect x="10" y="10" width="1" height="1" fill="#EFEBE1" />
<rect x="11" y="10" width="1" height="1" fill="#EFEBE1" />
<rect x="12" y="10" width="1" height="1" fill="#EFEBE1" />
<rect x="13" y="10" width="1" height="1" fill="#EFEBE1" />
<rect x="10" y="11" width="1" height="1" fill="#EFEBE1" />
<rect x="11" y="11" width="1" height="1" fill="#EFEBE1" />
<rect x="12" y="11" width="1" height="1" fill="#EFEBE1" />
<rect x="13" y="11" width="1" height="1" fill="#EFEBE1" />
<rect x="10" y="12" width="1" height="1" fill="#EFEBE1" />
<rect x="11" y="12" width="1" height="1" fill="#EFEBE1" />
<rect x="12" y="12" width="1" height="1" fill="#EFEBE1" />
<rect x="13" y="12" width="1" height="1" fill="#EFEBE1" />
<rect x="10" y="13" width="1" height="1" fill="#EFEBE1" />
<rect x="11" y="13" width="1" height="1" fill="#EFEBE1" />
<rect x="12" y="13" width="1" height="1" fill="#EFEBE1" />
<rect x="13" y="13" width="1" height="1" fill="#EFEBE1" />
<rect x="6" y="14" width="1" height="1" fill="#EFEBE1" />
<rect x="7" y="14" width="1" height="1" fill="#EFEBE1" />
<rect x="8" y="14" width="1" height="1" fill="#EFEBE1" />
<rect x="9" y="14" width="1" height="1" fill="#EFEBE1" />
<rect x="10" y="14" width="1" height="1" fill="#EFEBE1" />
<rect x="11" y="14" width="1" height="1" fill="#EFEBE1" />
<rect x="12" y="14" width="1" height="1" fill="#EFEBE1" />
<rect x="13" y="14" width="1" height="1" fill="#EFEBE1" />
<rect x="14" y="14" width="1" height="1" fill="#EFEBE1" />
<rect x="15" y="14" width="1" height="1" fill="#EFEBE1" />
<rect x="16" y="14" width="1" height="1" fill="#EFEBE1" />
<rect x="17" y="14" width="1" height="1" fill="#EFEBE1" />
<rect x="18" y="14" width="1" height="1" fill="#EFEBE1" />
<rect x="19" y="14" width="1" height="1" fill="#EFEBE1" />
<rect x="20" y="14" width="1" height="1" fill="#EFEBE1" />
<rect x="21" y="14" width="1" height="1" fill="#EFEBE1" />
<rect x="22" y="14" width="1" height="1" fill="#EFEBE1" />
<rect x="23" y="14" width="1" height="1" fill="#EFEBE1" />
<rect x="24" y="14" width="1" height="1" fill="#EFEBE1" />
<rect x="25" y="14" width="1" height="1" fill="#EFEBE1" />
<rect x="26" y="14" width="1" height="1" fill="#EFEBE1" />
<rect x="27" y="14" width="1" height="1" fill="#EFEBE1" />
<rect x="28" y="14" width="1" height="1" fill="#EFEBE1" />
<rect x="29" y="14" width="1" height="1" fill="#EFEBE1" />
<rect x="30" y="14" width="1" height="1" fill="#EFEBE1" />
<rect x="31" y="14" width="1" height="1" fill="#EFEBE1" />
<rect x="32" y="14" width="1" height="1" fill="#EFEBE1" />
<rect x="33" y="14" width="1" height="1" fill="#EFEBE1" />
<rect x="34" y="14" width="1" height="1" fill="#EFEBE1" />
<rect x="35" y="14" width="1" height="1" fill="#EFEBE1" />
<rect x="36" y="14" width="1" height="1" fill="#EFEBE1" />
<rect x="37" y="14" width="1" height="1" fill="#EFEBE1" />
<rect x="6" y="15" width="1" height="1" fill="#EFEBE1" />
<rect x="7" y="15" width="1" height="1" fill="#EFEBE1" />
<rect x="8" y="15" width="1" height="1" fill="#EFEBE1" />
<rect x="9" y="15" width="1" height="1" fill="#EFEBE1" />
<rect x="10" y="15" width="1" height="1" fill="#EFEBE1" />
<rect x="11" y="15" width="1" height="1" fill="#EFEBE1" />
<rect x="12" y="15" width="1" height="1" fill="#EFEBE1" />
<rect x="13" y="15" width="1" height="1" fill="#EFEBE1" />
<rect x="14" y="15" width="1" height="1" fill="#EFEBE1" />
<rect x="15" y="15" width="1" height="1" fill="#EFEBE1" />
<rect x="16" y="15" width="1" height="1" fill="#EFEBE1" />
<rect x="17" y="15" width="1" height="1" fill="#EFEBE1" />
<rect x="18" y="15" width="1" height="1" fill="#EFEBE1" />
<rect x="19" y="15" width="1" height="1" fill="#EFEBE1" />
<rect x="20" y="15" width="1" height="1" fill="#EFEBE1" />
<rect x="21" y="15" width="1" height="1" fill="#EFEBE1" />
<rect x="22" y="15" width="1" height="1" fill="#EFEBE1" />
<rect x="23" y="15" width="1" height="1" fill="#EFEBE1" />
<rect x="24" y="15" width="1" height="1" fill="#EFEBE1" />
<rect x="25" y="15" width="1" height="1" fill="#EFEBE1" />
<rect x="26" y="15" width="1" height="1" fill="#EFEBE1" />
<rect x="27" y="15" width="1" height="1" fill="#EFEBE1" />
<rect x="28" y="15" width="1" height="1" fill="#EFEBE1" />
<rect x="29" y="15" width="1" height="1" fill="#EFEBE1" />
<rect x="30" y="15" width="1" height="1" fill="#EFEBE1" />
<rect x="31" y="15" width="1" height="1" fill="#EFEBE1" />
<rect x="32" y="15" width="1" height="1" fill="#EFEBE1" />
<rect x="33" y="15" width="1" height="1" fill="#EFEBE1" />
<rect x="34" y="15" width="1" height="1" fill="#EFEBE1" />
<rect x="35" y="15" width="1" height="1" fill="#EFEBE1" />
<rect x="36" y="15" width="1" height="1" fill="#EFEBE1" />
<rect x="37" y="15" width="1" height="1" fill="#EFEBE1" />
<rect x="6" y="16" width="1" height="1" fill="#EFEBE1" />
<rect x="7" y="16" width="1" height="1" fill="#EFEBE1" />
<rect x="8" y="16" width="1" height="1" fill="#EFEBE1" />
<rect x="9" y="16" width="1" height="1" fill="#EFEBE1" />
<rect x="10" y="16" width="1" height="1" fill="#EFEBE1" />
<rect x="11" y="16" width="1" height="1" fill="#EFEBE1" />
<rect x="12" y="16" width="1" height="1" fill="#EFEBE1" />
<rect x="13" y="16" width="1" height="1" fill="#EFEBE1" />
<rect x="14" y="16" width="1" height="1" fill="#EFEBE1" />
<rect x="15" y="16" width="1" height="1" fill="#EFEBE1" />
<rect x="16" y="16" width="1" height="1" fill="#EFEBE1" />
<rect x="17" y="16" width="1" height="1" fill="#EFEBE1" />
<rect x="18" y="16" width="1" height="1" fill="#EFEBE1" />
<rect x="19" y="16" width="1" height="1" fill="#EFEBE1" />
<rect x="20" y="16" width="1" height="1" fill="#EFEBE1" />
<rect x="21" y="16" width="1" height="1" fill="#EFEBE1" />
<rect x="22" y="16" width="1" height="1" fill="#EFEBE1" />
<rect x="23" y="16" width="1" height="1" fill="#EFEBE1" />
<rect x="24" y="16" width="1" height="1" fill="#EFEBE1" />
<rect x="25" y="16" width="1" height="1" fill="#EFEBE1" />
<rect x="26" y="16" width="1" height="1" fill="#EFEBE1" />
<rect x="27" y="16" width="1" height="1" fill="#EFEBE1" />
<rect x="28" y="16" width="1" height="1" fill="#EFEBE1" />
<rect x="29" y="16" width="1" height="1" fill="#EFEBE1" />
<rect x="30" y="16" width="1" height="1" fill="#EFEBE1" />
<rect x="31" y="16" width="1" height="1" fill="#EFEBE1" />
<rect x="32" y="16" width="1" height="1" fill="#EFEBE1" />
<rect x="33" y="16" width="1" height="1" fill="#EFEBE1" />
<rect x="34" y="16" width="1" height="1" fill="#EFEBE1" />
<rect x="35" y="16" width="1" height="1" fill="#EFEBE1" />
<rect x="36" y="16" width="1" height="1" fill="#EFEBE1" />
<rect x="37" y="16" width="1" height="1" fill="#EFEBE1" />
<rect x="6" y="17" width="1" height="1" fill="#EFEBE1" />
<rect x="7" y="17" width="1" height="1" fill="#EFEBE1" />
<rect x="8" y="17" width="1" height="1" fill="#EFEBE1" />
<rect x="9" y="17" width="1" height="1" fill="#EFEBE1" />
<rect x="10" y="17" width="1" height="1" fill="#EFEBE1" />
<rect x="11" y="17" width="1" height="1" fill="#EFEBE1" />
<rect x="12" y="17" width="1" height="1" fill="#EFEBE1" />
<rect x="13" y="17" width="1" height="1" fill="#EFEBE1" />
<rect x="14" y="17" width="1" height="1" fill="#EFEBE1" />
<rect x="15" y="17" width="1" height="1" fill="#EFEBE1" />
<rect x="16" y="17" width="1" height="1" fill="#EFEBE1" />
<rect x="17" y="17" width="1" height="1" fill="#EFEBE1" />
<rect x="18" y="17" width="1" height="1" fill="#EFEBE1" />
<rect x="19" y="17" width="1" height="1" fill="#EFEBE1" />
<rect x="20" y="17" width="1" height="1" fill="#EFEBE1" />
<rect x="21" y="17" width="1" height="1" fill="#EFEBE1" />
<rect x="22" y="17" width="1" height="1" fill="#EFEBE1" />
<rect x="23" y="17" width="1" height="1" fill="#EFEBE1" />
<rect x="24" y="17" width="1" height="1" fill="#EFEBE1" />
<rect x="25" y="17" width="1" height="1" fill="#EFEBE1" />
<rect x="26" y="17" width="1" height="1" fill="#EFEBE1" />
<rect x="27" y="17" width="1" height="1" fill="#EFEBE1" />
<rect x="28" y="17" width="1" height="1" fill="#EFEBE1" />
<rect x="29" y="17" width="1" height="1" fill="#EFEBE1" />
<rect x="30" y="17" width="1" height="1" fill="#EFEBE1" />
<rect x="31" y="17" width="1" height="1" fill="#EFEBE1" />
<rect x="32" y="17" width="1" height="1" fill="#EFEBE1" />
<rect x="33" y="17" width="1" height="1" fill="#EFEBE1" />
<rect x="34" y="17" width="1" height="1" fill="#EFEBE1" />
<rect x="35" y="17" width="1" height="1" fill="#EFEBE1" />
<rect x="36" y="17" width="1" height="1" fill="#EFEBE1" />
<rect x="37" y="17" width="1" height="1" fill="#EFEBE1" />
<rect x="10" y="18" width="1" height="1" fill="#EFEBE1" />
<rect x="11" y="18" width="1" height="1" fill="#EFEBE1" />
<rect x="12" y="18" width="1" height="1" fill="#EFEBE1" />
<rect x="13" y="18" width="1" height="1" fill="#EFEBE1" />
<rect x="10" y="19" width="1" height="1" fill="#EFEBE1" />
<rect x="11" y="19" width="1" height="1" fill="#EFEBE1" />
<rect x="12" y="19" width="1" height="1" fill="#EFEBE1" />
<rect x="13" y="19" width="1" height="1" fill="#EFEBE1" />
<rect x="10" y="20" width="1" height="1" fill="#EFEBE1" />
<rect x="11" y="20" width="1" height="1" fill="#EFEBE1" />
<rect x="12" y="20" width="1" height="1" fill="#EFEBE1" />
<rect x="13" y="20" width="1" height="1" fill="#EFEBE1" />
<rect x="10" y="21" width="1" height="1" fill="#EFEBE1" />
<rect x="11" y="21" width="1" height="1" fill="#EFEBE1" />
<rect x="12" y="21" width="1" height="1" fill="#EFEBE1" />
<rect x="13" y="21" width="1" height="1" fill="#EFEBE1" />
<rect x="14" y="22" width="1" height="1" fill="#EFEBE1" />
<rect x="15" y="22" width="1" height="1" fill="#EFEBE1" />
<rect x="16" y="22" width="1" height="1" fill="#EFEBE1" />
<rect x="17" y="22" width="1" height="1" fill="#EFEBE1" />
<rect x="22" y="22" width="1" height="1" fill="#EFEBE1" />
<rect x="23" y="22" width="1" height="1" fill="#EFEBE1" />
<rect x="24" y="22" width="1" height="1" fill="#EFEBE1" />
<rect x="25" y="22" width="1" height="1" fill="#EFEBE1" />
<rect x="30" y="22" width="1" height="1" fill="#EFEBE1" />
<rect x="31" y="22" width="1" height="1" fill="#EFEBE1" />
<rect x="32" y="22" width="1" height="1" fill="#EFEBE1" />
<rect x="33" y="22" width="1" height="1" fill="#EFEBE1" />
<rect x="34" y="22" width="1" height="1" fill="#EFEBE1" />
<rect x="35" y="22" width="1" height="1" fill="#EFEBE1" />
<rect x="36" y="22" width="1" height="1" fill="#EFEBE1" />
<rect x="37" y="22" width="1" height="1" fill="#EFEBE1" />
<rect x="38" y="22" width="1" height="1" fill="#EFEBE1" />
<rect x="39" y="22" width="1" height="1" fill="#EFEBE1" />
<rect x="40" y="22" width="1" height="1" fill="#EFEBE1" />
<rect x="41" y="22" width="1" height="1" fill="#EFEBE1" />
<rect x="14" y="23" width="1" height="1" fill="#EFEBE1" />
<rect x="15" y="23" width="1" height="1" fill="#EFEBE1" />
<rect x="16" y="23" width="1" height="1" fill="#EFEBE1" />
<rect x="17" y="23" width="1" height="1" fill="#EFEBE1" />
<rect x="22" y="23" width="1" height="1" fill="#EFEBE1" />
<rect x="23" y="23" width="1" height="1" fill="#EFEBE1" />
<rect x="24" y="23" width="1" height="1" fill="#EFEBE1" />
<rect x="25" y="23" width="1" height="1" fill="#EFEBE1" />
<rect x="30" y="23" width="1" height="1" fill="#EFEBE1" />
<rect x="31" y="23" width="1" height="1" fill="#EFEBE1" />
<rect x="32" y="23" width="1" height="1" fill="#EFEBE1" />
<rect x="33" y="23" width="1" height="1" fill="#EFEBE1" />
<rect x="34" y="23" width="1" height="1" fill="#EFEBE1" />
<rect x="35" y="23" width="1" height="1" fill="#EFEBE1" />
<rect x="36" y="23" width="1" height="1" fill="#EFEBE1" />
<rect x="37" y="23" width="1" height="1" fill="#EFEBE1" />
<rect x="38" y="23" width="1" height="1" fill="#EFEBE1" />
<rect x="39" y="23" width="1" height="1" fill="#EFEBE1" />
<rect x="40" y="23" width="1" height="1" fill="#EFEBE1" />
<rect x="41" y="23" width="1" height="1" fill="#EFEBE1" />
<rect x="14" y="24" width="1" height="1" fill="#EFEBE1" />
<rect x="15" y="24" width="1" height="1" fill="#EFEBE1" />
<rect x="16" y="24" width="1" height="1" fill="#EFEBE1" />
<rect x="17" y="24" width="1" height="1" fill="#EFEBE1" />
<rect x="22" y="24" width="1" height="1" fill="#EFEBE1" />
<rect x="23" y="24" width="1" height="1" fill="#EFEBE1" />
<rect x="24" y="24" width="1" height="1" fill="#EFEBE1" />
<rect x="25" y="24" width="1" height="1" fill="#EFEBE1" />
<rect x="30" y="24" width="1" height="1" fill="#EFEBE1" />
<rect x="31" y="24" width="1" height="1" fill="#EFEBE1" />
<rect x="32" y="24" width="1" height="1" fill="#EFEBE1" />
<rect x="33" y="24" width="1" height="1" fill="#EFEBE1" />
<rect x="34" y="24" width="1" height="1" fill="#EFEBE1" />
<rect x="35" y="24" width="1" height="1" fill="#EFEBE1" />
<rect x="36" y="24" width="1" height="1" fill="#EFEBE1" />
<rect x="37" y="24" width="1" height="1" fill="#EFEBE1" />
<rect x="38" y="24" width="1" height="1" fill="#EFEBE1" />
<rect x="39" y="24" width="1" height="1" fill="#EFEBE1" />
<rect x="40" y="24" width="1" height="1" fill="#EFEBE1" />
<rect x="41" y="24" width="1" height="1" fill="#EFEBE1" />
<rect x="14" y="25" width="1" height="1" fill="#EFEBE1" />
<rect x="15" y="25" width="1" height="1" fill="#EFEBE1" />
<rect x="16" y="25" width="1" height="1" fill="#EFEBE1" />
<rect x="17" y="25" width="1" height="1" fill="#EFEBE1" />
<rect x="22" y="25" width="1" height="1" fill="#EFEBE1" />
<rect x="23" y="25" width="1" height="1" fill="#EFEBE1" />
<rect x="24" y="25" width="1" height="1" fill="#EFEBE1" />
<rect x="25" y="25" width="1" height="1" fill="#EFEBE1" />
<rect x="30" y="25" width="1" height="1" fill="#EFEBE1" />
<rect x="31" y="25" width="1" height="1" fill="#EFEBE1" />
<rect x="32" y="25" width="1" height="1" fill="#EFEBE1" />
<rect x="33" y="25" width="1" height="1" fill="#EFEBE1" />
<rect x="34" y="25" width="1" height="1" fill="#EFEBE1" />
<rect x="35" y="25" width="1" height="1" fill="#EFEBE1" />
<rect x="36" y="25" width="1" height="1" fill="#EFEBE1" />
<rect x="37" y="25" width="1" height="1" fill="#EFEBE1" />
<rect x="38" y="25" width="1" height="1" fill="#EFEBE1" />
<rect x="39" y="25" width="1" height="1" fill="#EFEBE1" />
<rect x="40" y="25" width="1" height="1" fill="#EFEBE1" />
<rect x="41" y="25" width="1" height="1" fill="#EFEBE1" />
<rect x="22" y="26" width="1" height="1" fill="#EFEBE1" />
<rect x="23" y="26" width="1" height="1" fill="#EFEBE1" />
<rect x="24" y="26" width="1" height="1" fill="#EFEBE1" />
<rect x="25" y="26" width="1" height="1" fill="#EFEBE1" />
<rect x="30" y="26" width="1" height="1" fill="#EFEBE1" />
<rect x="31" y="26" width="1" height="1" fill="#EFEBE1" />
<rect x="32" y="26" width="1" height="1" fill="#EFEBE1" />
<rect x="33" y="26" width="1" height="1" fill="#EFEBE1" />
<rect x="22" y="27" width="1" height="1" fill="#EFEBE1" />
<rect x="23" y="27" width="1" height="1" fill="#EFEBE1" />
<rect x="24" y="27" width="1" height="1" fill="#EFEBE1" />
<rect x="25" y="27" width="1" height="1" fill="#EFEBE1" />
<rect x="30" y="27" width="1" height="1" fill="#EFEBE1" />
<rect x="31" y="27" width="1" height="1" fill="#EFEBE1" />
<rect x="32" y="27" width="1" height="1" fill="#EFEBE1" />
<rect x="33" y="27" width="1" height="1" fill="#EFEBE1" />
<rect x="22" y="28" width="1" height="1" fill="#EFEBE1" />
<rect x="23" y="28" width="1" height="1" fill="#EFEBE1" />
<rect x="24" y="28" width="1" height="1" fill="#EFEBE1" />
<rect x="25" y="28" width="1" height="1" fill="#EFEBE1" />
<rect x="30" y="28" width="1" height="1" fill="#EFEBE1" />
<rect x="31" y="28" width="1" height="1" fill="#EFEBE1" />
<rect x="32" y="28" width="1" height="1" fill="#EFEBE1" />
<rect x="33" y="28" width="1" height="1" fill="#EFEBE1" />
<rect x="22" y="29" width="1" height="1" fill="#EFEBE1" />
<rect x="23" y="29" width="1" height="1" fill="#EFEBE1" />
<rect x="24" y="29" width="1" height="1" fill="#EFEBE1" />
<rect x="25" y="29" width="1" height="1" fill="#EFEBE1" />
<rect x="30" y="29" width="1" height="1" fill="#EFEBE1" />
<rect x="31" y="29" width="1" height="1" fill="#EFEBE1" />
<rect x="32" y="29" width="1" height="1" fill="#EFEBE1" />
<rect x="33" y="29" width="1" height="1" fill="#EFEBE1" />
<rect x="22" y="30" width="1" height="1" fill="#EFEBE1" />
<rect x="23" y="30" width="1" height="1" fill="#EFEBE1" />
<rect x="24" y="30" width="1" height="1" fill="#EFEBE1" />
<rect x="25" y="30" width="1" height="1" fill="#EFEBE1" />
<rect x="30" y="30" width="1" height="1" fill="#EFEBE1" />
<rect x="31" y="30" width="1" height="1" fill="#EFEBE1" />
<rect x="32" y="30" width="1" height="1" fill="#EFEBE1" />
<rect x="33" y="30" width="1" height="1" fill="#EFEBE1" />
<rect x="34" y="30" width="1" height="1" fill="#EFEBE1" />
<rect x="35" y="30" width="1" height="1" fill="#EFEBE1" />
<rect x="36" y="30" width="1" height="1" fill="#EFEBE1" />
<rect x="37" y="30" width="1" height="1" fill="#EFEBE1" />
<rect x="38" y="30" width="1" height="1" fill="#EFEBE1" />
<rect x="39" y="30" width="1" height="1" fill="#EFEBE1" />
<rect x="40" y="30" width="1" height="1" fill="#EFEBE1" />
<rect x="41" y="30" width="1" height="1" fill="#EFEBE1" />
<rect x="22" y="31" width="1" height="1" fill="#EFEBE1" />
<rect x="23" y="31" width="1" height="1" fill="#EFEBE1" />
<rect x="24" y="31" width="1" height="1" fill="#EFEBE1" />
<rect x="25" y="31" width="1" height="1" fill="#EFEBE1" />
<rect x="30" y="31" width="1" height="1" fill="#EFEBE1" />
<rect x="31" y="31" width="1" height="1" fill="#EFEBE1" />
<rect x="32" y="31" width="1" height="1" fill="#EFEBE1" />
<rect x="33" y="31" width="1" height="1" fill="#EFEBE1" />
<rect x="34" y="31" width="1" height="1" fill="#EFEBE1" />
<rect x="35" y="31" width="1" height="1" fill="#EFEBE1" />
<rect x="36" y="31" width="1" height="1" fill="#EFEBE1" />
<rect x="37" y="31" width="1" height="1" fill="#EFEBE1" />
<rect x="38" y="31" width="1" height="1" fill="#EFEBE1" />
<rect x="39" y="31" width="1" height="1" fill="#EFEBE1" />
<rect x="40" y="31" width="1" height="1" fill="#EFEBE1" />
<rect x="41" y="31" width="1" height="1" fill="#EFEBE1" />
<rect x="22" y="32" width="1" height="1" fill="#EFEBE1" />
<rect x="23" y="32" width="1" height="1" fill="#EFEBE1" />
<rect x="24" y="32" width="1" height="1" fill="#EFEBE1" />
<rect x="25" y="32" width="1" height="1" fill="#EFEBE1" />
<rect x="30" y="32" width="1" height="1" fill="#EFEBE1" />
<rect x="31" y="32" width="1" height="1" fill="#EFEBE1" />
<rect x="32" y="32" width="1" height="1" fill="#EFEBE1" />
<rect x="33" y="32" width="1" height="1" fill="#EFEBE1" />
<rect x="34" y="32" width="1" height="1" fill="#EFEBE1" />
<rect x="35" y="32" width="1" height="1" fill="#EFEBE1" />
<rect x="36" y="32" width="1" height="1" fill="#EFEBE1" />
<rect x="37" y="32" width="1" height="1" fill="#EFEBE1" />
<rect x="38" y="32" width="1" height="1" fill="#EFEBE1" />
<rect x="39" y="32" width="1" height="1" fill="#EFEBE1" />
<rect x="40" y="32" width="1" height="1" fill="#EFEBE1" />
<rect x="41" y="32" width="1" height="1" fill="#EFEBE1" />
<rect x="22" y="33" width="1" height="1" fill="#EFEBE1" />
<rect x="23" y="33" width="1" height="1" fill="#EFEBE1" />
<rect x="24" y="33" width="1" height="1" fill="#EFEBE1" />
<rect x="25" y="33" width="1" height="1" fill="#EFEBE1" />
<rect x="30" y="33" width="1" height="1" fill="#EFEBE1" />
<rect x="31" y="33" width="1" height="1" fill="#EFEBE1" />
<rect x="32" y="33" width="1" height="1" fill="#EFEBE1" />
<rect x="33" y="33" width="1" height="1" fill="#EFEBE1" />
<rect x="34" y="33" width="1" height="1" fill="#EFEBE1" />
<rect x="35" y="33" width="1" height="1" fill="#EFEBE1" />
<rect x="36" y="33" width="1" height="1" fill="#EFEBE1" />
<rect x="37" y="33" width="1" height="1" fill="#EFEBE1" />
<rect x="38" y="33" width="1" height="1" fill="#EFEBE1" />
<rect x="39" y="33" width="1" height="1" fill="#EFEBE1" />
<rect x="40" y="33" width="1" height="1" fill="#EFEBE1" />
<rect x="41" y="33" width="1" height="1" fill="#EFEBE1" />
<rect x="22" y="34" width="1" height="1" fill="#EFEBE1" />
<rect x="23" y="34" width="1" height="1" fill="#EFEBE1" />
<rect x="24" y="34" width="1" height="1" fill="#EFEBE1" />
<rect x="25" y="34" width="1" height="1" fill="#EFEBE1" />
<rect x="38" y="34" width="1" height="1" fill="#EFEBE1" />
<rect x="39" y="34" width="1" height="1" fill="#EFEBE1" />
<rect x="40" y="34" width="1" height="1" fill="#EFEBE1" />
<rect x="41" y="34" width="1" height="1" fill="#EFEBE1" />
<rect x="22" y="35" width="1" height="1" fill="#EFEBE1" />
<rect x="23" y="35" width="1" height="1" fill="#EFEBE1" />
<rect x="24" y="35" width="1" height="1" fill="#EFEBE1" />
<rect x="25" y="35" width="1" height="1" fill="#EFEBE1" />
<rect x="38" y="35" width="1" height="1" fill="#EFEBE1" />
<rect x="39" y="35" width="1" height="1" fill="#EFEBE1" />
<rect x="40" y="35" width="1" height="1" fill="#EFEBE1" />
<rect x="41" y="35" width="1" height="1" fill="#EFEBE1" />
<rect x="22" y="36" width="1" height="1" fill="#EFEBE1" />
<rect x="23" y="36" width="1" height="1" fill="#EFEBE1" />
<rect x="24" y="36" width="1" height="1" fill="#EFEBE1" />
<rect x="25" y="36" width="1" height="1" fill="#EFEBE1" />
<rect x="38" y="36" width="1" height="1" fill="#EFEBE1" />
<rect x="39" y="36" width="1" height="1" fill="#EFEBE1" />
<rect x="40" y="36" width="1" height="1" fill="#EFEBE1" />
<rect x="41" y="36" width="1" height="1" fill="#EFEBE1" />
<rect x="22" y="37" width="1" height="1" fill="#EFEBE1" />
<rect x="23" y="37" width="1" height="1" fill="#EFEBE1" />
<rect x="24" y="37" width="1" height="1" fill="#EFEBE1" />
<rect x="25" y="37" width="1" height="1" fill="#EFEBE1" />
<rect x="38" y="37" width="1" height="1" fill="#EFEBE1" />
<rect x="39" y="37" width="1" height="1" fill="#EFEBE1" />
<rect x="40" y="37" width="1" height="1" fill="#EFEBE1" />
<rect x="41" y="37" width="1" height="1" fill="#EFEBE1" />
<rect x="22" y="38" width="1" height="1" fill="#EFEBE1" />
<rect x="23" y="38" width="1" height="1" fill="#EFEBE1" />
<rect x="24" y="38" width="1" height="1" fill="#EFEBE1" />
<rect x="25" y="38" width="1" height="1" fill="#EFEBE1" />
<rect x="30" y="38" width="1" height="1" fill="#EFEBE1" />
<rect x="31" y="38" width="1" height="1" fill="#EFEBE1" />
<rect x="32" y="38" width="1" height="1" fill="#EFEBE1" />
<rect x="33" y="38" width="1" height="1" fill="#EFEBE1" />
<rect x="34" y="38" width="1" height="1" fill="#EFEBE1" />
<rect x="35" y="38" width="1" height="1" fill="#EFEBE1" />
<rect x="36" y="38" width="1" height="1" fill="#EFEBE1" />
<rect x="37" y="38" width="1" height="1" fill="#EFEBE1" />
<rect x="38" y="38" width="1" height="1" fill="#EFEBE1" />
<rect x="39" y="38" width="1" height="1" fill="#EFEBE1" />
<rect x="40" y="38" width="1" height="1" fill="#EFEBE1" />
<rect x="41" y="38" width="1" height="1" fill="#EFEBE1" />
<rect x="22" y="39" width="1" height="1" fill="#EFEBE1" />
<rect x="23" y="39" width="1" height="1" fill="#EFEBE1" />
<rect x="24" y="39" width="1" height="1" fill="#EFEBE1" />
<rect x="25" y="39" width="1" height="1" fill="#EFEBE1" />
<rect x="30" y="39" width="1" height="1" fill="#EFEBE1" />
<rect x="31" y="39" width="1" height="1" fill="#EFEBE1" />
<rect x="32" y="39" width="1" height="1" fill="#EFEBE1" />
<rect x="33" y="39" width="1" height="1" fill="#EFEBE1" />
<rect x="34" y="39" width="1" height="1" fill="#EFEBE1" />
<rect x="35" y="39" width="1" height="1" fill="#EFEBE1" />
<rect x="36" y="39" width="1" height="1" fill="#EFEBE1" />
<rect x="37" y="39" width="1" height="1" fill="#EFEBE1" />
<rect x="38" y="39" width="1" height="1" fill="#EFEBE1" />
<rect x="39" y="39" width="1" height="1" fill="#EFEBE1" />
<rect x="40" y="39" width="1" height="1" fill="#EFEBE1" />
<rect x="41" y="39" width="1" height="1" fill="#EFEBE1" />
<rect x="22" y="40" width="1" height="1" fill="#EFEBE1" />
<rect x="23" y="40" width="1" height="1" fill="#EFEBE1" />
<rect x="24" y="40" width="1" height="1" fill="#EFEBE1" />
<rect x="25" y="40" width="1" height="1" fill="#EFEBE1" />
<rect x="30" y="40" width="1" height="1" fill="#EFEBE1" />
<rect x="31" y="40" width="1" height="1" fill="#EFEBE1" />
<rect x="32" y="40" width="1" height="1" fill="#EFEBE1" />
<rect x="33" y="40" width="1" height="1" fill="#EFEBE1" />
<rect x="34" y="40" width="1" height="1" fill="#EFEBE1" />
<rect x="35" y="40" width="1" height="1" fill="#EFEBE1" />
<rect x="36" y="40" width="1" height="1" fill="#EFEBE1" />
<rect x="37" y="40" width="1" height="1" fill="#EFEBE1" />
<rect x="38" y="40" width="1" height="1" fill="#EFEBE1" />
<rect x="39" y="40" width="1" height="1" fill="#EFEBE1" />
<rect x="40" y="40" width="1" height="1" fill="#EFEBE1" />
<rect x="41" y="40" width="1" height="1" fill="#EFEBE1" />
<rect x="22" y="41" width="1" height="1" fill="#EFEBE1" />
<rect x="23" y="41" width="1" height="1" fill="#EFEBE1" />
<rect x="24" y="41" width="1" height="1" fill="#EFEBE1" />
<rect x="25" y="41" width="1" height="1" fill="#EFEBE1" />
<rect x="30" y="41" width="1" height="1" fill="#EFEBE1" />
<rect x="31" y="41" width="1" height="1" fill="#EFEBE1" />
<rect x="32" y="41" width="1" height="1" fill="#EFEBE1" />
<rect x="33" y="41" width="1" height="1" fill="#EFEBE1" />
<rect x="34" y="41" width="1" height="1" fill="#EFEBE1" />
<rect x="35" y="41" width="1" height="1" fill="#EFEBE1" />
<rect x="36" y="41" width="1" height="1" fill="#EFEBE1" />
<rect x="37" y="41" width="1" height="1" fill="#EFEBE1" />
<rect x="38" y="41" width="1" height="1" fill="#EFEBE1" />
<rect x="39" y="41" width="1" height="1" fill="#EFEBE1" />
<rect x="40" y="41" width="1" height="1" fill="#EFEBE1" />
<rect x="41" y="41" width="1" height="1" fill="#EFEBE1" />
</svg>