<?xml version="1.0" encoding="UTF-8" ?>
<svg version="1.1" width="48" height="48" xmlns="http://www.w3.org/2000/svg" shape-rendering="crispEdges">
<rect x="16" y="8" width="1" height="1" fill="#EFEBE1" />
<rect x="17" y="8" width="1" height="1" fill="#EFEBE1" />
<rect x="18" y="8" width="1" height="1" fill="#EFEBE1" />
<rect x="19" y="8" width="1" height="1" fill="#EFEBE1" />
<rect x="20" y="8" width="1" height="1" fill="#EFEBE1" />
<rect x="21" y="8" width="1" height="1" fill="#EFEBE1" />
<rect x="22" y="8" width="1" height="1" fill="#EFEBE1" />
<rect x="23" y="8" width="1" height="1" fill="#EFEBE1" />
<rect x="24" y="8" width="1" height="1" fill="#EFEBE1" />
<rect x="25" y="8" width="1" height="1" fill="#EFEBE1" />
<rect x="26" y="8" width="1" height="1" fill="#EFEBE1" />
<rect x="27" y="8" width="1" height="1" fill="#EFEBE1" />
<rect x="28" y="8" width="1" height="1" fill="#EFEBE1" />
<rect x="29" y="8" width="1" height="1" fill="#EFEBE1" />
<rect x="30" y="8" width="1" height="1" fill="#EFEBE1" />
<rect x="31" y="8" width="1" height="1" fill="#EFEBE1" />
<rect x="16" y="9" width="1" height="1" fill="#EFEBE1" />
<rect x="17" y="9" width="1" height="1" fill="#EFEBE1" />
<rect x="18" y="9" width="1" height="1" fill="#EFEBE1" />
<rect x="19" y="9" width="1" height="1" fill="#EFEBE1" />
<rect x="20" y="9" width="1" height="1" fill="#EFEBE1" />
<rect x="21" y="9" width="1" height="1" fill="#EFEBE1" />
<rect x="22" y="9" width="1" height="1" fill="#EFEBE1" />
<rect x="23" y="9" width="1" height="1" fill="#EFEBE1" />
<rect x="24" y="9" width="1" height="1" fill="#EFEBE1" />
<rect x="25" y="9" width="1" height="1" fill="#EFEBE1" />
<rect x="26" y="9" width="1" height="1" fill="#EFEBE1" />
<rect x="27" y="9" width="1" height="1" fill="#EFEBE1" />
<rect x="28" y="9" width="1" height="1" fill="#EFEBE1" />
<rect x="29" y="9" width="1" height="1" fill="#EFEBE1" />
<rect x="30" y="9" width="1" height="1" fill="#EFEBE1" />
<rect x="31" y="9" width="1" height="1" fill="#EFEBE1" />
<rect x="16" y="10" width="1" height="1" fill="#EFEBE1" />
<rect x="17" y="10" width="1" height="1" fill="#EFEBE1" />
<rect x="18" y="10" width="1" height="1" fill="#EFEBE1" />
<rect x="19" y="10" width="1" height="1" fill="#EFEBE1" />
<rect x="20" y="10" width="1" height="1" fill="#EFEBE1" />
<rect x="21" y="10" width="1" height="1" fill="#EFEBE1" />
<rect x="22" y="10" width="1" height="1" fill="#EFEBE1" />
<rect x="23" y="10" width="1" height="1" fill="#EFEBE1" />
<rect x="24" y="10" width="1" height="1" fill="#EFEBE1" />
<rect x="25" y="10" width="1" height="1" fill="#EFEBE1" />
<rect x="26" y="10" width="1" height="1" fill="#EFEBE1" />
<rect x="27" y="10" width="1" height="1" fill="#EFEBE1" />
<rect x="28" y="10" width="1" height="1" fill="#EFEBE1" />
<rect x="29" y="10" width="1" height="1" fill="#EFEBE1" />
<rect x="30" y="10" width="1" height="1" fill="#EFEBE1" />
<rect x="31" y="10" width="1" height="1" fill="#EFEBE1" />
<rect x="16" y="11" width="1" height="1" fill="#EFEBE1" />
<rect x="17" y="11" width="1" height="1" fill="#EFEBE1" />
<rect x="18" y="11" width="1" height="1" fill="#EFEBE1" />
<rect x="19" y="11" width="1" height="1" fill="#EFEBE1" />
<rect x="20" y="11" width="1" height="1" fill="#EFEBE1" />
<rect x="21" y="11" width="1" height="1" fill="#EFEBE1" />
<rect x="22" y="11" width="1" height="1" fill="#EFEBE1" />
<rect x="23" y="11" width="1" height="1" fill="#EFEBE1" />
<rect x="24" y="11" width="1" height="1" fill="#EFEBE1" />
<rect x="25" y="11" width="1" height="1" fill="#EFEBE1" />
<rect x="26" y="11" width="1" height="1" fill="#EFEBE1" />
<rect x="27" y="11" width="1" height="1" fill="#EFEBE1" />
<rect x="28" y="11" width="1" height="1" fill="#EFEBE1" />
<rect x="29" y="11" width="1" height="1" fill="#EFEBE1" />
<rect x="30" y="11" width="1" height="1" fill="#EFEBE1" />
<rect x="31" y="11" width="1" height="1" fill="#EFEBE1" />
<rect x="12" y="12" width="1" height="1" fill="#EFEBE1" />
<rect x="13" y="12" width="1" height="1" fill="#EFEBE1" />
<rect x="14" y="12" width="1" height="1" fill="#EFEBE1" />
<rect x="15" y="12" width="1" height="1" fill="#EFEBE1" />
<rect x="32" y="12" width="1" height="1" fill="#EFEBE1" />
<rect x="33" y="12" width="1" height="1" fill="#EFEBE1" />
<rect x="34" y="12" width="1" height="1" fill="#EFEBE1" />
<rect x="35" y="12" width="1" height="1" fill="#EFEBE1" />
<rect x="12" y="13" width="1" height="1" fill="#EFEBE1" />
<rect x="13" y="13" width="1" height="1" fill="#EFEBE1" />
<rect x="14" y="13" width="1" height="1" fill="#EFEBE1" />
<rect x="15" y="13" width="1" height="1" fill="#EFEBE1" />
<rect x="32" y="13" width="1" height="1" fill="#EFEBE1" />
<rect x="33" y="13" width="1" height="1" fill="#EFEBE1" />
<rect x="34" y="13" width="1" height="1" fill="#EFEBE1" />
<rect x="35" y="13" width="1" height="1" fill="#EFEBE1" />
<rect x="12" y="14" width="1" height="1" fill="#EFEBE1" />
<rect x="13" y="14" width="1" height="1" fill="#EFEBE1" />
<rect x="14" y="14" width="1" height="1" fill="#EFEBE1" />
<rect x="15" y="14" width="1" height="1" fill="#EFEBE1" />
<rect x="32" y="14" width="1" height="1" fill="#EFEBE1" />
<rect x="33" y="14" width="1" height="1" fill="#EFEBE1" />
<rect x="34" y="14" width="1" height="1" fill="#EFEBE1" />
<rect x="35" y="14" width="1" height="1" fill="#EFEBE1" />
<rect x="12" y="15" width="1" height="1" fill="#EFEBE1" />
<rect x="13" y="15" width="1" height="1" fill="#EFEBE1" />
<rect x="14" y="15" width="1" height="1" fill="#EFEBE1" />
<rect x="15" y="15" width="1" height="1" fill="#EFEBE1" />
<rect x="32" y="15" width="1" height="1" fill="#EFEBE1" />
<rect x="33" y="15" width="1" height="1" fill="#EFEBE1" />
<rect x="34" y="15" width="1" height="1" fill="#EFEBE1" />
<rect x="35" y="15" width="1" height="1" fill="#EFEBE1" />
<rect x="12" y="16" width="1" height="1" fill="#EFEBE1" />
<rect x="13" y="16" width="1" height="1" fill="#EFEBE1" />
<rect x="14" y="16" width="1" height="1" fill="#EFEBE1" />
<rect x="15" y="16" width="1" height="1" fill="#EFEBE1" />
<rect x="32" y="16" width="1" height="1" fill="#EFEBE1" />
<rect x="33" y="16" width="1" height="1" fill="#EFEBE1" />
<rect x="34" y="16" width="1" height="1" fill="#EFEBE1" />
<rect x="35" y="16" width="1" height="1" fill="#EFEBE1" />
<rect x="12" y="17" width="1" height="1" fill="#EFEBE1" />
<rect x="13" y="17" width="1" height="1" fill="#EFEBE1" />
<rect x="14" y="17" width="1" height="1" fill="#EFEBE1" />
<rect x="15" y="17" width="1" height="1" fill="#EFEBE1" />
<rect x="32" y="17" width="1" height="1" fill="#EFEBE1" />
<rect x="33" y="17" width="1" height="1" fill="#EFEBE1" />
<rect x="34" y="17" width="1" height="1" fill="#EFEBE1" />
<rect x="35" y="17" width="1" height="1" fill="#EFEBE1" />
<rect x="12" y="18" width="1" height="1" fill="#EFEBE1" />
<rect x="13" y="18" width="1" height="1" fill="#EFEBE1" />
<rect x="14" y="18" width="1" height="1" fill="#EFEBE1" />
<rect x="15" y="18" width="1" height="1" fill="#EFEBE1" />
<rect x="32" y="18" width="1" height="1" fill="#EFEBE1" />
<rect x="33" y="18" width="1" height="1" fill="#EFEBE1" />
<rect x="34" y="18" width="1" height="1" fill="#EFEBE1" />
<rect x="35" y="18" width="1" height="1" fill="#EFEBE1" />
<rect x="12" y="19" width="1" height="1" fill="#EFEBE1" />
<rect x="13" y="19" width="1" height="1" fill="#EFEBE1" />
<rect x="14" y="19" width="1" height="1" fill="#EFEBE1" />
<rect x="15" y="19" width="1" height="1" fill="#EFEBE1" />
<rect x="32" y="19" width="1" height="1" fill="#EFEBE1" />
<rect x="33" y="19" width="1" height="1" fill="#EFEBE1" />
<rect x="34" y="19" width="1" height="1" fill="#EFEBE1" />
<rect x="35" y="19" width="1" height="1" fill="#EFEBE1" />
<rect x="8" y="20" width="1" height="1" fill="#EFEBE1" />
<rect x="9" y="20" width="1" height="1" fill="#EFEBE1" />
<rect x="10" y="20" width="1" height="1" fill="#EFEBE1" />
<rect x="11" y="20" width="1" height="1" fill="#EFEBE1" />
<rect x="12" y="20" width="1" height="1" fill="#EFEBE1" />
<rect x="13" y="20" width="1" height="1" fill="#EFEBE1" />
<rect x="14" y="20" width="1" height="1" fill="#EFEBE1" />
<rect x="15" y="20" width="1" height="1" fill="#EFEBE1" />
<rect x="32" y="20" width="1" height="1" fill="#EFEBE1" />
<rect x="33" y="20" width="1" height="1" fill="#EFEBE1" />
<rect x="34" y="20" width="1" height="1" fill="#EFEBE1" />
<rect x="35" y="20" width="1" height="1" fill="#EFEBE1" />
<rect x="36" y="20" width="1" height="1" fill="#EFEBE1" />
<rect x="37" y="20" width="1" height="1" fill="#EFEBE1" />
<rect x="38" y="20" width="1" height="1" fill="#EFEBE1" />
<rect x="39" y="20" width="1" height="1" fill="#EFEBE1" />
<rect x="8" y="21" width="1" height="1" fill="#EFEBE1" />
<rect x="9" y="21" width="1" height="1" fill="#EFEBE1" />
<rect x="10" y="21" width="1" height="1" fill="#EFEBE1" />
<rect x="11" y="21" width="1" height="1" fill="#EFEBE1" />
<rect x="12" y="21" width="1" height="1" fill="#EFEBE1" />
<rect x="13" y="21" width="1" height="1" fill="#EFEBE1" />
<rect x="14" y="21" width="1" height="1" fill="#EFEBE1" />
<rect x="15" y="21" width="1" height="1" fill="#EFEBE1" />
<rect x="32" y="21" width="1" height="1" fill="#EFEBE1" />
<rect x="33" y="21" width="1" height="1" fill="#EFEBE1" />
<rect x="34" y="21" width="1" height="1" fill="#EFEBE1" />
<rect x="35" y="21" width="1" height="1" fill="#EFEBE1" />
<rect x="36" y="21" width="1" height="1" fill="#EFEBE1" />
<rect x="37" y="21" width="1" height="1" fill="#EFEBE1" />
<rect x="38" y="21" width="1" height="1" fill="#EFEBE1" />
<rect x="39" y="21" width="1" height="1" fill="#EFEBE1" />
<rect x="8" y="22" width="1" height="1" fill="#EFEBE1" />
<rect x="9" y="22" width="1" height="1" fill="#EFEBE1" />
<rect x="10" y="22" width="1" height="1" fill="#EFEBE1" />
<rect x="11" y="22" width="1" height="1" fill="#EFEBE1" />
<rect x="12" y="22" width="1" height="1" fill="#EFEBE1" />
<rect x="13" y="22" width="1" height="1" fill="#EFEBE1" />
<rect x="14" y="22" width="1" height="1" fill="#EFEBE1" />
<rect x="15" y="22" width="1" height="1" fill="#EFEBE1" />
<rect x="32" y="22" width="1" height="1" fill="#EFEBE1" />
<rect x="33" y="22" width="1" height="1" fill="#EFEBE1" />
<rect x="34" y="22" width="1" height="1" fill="#EFEBE1" />
<rect x="35" y="22" width="1" height="1" fill="#EFEBE1" />
<rect x="36" y="22" width="1" height="1" fill="#EFEBE1" />
<rect x="37" y="22" width="1" height="1" fill="#EFEBE1" />
<rect x="38" y="22" width="1" height="1" fill="#EFEBE1" />
<rect x="39" y="22" width="1" height="1" fill="#EFEBE1" />
<rect x="8" y="23" width="1" height="1" fill="#EFEBE1" />
<rect x="9" y="23" width="1" height="1" fill="#EFEBE1" />
<rect x="10" y="23" width="1" height="1" fill="#EFEBE1" />
<rect x="11" y="23" width="1" height="1" fill="#EFEBE1" />
<rect x="12" y="23" width="1" height="1" fill="#EFEBE1" />
<rect x="13" y="23" width="1" height="1" fill="#EFEBE1" />
<rect x="14" y="23" width="1" height="1" fill="#EFEBE1" />
<rect x="15" y="23" width="1" height="1" fill="#EFEBE1" />
<rect x="32" y="23" width="1" height="1" fill="#EFEBE1" />
<rect x="33" y="23" width="1" height="1" fill="#EFEBE1" />
<rect x="34" y="23" width="1" height="1" fill="#EFEBE1" />
<rect x="35" y="23" width="1" height="1" fill="#EFEBE1" />
<rect x="36" y="23" width="1" height="1" fill="#EFEBE1" />
<rect x="37" y="23" width="1" height="1" fill="#EFEBE1" />
<rect x="38" y="23" width="1" height="1" fill="#EFEBE1" />
<rect x="39" y="23" width="1" height="1" fill="#EFEBE1" />
<rect x="4" y="24" width="1" height="1" fill="#EFEBE1" />
<rect x="5" y="24" width="1" height="1" fill="#EFEBE1" />
<rect x="6" y="24" width="1" height="1" fill="#EFEBE1" />
<rect x="7" y="24" width="1" height="1" fill="#EFEBE1" />
<rect x="12" y="24" width="1" height="1" fill="#EFEBE1" />
<rect x="13" y="24" width="1" height="1" fill="#EFEBE1" />
<rect x="14" y="24" width="1" height="1" fill="#EFEBE1" />
<rect x="15" y="24" width="1" height="1" fill="#EFEBE1" />
<rect x="32" y="24" width="1" height="1" fill="#EFEBE1" />
<rect x="33" y="24" width="1" height="1" fill="#EFEBE1" />
<rect x="34" y="24" width="1" height="1" fill="#EFEBE1" />
<rect x="35" y="24" width="1" height="1" fill="#EFEBE1" />
<rect x="40" y="24" width="1" height="1" fill="#EFEBE1" />
<rect x="41" y="24" width="1" height="1" fill="#EFEBE1" />
<rect x="42" y="24" width="1" height="1" fill="#EFEBE1" />
<rect x="43" y="24" width="1" height="1" fill="#EFEBE1" />
<rect x="4" y="25" width="1" height="1" fill="#EFEBE1" />
<rect x="5" y="25" width="1" height="1" fill="#EFEBE1" />
<rect x="6" y="25" width="1" height="1" fill="#EFEBE1" />
<rect x="7" y="25" width="1" height="1" fill="#EFEBE1" />
<rect x="12" y="25" width="1" height="1" fill="#EFEBE1" />
<rect x="13" y="25" width="1" height="1" fill="#EFEBE1" />
<rect x="14" y="25" width="1" height="1" fill="#EFEBE1" />
<rect x="15" y="25" width="1" height="1" fill="#EFEBE1" />
<rect x="32" y="25" width="1" height="1" fill="#EFEBE1" />
<rect x="33" y="25" width="1" height="1" fill="#EFEBE1" />
<rect x="34" y="25" width="1" height="1" fill="#EFEBE1" />
<rect x="35" y="25" width="1" height="1" fill="#EFEBE1" />
<rect x="40" y="25" width="1" height="1" fill="#EFEBE1" />
<rect x="41" y="25" width="1" height="1" fill="#EFEBE1" />
<rect x="42" y="25" width="1" height="1" fill="#EFEBE1" />
<rect x="43" y="25" width="1" height="1" fill="#EFEBE1" />
<rect x="4" y="26" width="1" height="1" fill="#EFEBE1" />
<rect x="5" y="26" width="1" height="1" fill="#EFEBE1" />
<rect x="6" y="26" width="1" height="1" fill="#EFEBE1" />
<rect x="7" y="26" width="1" height="1" fill="#EFEBE1" />
<rect x="12" y="26" width="1" height="1" fill="#EFEBE1" />
<rect x="13" y="26" width="1" height="1" fill="#EFEBE1" />
<rect x="14" y="26" width="1" height="1" fill="#EFEBE1" />
<rect x="15" y="26" width="1" height="1" fill="#EFEBE1" />
<rect x="32" y="26" width="1" height="1" fill="#EFEBE1" />
<rect x="33" y="26" width="1" height="1" fill="#EFEBE1" />
<rect x="34" y="26" width="1" height="1" fill="#EFEBE1" />
<rect x="35" y="26" width="1" height="1" fill="#EFEBE1" />
<rect x="40" y="26" width="1" height="1" fill="#EFEBE1" />
<rect x="41" y="26" width="1" height="1" fill="#EFEBE1" />
<rect x="42" y="26" width="1" height="1" fill="#EFEBE1" />
<rect x="43" y="26" width="1" height="1" fill="#EFEBE1" />
<rect x="4" y="27" width="1" height="1" fill="#EFEBE1" />
<rect x="5" y="27" width="1" height="1" fill="#EFEBE1" />
<rect x="6" y="27" width="1" height="1" fill="#EFEBE1" />
<rect x="7" y="27" width="1" height="1" fill="#EFEBE1" />
<rect x="12" y="27" width="1" height="1" fill="#EFEBE1" />
<rect x="13" y="27" width="1" height="1" fill="#EFEBE1" />
<rect x="14" y="27" width="1" height="1" fill="#EFEBE1" />
<rect x="15" y="27" width="1" height="1" fill="#EFEBE1" />
<rect x="32" y="27" width="1" height="1" fill="#EFEBE1" />
<rect x="33" y="27" width="1" height="1" fill="#EFEBE1" />
<rect x="34" y="27" width="1" height="1" fill="#EFEBE1" />
<rect x="35" y="27" width="1" height="1" fill="#EFEBE1" />
<rect x="40" y="27" width="1" height="1" fill="#EFEBE1" />
<rect x="41" y="27" width="1" height="1" fill="#EFEBE1" />
<rect x="42" y="27" width="1" height="1" fill="#EFEBE1" />
<rect x="43" y="27" width="1" height="1" fill="#EFEBE1" />
<rect x="4" y="28" width="1" height="1" fill="#EFEBE1" />
<rect x="5" y="28" width="1" height="1" fill="#EFEBE1" />
<rect x="6" y="28" width="1" height="1" fill="#EFEBE1" />
<rect x="7" y="28" width="1" height="1" fill="#EFEBE1" />
<rect x="12" y="28" width="1" height="1" fill="#EFEBE1" />
<rect x="13" y="28" width="1" height="1" fill="#EFEBE1" />
<rect x="14" y="28" width="1" height="1" fill="#EFEBE1" />
<rect x="15" y="28" width="1" height="1" fill="#EFEBE1" />
<rect x="32" y="28" width="1" height="1" fill="#EFEBE1" />
<rect x="33" y="28" width="1" height="1" fill="#EFEBE1" />
<rect x="34" y="28" width="1" height="1" fill="#EFEBE1" />
<rect x="35" y="28" width="1" height="1" fill="#EFEBE1" />
<rect x="40" y="28" width="1" height="1" fill="#EFEBE1" />
<rect x="41" y="28" width="1" height="1" fill="#EFEBE1" />
<rect x="42" y="28" width="1" height="1" fill="#EFEBE1" />
<rect x="43" y="28" width="1" height="1" fill="#EFEBE1" />
<rect x="4" y="29" width="1" height="1" fill="#EFEBE1" />
<rect x="5" y="29" width="1" height="1" fill="#EFEBE1" />
<rect x="6" y="29" width="1" height="1" fill="#EFEBE1" />
<rect x="7" y="29" width="1" height="1" fill="#EFEBE1" />
<rect x="12" y="29" width="1" height="1" fill="#EFEBE1" />
<rect x="13" y="29" width="1" height="1" fill="#EFEBE1" />
<rect x="14" y="29" width="1" height="1" fill="#EFEBE1" />
<rect x="15" y="29" width="1" height="1" fill="#EFEBE1" />
<rect x="32" y="29" width="1" height="1" fill="#EFEBE1" />
<rect x="33" y="29" width="1" height="1" fill="#EFEBE1" />
<rect x="34" y="29" width="1" height="1" fill="#EFEBE1" />
<rect x="35" y="29" width="1" height="1" fill="#EFEBE1" />
<rect x="40" y="29" width="1" height="1" fill="#EFEBE1" />
<rect x="41" y="29" width="1" height="1" fill="#EFEBE1" />
<rect x="42" y="29" width="1" height="1" fill="#EFEBE1" />
<rect x="43" y="29" width="1" height="1" fill="#EFEBE1" />
<rect x="4" y="30" width="1" height="1" fill="#EFEBE1" />
<rect x="5" y="30" width="1" height="1" fill="#EFEBE1" />
<rect x="6" y="30" width="1" height="1" fill="#EFEBE1" />
<rect x="7" y="30" width="1" height="1" fill="#EFEBE1" />
<rect x="12" y="30" width="1" height="1" fill="#EFEBE1" />
<rect x="13" y="30" width="1" height="1" fill="#EFEBE1" />
<rect x="14" y="30" width="1" height="1" fill="#EFEBE1" />
<rect x="15" y="30" width="1" height="1" fill="#EFEBE1" />
<rect x="32" y="30" width="1" height="1" fill="#EFEBE1" />
<rect x="33" y="30" width="1" height="1" fill="#EFEBE1" />
<rect x="34" y="30" width="1" height="1" fill="#EFEBE1" />
<rect x="35" y="30" width="1" height="1" fill="#EFEBE1" />
<rect x="40" y="30" width="1" height="1" fill="#EFEBE1" />
<rect x="41" y="30" width="1" height="1" fill="#EFEBE1" />
<rect x="42" y="30" width="1" height="1" fill="#EFEBE1" />
<rect x="43" y="30" width="1" height="1" fill="#EFEBE1" />
<rect x="4" y="31" width="1" height="1" fill="#EFEBE1" />
<rect x="5" y="31" width="1" height="1" fill="#EFEBE1" />
<rect x="6" y="31" width="1" height="1" fill="#EFEBE1" />
<rect x="7" y="31" width="1" height="1" fill="#EFEBE1" />
<rect x="12" y="31" width="1" height="1" fill="#EFEBE1" />
<rect x="13" y="31" width="1" height="1" fill="#EFEBE1" />
<rect x="14" y="31" width="1" height="1" fill="#EFEBE1" />
<rect x="15" y="31" width="1" height="1" fill="#EFEBE1" />
<rect x="32" y="31" width="1" height="1" fill="#EFEBE1" />
<rect x="33" y="31" width="1" height="1" fill="#EFEBE1" />
<rect x="34" y="31" width="1" height="1" fill="#EFEBE1" />
<rect x="35" y="31" width="1" height="1" fill="#EFEBE1" />
<rect x="40" y="31" width="1" height="1" fill="#EFEBE1" />
<rect x="41" y="31" width="1" height="1" fill="#EFEBE1" />
<rect x="42" y="31" width="1" height="1" fill="#EFEBE1" />
<rect x="43" y="31" width="1" height="1" fill="#EFEBE1" />
<rect x="8" y="32" width="1" height="1" fill="#EFEBE1" />
<rect x="9" y="32" width="1" height="1" fill="#EFEBE1" />
<rect x="10" y="32" width="1" height="1" fill="#EFEBE1" />
<rect x="11" y="32" width="1" height="1" fill="#EFEBE1" />
<rect x="12" y="32" width="1" height="1" fill="#EFEBE1" />
<rect x="13" y="32" width="1" height="1" fill="#EFEBE1" />
<rect x="14" y="32" width="1" height="1" fill="#EFEBE1" />
<rect x="15" y="32" width="1" height="1" fill="#EFEBE1" />
<rect x="32" y="32" width="1" height="1" fill="#EFEBE1" />
<rect x="33" y="32" width="1" height="1" fill="#EFEBE1" />
<rect x="34" y="32" width="1" height="1" fill="#EFEBE1" />
<rect x="35" y="32" width="1" height="1" fill="#EFEBE1" />
<rect x="36" y="32" width="1" height="1" fill="#EFEBE1" />
<rect x="37" y="32" width="1" height="1" fill="#EFEBE1" />
<rect x="38" y="32" width="1" height="1" fill="#EFEBE1" />
<rect x="39" y="32" width="1" height="1" fill="#EFEBE1" />
<rect x="8" y="33" width="1" height="1" fill="#EFEBE1" />
<rect x="9" y="33" width="1" height="1" fill="#EFEBE1" />
<rect x="10" y="33" width="1" height="1" fill="#EFEBE1" />
<rect x="11" y="33" width="1" height="1" fill="#EFEBE1" />
<rect x="12" y="33" width="1" height="1" fill="#EFEBE1" />
<rect x="13" y="33" width="1" height="1" fill="#EFEBE1" />
<rect x="14" y="33" width="1" height="1" fill="#EFEBE1" />
<rect x="15" y="33" width="1" height="1" fill="#EFEBE1" />
<rect x="32" y="33" width="1" height="1" fill="#EFEBE1" />
<rect x="33" y="33" width="1" height="1" fill="#EFEBE1" />
<rect x="34" y="33" width="1" height="1" fill="#EFEBE1" />
<rect x="35" y="33" width="1" height="1" fill="#EFEBE1" />
<rect x="36" y="33" width="1" height="1" fill="#EFEBE1" />
<rect x="37" y="33" width="1" height="1" fill="#EFEBE1" />
<rect x="38" y="33" width="1" height="1" fill="#EFEBE1" />
<rect x="39" y="33" width="1" height="1" fill="#EFEBE1" />
<rect x="8" y="34" width="1" height="1" fill="#EFEBE1" />
<rect x="9" y="34" width="1" height="1" fill="#EFEBE1" />
<rect x="10" y="34" width="1" height="1" fill="#EFEBE1" />
<rect x="11" y="34" width="1" height="1" fill="#EFEBE1" />
<rect x="12" y="34" width="1" height="1" fill="#EFEBE1" />
<rect x="13" y="34" width="1" height="1" fill="#EFEBE1" />
<rect x="14" y="34" width="1" height="1" fill="#EFEBE1" />
<rect x="15" y="34" width="1" height="1" fill="#EFEBE1" />
<rect x="32" y="34" width="1" height="1" fill="#EFEBE1" />
<rect x="33" y="34" width="1" height="1" fill="#EFEBE1" />
<rect x="34" y="34" width="1" height="1" fill="#EFEBE1" />
<rect x="35" y="34" width="1" height="1" fill="#EFEBE1" />
<rect x="36" y="34" width="1" height="1" fill="#EFEBE1" />
<rect x="37" y="34" width="1" height="1" fill="#EFEBE1" />
<rect x="38" y="34" width="1" height="1" fill="#EFEBE1" />
<rect x="39" y="34" width="1" height="1" fill="#EFEBE1" />
<rect x="8" y="35" width="1" height="1" fill="#EFEBE1" />
<rect x="9" y="35" width="1" height="1" fill="#EFEBE1" />
<rect x="10" y="35" width="1" height="1" fill="#EFEBE1" />
<rect x="11" y="35" width="1" height="1" fill="#EFEBE1" />
<rect x="12" y="35" width="1" height="1" fill="#EFEBE1" />
<rect x="13" y="35" width="1" height="1" fill="#EFEBE1" />
<rect x="14" y="35" width="1" height="1" fill="#EFEBE1" />
<rect x="15" y="35" width="1" height="1" fill="#EFEBE1" />
<rect x="32" y="35" width="1" height="1" fill="#EFEBE1" />
<rect x="33" y="35" width="1" height="1" fill="#EFEBE1" />
<rect x="34" y="35" width="1" height="1" fill="#EFEBE1" />
<rect x="35" y="35" width="1" height="1" fill="#EFEBE1" />
<rect x="36" y="35" width="1" height="1" fill="#EFEBE1" />
<rect x="37" y="35" width="1" height="1" fill="#EFEBE1" />
<rect x="38" y="35" width="1" height="1" fill="#EFEBE1" />
<rect x="39" y="35" width="1" height="1" fill="#EFEBE1" />
</svg>