<?xml version="1.0" encoding="UTF-8" ?>
<svg version="1.1" width="48" height="48" xmlns="http://www.w3.org/2000/svg" shape-rendering="crispEdges">
<rect x="8" y="4" width="1" height="1" fill="#EFEBE1" />
<rect x="9" y="4" width="1" height="1" fill="#EFEBE1" />
<rect x="10" y="4" width="1" height="1" fill="#EFEBE1" />
<rect x="11" y="4" width="1" height="1" fill="#EFEBE1" />
<rect x="12" y="4" width="1" height="1" fill="#EFEBE1" />
<rect x="13" y="4" width="1" height="1" fill="#EFEBE1" />
<rect x="14" y="4" width="1" height="1" fill="#EFEBE1" />
<rect x="15" y="4" width="1" height="1" fill="#EFEBE1" />
<rect x="16" y="4" width="1" height="1" fill="#EFEBE1" />
<rect x="17" y="4" width="1" height="1" fill="#EFEBE1" />
<rect x="18" y="4" width="1" height="1" fill="#EFEBE1" />
<rect x="19" y="4" width="1" height="1" fill="#EFEBE1" />
<rect x="20" y="4" width="1" height="1" fill="#EFEBE1" />
<rect x="21" y="4" width="1" height="1" fill="#EFEBE1" />
<rect x="22" y="4" width="1" height="1" fill="#EFEBE1" />
<rect x="23" y="4" width="1" height="1" fill="#EFEBE1" />
<rect x="24" y="4" width="1" height="1" fill="#EFEBE1" />
<rect x="25" y="4" width="1" height="1" fill="#EFEBE1" />
<rect x="26" y="4" width="1" height="1" fill="#EFEBE1" />
<rect x="27" y="4" width="1" height="1" fill="#EFEBE1" />
<rect x="28" y="4" width="1" height="1" fill="#EFEBE1" />
<rect x="29" y="4" width="1" height="1" fill="#EFEBE1" />
<rect x="30" y="4" width="1" height="1" fill="#EFEBE1" />
<rect x="31" y="4" width="1" height="1" fill="#EFEBE1" />
<rect x="32" y="4" width="1" height="1" fill="#EFEBE1" />
<rect x="33" y="4" width="1" height="1" fill="#EFEBE1" />
<rect x="34" y="4" width="1" height="1" fill="#EFEBE1" />
<rect x="35" y="4" width="1" height="1" fill="#EFEBE1" />
<rect x="36" y="4" width="1" height="1" fill="#EFEBE1" />
<rect x="37" y="4" width="1" height="1" fill="#EFEBE1" />
<rect x="38" y="4" width="1" height="1" fill="#EFEBE1" />
<rect x="39" y="4" width="1" height="1" fill="#EFEBE1" />
<rect x="8" y="5" width="1" height="1" fill="#EFEBE1" />
<rect x="9" y="5" width="1" height="1" fill="#EFEBE1" />
<rect x="10" y="5" width="1" height="1" fill="#EFEBE1" />
<rect x="11" y="5" width="1" height="1" fill="#EFEBE1" />
<rect x="12" y="5" width="1" height="1" fill="#EFEBE1" />
<rect x="13" y="5" width="1" height="1" fill="#EFEBE1" />
<rect x="14" y="5" width="1" height="1" fill="#EFEBE1" />
<rect x="15" y="5" width="1" height="1" fill="#EFEBE1" />
<rect x="16" y="5" width="1" height="1" fill="#EFEBE1" />
<rect x="17" y="5" width="1" height="1" fill="#EFEBE1" />
<rect x="18" y="5" width="1" height="1" fill="#EFEBE1" />
<rect x="19" y="5" width="1" height="1" fill="#EFEBE1" />
<rect x="20" y="5" width="1" height="1" fill="#EFEBE1" />
<rect x="21" y="5" width="1" height="1" fill="#EFEBE1" />
<rect x="22" y="5" width="1" height="1" fill="#EFEBE1" />
<rect x="23" y="5" width="1" height="1" fill="#EFEBE1" />
<rect x="24" y="5" width="1" height="1" fill="#EFEBE1" />
<rect x="25" y="5" width="1" height="1" fill="#EFEBE1" />
<rect x="26" y="5" width="1" height="1" fill="#EFEBE1" />
<rect x="27" y="5" width="1" height="1" fill="#EFEBE1" />
<rect x="28" y="5" width="1" height="1" fill="#EFEBE1" />
<rect x="29" y="5" width="1" height="1" fill="#EFEBE1" />
<rect x="30" y="5" width="1" height="1" fill="#EFEBE1" />
<rect x="31" y="5" width="1" height="1" fill="#EFEBE1" />
<rect x="32" y="5" width="1" height="1" fill="#EFEBE1" />
<rect x="33" y="5" width="1" height="1" fill="#EFEBE1" />
<rect x="34" y="5" width="1" height="1" fill="#EFEBE1" />
<rect x="35" y="5" width="1" height="1" fill="#EFEBE1" />
<rect x="36" y="5" width="1" height="1" fill="#EFEBE1" />
<rect x="37" y="5" width="1" height="1" fill="#EFEBE1" />
<rect x="38" y="5" width="1" height="1" fill="#EFEBE1" />
<rect x="39" y="5" width="1" height="1" fill="#EFEBE1" />
<rect x="8" y="6" width="1" height="1" fill="#EFEBE1" />
<rect x="9" y="6" width="1" height="1" fill="#EFEBE1" />
<rect x="10" y="6" width="1" height="1" fill="#EFEBE1" />
<rect x="11" y="6" width="1" height="1" fill="#EFEBE1" />
<rect x="12" y="6" width="1" height="1" fill="#EFEBE1" />
<rect x="13" y="6" width="1" height="1" fill="#EFEBE1" />
<rect x="14" y="6" width="1" height="1" fill="#EFEBE1" />
<rect x="15" y="6" width="1" height="1" fill="#EFEBE1" />
<rect x="16" y="6" width="1" height="1" fill="#EFEBE1" />
<rect x="17" y="6" width="1" height="1" fill="#EFEBE1" />
<rect x="18" y="6" width="1" height="1" fill="#EFEBE1" />
<rect x="19" y="6" width="1" height="1" fill="#EFEBE1" />
<rect x="20" y="6" width="1" height="1" fill="#EFEBE1" />
<rect x="21" y="6" width="1" height="1" fill="#EFEBE1" />
<rect x="22" y="6" width="1" height="1" fill="#EFEBE1" />
<rect x="23" y="6" width="1" height="1" fill="#EFEBE1" />
<rect x="24" y="6" width="1" height="1" fill="#EFEBE1" />
<rect x="25" y="6" width="1" height="1" fill="#EFEBE1" />
<rect x="26" y="6" width="1" height="1" fill="#EFEBE1" />
<rect x="27" y="6" width="1" height="1" fill="#EFEBE1" />
<rect x="28" y="6" width="1" height="1" fill="#EFEBE1" />
<rect x="29" y="6" width="1" height="1" fill="#EFEBE1" />
<rect x="30" y="6" width="1" height="1" fill="#EFEBE1" />
<rect x="31" y="6" width="1" height="1" fill="#EFEBE1" />
<rect x="32" y="6" width="1" height="1" fill="#EFEBE1" />
<rect x="33" y="6" width="1" height="1" fill="#EFEBE1" />
<rect x="34" y="6" width="1" height="1" fill="#EFEBE1" />
<rect x="35" y="6" width="1" height="1" fill="#EFEBE1" />
<rect x="36" y="6" width="1" height="1" fill="#EFEBE1" />
<rect x="37" y="6" width="1" height="1" fill="#EFEBE1" />
<rect x="38" y="6" width="1" height="1" fill="#EFEBE1" />
<rect x="39" y="6" width="1" height="1" fill="#EFEBE1" />
<rect x="8" y="7" width="1" height="1" fill="#EFEBE1" />
<rect x="9" y="7" width="1" height="1" fill="#EFEBE1" />
<rect x="10" y="7" width="1" height="1" fill="#EFEBE1" />
<rect x="11" y="7" width="1" height="1" fill="#EFEBE1" />
<rect x="12" y="7" width="1" height="1" fill="#EFEBE1" />
<rect x="13" y="7" width="1" height="1" fill="#EFEBE1" />
<rect x="14" y="7" width="1" height="1" fill="#EFEBE1" />
<rect x="15" y="7" width="1" height="1" fill="#EFEBE1" />
<rect x="16" y="7" width="1" height="1" fill="#EFEBE1" />
<rect x="17" y="7" width="1" height="1" fill="#EFEBE1" />
<rect x="18" y="7" width="1" height="1" fill="#EFEBE1" />
<rect x="19" y="7" width="1" height="1" fill="#EFEBE1" />
<rect x="20" y="7" width="1" height="1" fill="#EFEBE1" />
<rect x="21" y="7" width="1" height="1" fill="#EFEBE1" />
<rect x="22" y="7" width="1" height="1" fill="#EFEBE1" />
<rect x="23" y="7" width="1" height="1" fill="#EFEBE1" />
<rect x="24" y="7" width="1" height="1" fill="#EFEBE1" />
<rect x="25" y="7" width="1" height="1" fill="#EFEBE1" />
<rect x="26" y="7" width="1" height="1" fill="#EFEBE1" />
<rect x="27" y="7" width="1" height="1" fill="#EFEBE1" />
<rect x="28" y="7" width="1" height="1" fill="#EFEBE1" />
<rect x="29" y="7" width="1" height="1" fill="#EFEBE1" />
<rect x="30" y="7" width="1" height="1" fill="#EFEBE1" />
<rect x="31" y="7" width="1" height="1" fill="#EFEBE1" />
<rect x="32" y="7" width="1" height="1" fill="#EFEBE1" />
<rect x="33" y="7" width="1" height="1" fill="#EFEBE1" />
<rect x="34" y="7" width="1" height="1" fill="#EFEBE1" />
<rect x="35" y="7" width="1" height="1" fill="#EFEBE1" />
<rect x="36" y="7" width="1" height="1" fill="#EFEBE1" />
<rect x="37" y="7" width="1" height="1" fill="#EFEBE1" />
<rect x="38" y="7" width="1" height="1" fill="#EFEBE1" />
<rect x="39" y="7" width="1" height="1" fill="#EFEBE1" />
<rect x="4" y="8" width="1" height="1" fill="#EFEBE1" />
<rect x="5" y="8" width="1" height="1" fill="#EFEBE1" />
<rect x="6" y="8" width="1" height="1" fill="#EFEBE1" />
<rect x="7" y="8" width="1" height="1" fill="#EFEBE1" />
<rect x="40" y="8" width="1" height="1" fill="#EFEBE1" />
<rect x="41" y="8" width="1" height="1" fill="#EFEBE1" />
<rect x="42" y="8" width="1" height="1" fill="#EFEBE1" />
<rect x="43" y="8" width="1" height="1" fill="#EFEBE1" />
<rect x="4" y="9" width="1" height="1" fill="#EFEBE1" />
<rect x="5" y="9" width="1" height="1" fill="#EFEBE1" />
<rect x="6" y="9" width="1" height="1" fill="#EFEBE1" />
<rect x="7" y="9" width="1" height="1" fill="#EFEBE1" />
<rect x="40" y="9" width="1" height="1" fill="#EFEBE1" />
<rect x="41" y="9" width="1" height="1" fill="#EFEBE1" />
<rect x="42" y="9" width="1" height="1" fill="#EFEBE1" />
<rect x="43" y="9" width="1" height="1" fill="#EFEBE1" />
<rect x="4" y="10" width="1" height="1" fill="#EFEBE1" />
<rect x="5" y="10" width="1" height="1" fill="#EFEBE1" />
<rect x="6" y="10" width="1" height="1" fill="#EFEBE1" />
<rect x="7" y="10" width="1" height="1" fill="#EFEBE1" />
<rect x="40" y="10" width="1" height="1" fill="#EFEBE1" />
<rect x="41" y="10" width="1" height="1" fill="#EFEBE1" />
<rect x="42" y="10" width="1" height="1" fill="#EFEBE1" />
<rect x="43" y="10" width="1" height="1" fill="#EFEBE1" />
<rect x="4" y="11" width="1" height="1" fill="#EFEBE1" />
<rect x="5" y="11" width="1" height="1" fill="#EFEBE1" />
<rect x="6" y="11" width="1" height="1" fill="#EFEBE1" />
<rect x="7" y="11" width="1" height="1" fill="#EFEBE1" />
<rect x="18" y="11" width="1" height="1" fill="#EFEBE1" />
<rect x="19" y="11" width="1" height="1" fill="#EFEBE1" />
<rect x="20" y="11" width="1" height="1" fill="#EFEBE1" />
<rect x="21" y="11" width="1" height="1" fill="#EFEBE1" />
<rect x="22" y="11" width="1" height="1" fill="#EFEBE1" />
<rect x="23" y="11" width="1" height="1" fill="#EFEBE1" />
<rect x="24" y="11" width="1" height="1" fill="#EFEBE1" />
<rect x="25" y="11" width="1" height="1" fill="#EFEBE1" />
<rect x="26" y="11" width="1" height="1" fill="#EFEBE1" />
<rect x="27" y="11" width="1" height="1" fill="#EFEBE1" />
<rect x="28" y="11" width="1" height="1" fill="#EFEBE1" />
<rect x="29" y="11" width="1" height="1" fill="#EFEBE1" />
<rect x="40" y="11" width="1" height="1" fill="#EFEBE1" />
<rect x="41" y="11" width="1" height="1" fill="#EFEBE1" />
<rect x="42" y="11" width="1" height="1" fill="#EFEBE1" />
<rect x="43" y="11" width="1" height="1" fill="#EFEBE1" />
<rect x="4" y="12" width="1" height="1" fill="#EFEBE1" />
<rect x="5" y="12" width="1" height="1" fill="#EFEBE1" />
<rect x="6" y="12" width="1" height="1" fill="#EFEBE1" />
<rect x="7" y="12" width="1" height="1" fill="#EFEBE1" />
<rect x="18" y="12" width="1" height="1" fill="#EFEBE1" />
<rect x="19" y="12" width="1" height="1" fill="#EFEBE1" />
<rect x="20" y="12" width="1" height="1" fill="#EFEBE1" />
<rect x="21" y="12" width="1" height="1" fill="#EFEBE1" />
<rect x="22" y="12" width="1" height="1" fill="#EFEBE1" />
<rect x="23" y="12" width="1" height="1" fill="#EFEBE1" />
<rect x="24" y="12" width="1" height="1" fill="#EFEBE1" />
<rect x="25" y="12" width="1" height="1" fill="#EFEBE1" />
<rect x="26" y="12" width="1" height="1" fill="#EFEBE1" />
<rect x="27" y="12" width="1" height="1" fill="#EFEBE1" />
<rect x="28" y="12" width="1" height="1" fill="#EFEBE1" />
<rect x="29" y="12" width="1" height="1" fill="#EFEBE1" />
<rect x="40" y="12" width="1" height="1" fill="#EFEBE1" />
<rect x="41" y="12" width="1" height="1" fill="#EFEBE1" />
<rect x="42" y="12" width="1" height="1" fill="#EFEBE1" />
<rect x="43" y="12" width="1" height="1" fill="#EFEBE1" />
<rect x="4" y="13" width="1" height="1" fill="#EFEBE1" />
<rect x="5" y="13" width="1" height="1" fill="#EFEBE1" />
<rect x="6" y="13" width="1" height="1" fill="#EFEBE1" />
<rect x="7" y="13" width="1" height="1" fill="#EFEBE1" />
<rect x="18" y="13" width="1" height="1" fill="#EFEBE1" />
<rect x="19" y="13" width="1" height="1" fill="#EFEBE1" />
<rect x="20" y="13" width="1" height="1" fill="#EFEBE1" />
<rect x="21" y="13" width="1" height="1" fill="#EFEBE1" />
<rect x="22" y="13" width="1" height="1" fill="#EFEBE1" />
<rect x="23" y="13" width="1" height="1" fill="#EFEBE1" />
<rect x="24" y="13" width="1" height="1" fill="#EFEBE1" />
<rect x="25" y="13" width="1" height="1" fill="#EFEBE1" />
<rect x="26" y="13" width="1" height="1" fill="#EFEBE1" />
<rect x="27" y="13" width="1" height="1" fill="#EFEBE1" />
<rect x="28" y="13" width="1" height="1" fill="#EFEBE1" />
<rect x="29" y="13" width="1" height="1" fill="#EFEBE1" />
<rect x="40" y="13" width="1" height="1" fill="#EFEBE1" />
<rect x="41" y="13" width="1" height="1" fill="#EFEBE1" />
<rect x="42" y="13" width="1" height="1" fill="#EFEBE1" />
<rect x="43" y="13" width="1" height="1" fill="#EFEBE1" />
<rect x="4" y="14" width="1" height="1" fill="#EFEBE1" />
<rect x="5" y="14" width="1" height="1" fill="#EFEBE1" />
<rect x="6" y="14" width="1" height="1" fill="#EFEBE1" />
<rect x="7" y="14" width="1" height="1" fill="#EFEBE1" />
<rect x="18" y="14" width="1" height="1" fill="#EFEBE1" />
<rect x="19" y="14" width="1" height="1" fill="#EFEBE1" />
<rect x="20" y="14" width="1" height="1" fill="#EFEBE1" />
<rect x="21" y="14" width="1" height="1" fill="#EFEBE1" />
<rect x="22" y="14" width="1" height="1" fill="#EFEBE1" />
<rect x="23" y="14" width="1" height="1" fill="#EFEBE1" />
<rect x="24" y="14" width="1" height="1" fill="#EFEBE1" />
<rect x="25" y="14" width="1" height="1" fill="#EFEBE1" />
<rect x="26" y="14" width="1" height="1" fill="#EFEBE1" />
<rect x="27" y="14" width="1" height="1" fill="#EFEBE1" />
<rect x="28" y="14" width="1" height="1" fill="#EFEBE1" />
<rect x="29" y="14" width="1" height="1" fill="#EFEBE1" />
<rect x="40" y="14" width="1" height="1" fill="#EFEBE1" />
<rect x="41" y="14" width="1" height="1" fill="#EFEBE1" />
<rect x="42" y="14" width="1" height="1" fill="#EFEBE1" />
<rect x="43" y="14" width="1" height="1" fill="#EFEBE1" />
<rect x="4" y="15" width="1" height="1" fill="#EFEBE1" />
<rect x="5" y="15" width="1" height="1" fill="#EFEBE1" />
<rect x="6" y="15" width="1" height="1" fill="#EFEBE1" />
<rect x="7" y="15" width="1" height="1" fill="#EFEBE1" />
<rect x="14" y="15" width="1" height="1" fill="#EFEBE1" />
<rect x="15" y="15" width="1" height="1" fill="#EFEBE1" />
<rect x="16" y="15" width="1" height="1" fill="#EFEBE1" />
<rect x="17" y="15" width="1" height="1" fill="#EFEBE1" />
<rect x="30" y="15" width="1" height="1" fill="#EFEBE1" />
<rect x="31" y="15" width="1" height="1" fill="#EFEBE1" />
<rect x="32" y="15" width="1" height="1" fill="#EFEBE1" />
<rect x="33" y="15" width="1" height="1" fill="#EFEBE1" />
<rect x="40" y="15" width="1" height="1" fill="#EFEBE1" />
<rect x="41" y="15" width="1" height="1" fill="#EFEBE1" />
<rect x="42" y="15" width="1" height="1" fill="#EFEBE1" />
<rect x="43" y="15" width="1" height="1" fill="#EFEBE1" />
<rect x="4" y="16" width="1" height="1" fill="#EFEBE1" />
<rect x="5" y="16" width="1" height="1" fill="#EFEBE1" />
<rect x="6" y="16" width="1" height="1" fill="#EFEBE1" />
<rect x="7" y="16" width="1" height="1" fill="#EFEBE1" />
<rect x="14" y="16" width="1" height="1" fill="#EFEBE1" />
<rect x="15" y="16" width="1" height="1" fill="#EFEBE1" />
<rect x="16" y="16" width="1" height="1" fill="#EFEBE1" />
<rect x="17" y="16" width="1" height="1" fill="#EFEBE1" />
<rect x="30" y="16" width="1" height="1" fill="#EFEBE1" />
<rect x="31" y="16" width="1" height="1" fill="#EFEBE1" />
<rect x="32" y="16" width="1" height="1" fill="#EFEBE1" />
<rect x="33" y="16" width="1" height="1" fill="#EFEBE1" />
<rect x="40" y="16" width="1" height="1" fill="#EFEBE1" />
<rect x="41" y="16" width="1" height="1" fill="#EFEBE1" />
<rect x="42" y="16" width="1" height="1" fill="#EFEBE1" />
<rect x="43" y="16" width="1" height="1" fill="#EFEBE1" />
<rect x="4" y="17" width="1" height="1" fill="#EFEBE1" />
<rect x="5" y="17" width="1" height="1" fill="#EFEBE1" />
<rect x="6" y="17" width="1" height="1" fill="#EFEBE1" />
<rect x="7" y="17" width="1" height="1" fill="#EFEBE1" />
<rect x="14" y="17" width="1" height="1" fill="#EFEBE1" />
<rect x="15" y="17" width="1" height="1" fill="#EFEBE1" />
<rect x="16" y="17" width="1" height="1" fill="#EFEBE1" />
<rect x="17" y="17" width="1" height="1" fill="#EFEBE1" />
<rect x="30" y="17" width="1" height="1" fill="#EFEBE1" />
<rect x="31" y="17" width="1" height="1" fill="#EFEBE1" />
<rect x="32" y="17" width="1" height="1" fill="#EFEBE1" />
<rect x="33" y="17" width="1" height="1" fill="#EFEBE1" />
<rect x="40" y="17" width="1" height="1" fill="#EFEBE1" />
<rect x="41" y="17" width="1" height="1" fill="#EFEBE1" />
<rect x="42" y="17" width="1" height="1" fill="#EFEBE1" />
<rect x="43" y="17" width="1" height="1" fill="#EFEBE1" />
<rect x="4" y="18" width="1" height="1" fill="#EFEBE1" />
<rect x="5" y="18" width="1" height="1" fill="#EFEBE1" />
<rect x="6" y="18" width="1" height="1" fill="#EFEBE1" />
<rect x="7" y="18" width="1" height="1" fill="#EFEBE1" />
<rect x="14" y="18" width="1" height="1" fill="#EFEBE1" />
<rect x="15" y="18" width="1" height="1" fill="#EFEBE1" />
<rect x="16" y="18" width="1" height="1" fill="#EFEBE1" />
<rect x="17" y="18" width="1" height="1" fill="#EFEBE1" />
<rect x="30" y="18" width="1" height="1" fill="#EFEBE1" />
<rect x="31" y="18" width="1" height="1" fill="#EFEBE1" />
<rect x="32" y="18" width="1" height="1" fill="#EFEBE1" />
<rect x="33" y="18" width="1" height="1" fill="#EFEBE1" />
<rect x="40" y="18" width="1" height="1" fill="#EFEBE1" />
<rect x="41" y="18" width="1" height="1" fill="#EFEBE1" />
<rect x="42" y="18" width="1" height="1" fill="#EFEBE1" />
<rect x="43" y="18" width="1" height="1" fill="#EFEBE1" />
<rect x="4" y="19" width="1" height="1" fill="#EFEBE1" />
<rect x="5" y="19" width="1" height="1" fill="#EFEBE1" />
<rect x="6" y="19" width="1" height="1" fill="#EFEBE1" />
<rect x="7" y="19" width="1" height="1" fill="#EFEBE1" />
<rect x="30" y="19" width="1" height="1" fill="#EFEBE1" />
<rect x="31" y="19" width="1" height="1" fill="#EFEBE1" />
<rect x="32" y="19" width="1" height="1" fill="#EFEBE1" />
<rect x="33" y="19" width="1" height="1" fill="#EFEBE1" />
<rect x="40" y="19" width="1" height="1" fill="#EFEBE1" />
<rect x="41" y="19" width="1" height="1" fill="#EFEBE1" />
<rect x="42" y="19" width="1" height="1" fill="#EFEBE1" />
<rect x="43" y="19" width="1" height="1" fill="#EFEBE1" />
<rect x="4" y="20" width="1" height="1" fill="#EFEBE1" />
<rect x="5" y="20" width="1" height="1" fill="#EFEBE1" />
<rect x="6" y="20" width="1" height="1" fill="#EFEBE1" />
<rect x="7" y="20" width="1" height="1" fill="#EFEBE1" />
<rect x="30" y="20" width="1" height="1" fill="#EFEBE1" />
<rect x="31" y="20" width="1" height="1" fill="#EFEBE1" />
<rect x="32" y="20" width="1" height="1" fill="#EFEBE1" />
<rect x="33" y="20" width="1" height="1" fill="#EFEBE1" />
<rect x="40" y="20" width="1" height="1" fill="#EFEBE1" />
<rect x="41" y="20" width="1" height="1" fill="#EFEBE1" />
<rect x="42" y="20" width="1" height="1" fill="#EFEBE1" />
<rect x="43" y="20" width="1" height="1" fill="#EFEBE1" />
<rect x="4" y="21" width="1" height="1" fill="#EFEBE1" />
<rect x="5" y="21" width="1" height="1" fill="#EFEBE1" />
<rect x="6" y="21" width="1" height="1" fill="#EFEBE1" />
<rect x="7" y="21" width="1" height="1" fill="#EFEBE1" />
<rect x="30" y="21" width="1" height="1" fill="#EFEBE1" />
<rect x="31" y="21" width="1" height="1" fill="#EFEBE1" />
<rect x="32" y="21" width="1" height="1" fill="#EFEBE1" />
<rect x="33" y="21" width="1" height="1" fill="#EFEBE1" />
<rect x="40" y="21" width="1" height="1" fill="#EFEBE1" />
<rect x="41" y="21" width="1" height="1" fill="#EFEBE1" />
<rect x="42" y="21" width="1" height="1" fill="#EFEBE1" />
<rect x="43" y="21" width="1" height="1" fill="#EFEBE1" />
<rect x="4" y="22" width="1" height="1" fill="#EFEBE1" />
<rect x="5" y="22" width="1" height="1" fill="#EFEBE1" />
<rect x="6" y="22" width="1" height="1" fill="#EFEBE1" />
<rect x="7" y="22" width="1" height="1" fill="#EFEBE1" />
<rect x="30" y="22" width="1" height="1" fill="#EFEBE1" />
<rect x="31" y="22" width="1" height="1" fill="#EFEBE1" />
<rect x="32" y="22" width="1" height="1" fill="#EFEBE1" />
<rect x="33" y="22" width="1" height="1" fill="#EFEBE1" />
<rect x="40" y="22" width="1" height="1" fill="#EFEBE1" />
<rect x="41" y="22" width="1" height="1" fill="#EFEBE1" />
<rect x="42" y="22" width="1" height="1" fill="#EFEBE1" />
<rect x="43" y="22" width="1" height="1" fill="#EFEBE1" />
<rect x="4" y="23" width="1" height="1" fill="#EFEBE1" />
<rect x="5" y="23" width="1" height="1" fill="#EFEBE1" />
<rect x="6" y="23" width="1" height="1" fill="#EFEBE1" />
<rect x="7" y="23" width="1" height="1" fill="#EFEBE1" />
<rect x="22" y="23" width="1" height="1" fill="#EFEBE1" />
<rect x="23" y="23" width="1" height="1" fill="#EFEBE1" />
<rect x="24" y="23" width="1" height="1" fill="#EFEBE1" />
<rect x="25" y="23" width="1" height="1" fill="#EFEBE1" />
<rect x="26" y="23" width="1" height="1" fill="#EFEBE1" />
<rect x="27" y="23" width="1" height="1" fill="#EFEBE1" />
<rect x="28" y="23" width="1" height="1" fill="#EFEBE1" />
<rect x="29" y="23" width="1" height="1" fill="#EFEBE1" />
<rect x="40" y="23" width="1" height="1" fill="#EFEBE1" />
<rect x="41" y="23" width="1" height="1" fill="#EFEBE1" />
<rect x="42" y="23" width="1" height="1" fill="#EFEBE1" />
<rect x="43" y="23" width="1" height="1" fill="#EFEBE1" />
<rect x="4" y="24" width="1" height="1" fill="#EFEBE1" />
<rect x="5" y="24" width="1" height="1" fill="#EFEBE1" />
<rect x="6" y="24" width="1" height="1" fill="#EFEBE1" />
<rect x="7" y="24" width="1" height="1" fill="#EFEBE1" />
<rect x="22" y="24" width="1" height="1" fill="#EFEBE1" />
<rect x="23" y="24" width="1" height="1" fill="#EFEBE1" />
<rect x="24" y="24" width="1" height="1" fill="#EFEBE1" />
<rect x="25" y="24" width="1" height="1" fill="#EFEBE1" />
<rect x="26" y="24" width="1" height="1" fill="#EFEBE1" />
<rect x="27" y="24" width="1" height="1" fill="#EFEBE1" />
<rect x="28" y="24" width="1" height="1" fill="#EFEBE1" />
<rect x="29" y="24" width="1" height="1" fill="#EFEBE1" />
<rect x="40" y="24" width="1" height="1" fill="#EFEBE1" />
<rect x="41" y="24" width="1" height="1" fill="#EFEBE1" />
<rect x="42" y="24" width="1" height="1" fill="#EFEBE1" />
<rect x="43" y="24" width="1" height="1" fill="#EFEBE1" />
<rect x="4" y="25" width="1" height="1" fill="#EFEBE1" />
<rect x="5" y="25" width="1" height="1" fill="#EFEBE1" />
<rect x="6" y="25" width="1" height="1" fill="#EFEBE1" />
<rect x="7" y="25" width="1" height="1" fill="#EFEBE1" />
<rect x="22" y="25" width="1" height="1" fill="#EFEBE1" />
<rect x="23" y="25" width="1" height="1" fill="#EFEBE1" />
<rect x="24" y="25" width="1" height="1" fill="#EFEBE1" />
<rect x="25" y="25" width="1" height="1" fill="#EFEBE1" />
<rect x="26" y="25" width="1" height="1" fill="#EFEBE1" />
<rect x="27" y="25" width="1" height="1" fill="#EFEBE1" />
<rect x="28" y="25" width="1" height="1" fill="#EFEBE1" />
<rect x="29" y="25" width="1" height="1" fill="#EFEBE1" />
<rect x="40" y="25" width="1" height="1" fill="#EFEBE1" />
<rect x="41" y="25" width="1" height="1" fill="#EFEBE1" />
<rect x="42" y="25" width="1" height="1" fill="#EFEBE1" />
<rect x="43" y="25" width="1" height="1" fill="#EFEBE1" />
<rect x="4" y="26" width="1" height="1" fill="#EFEBE1" />
<rect x="5" y="26" width="1" height="1" fill="#EFEBE1" />
<rect x="6" y="26" width="1" height="1" fill="#EFEBE1" />
<rect x="7" y="26" width="1" height="1" fill="#EFEBE1" />
<rect x="22" y="26" width="1" height="1" fill="#EFEBE1" />
<rect x="23" y="26" width="1" height="1" fill="#EFEBE1" />
<rect x="24" y="26" width="1" height="1" fill="#EFEBE1" />
<rect x="25" y="26" width="1" height="1" fill="#EFEBE1" />
<rect x="26" y="26" width="1" height="1" fill="#EFEBE1" />
<rect x="27" y="26" width="1" height="1" fill="#EFEBE1" />
<rect x="28" y="26" width="1" height="1" fill="#EFEBE1" />
<rect x="29" y="26" width="1" height="1" fill="#EFEBE1" />
<rect x="40" y="26" width="1" height="1" fill="#EFEBE1" />
<rect x="41" y="26" width="1" height="1" fill="#EFEBE1" />
<rect x="42" y="26" width="1" height="1" fill="#EFEBE1" />
<rect x="43" y="26" width="1" height="1" fill="#EFEBE1" />
<rect x="4" y="27" width="1" height="1" fill="#EFEBE1" />
<rect x="5" y="27" width="1" height="1" fill="#EFEBE1" />
<rect x="6" y="27" width="1" height="1" fill="#EFEBE1" />
<rect x="7" y="27" width="1" height="1" fill="#EFEBE1" />
<rect x="22" y="27" width="1" height="1" fill="#EFEBE1" />
<rect x="23" y="27" width="1" height="1" fill="#EFEBE1" />
<rect x="24" y="27" width="1" height="1" fill="#EFEBE1" />
<rect x="25" y="27" width="1" height="1" fill="#EFEBE1" />
<rect x="40" y="27" width="1" height="1" fill="#EFEBE1" />
<rect x="41" y="27" width="1" height="1" fill="#EFEBE1" />
<rect x="42" y="27" width="1" height="1" fill="#EFEBE1" />
<rect x="43" y="27" width="1" height="1" fill="#EFEBE1" />
<rect x="4" y="28" width="1" height="1" fill="#EFEBE1" />
<rect x="5" y="28" width="1" height="1" fill="#EFEBE1" />
<rect x="6" y="28" width="1" height="1" fill="#EFEBE1" />
<rect x="7" y="28" width="1" height="1" fill="#EFEBE1" />
<rect x="22" y="28" width="1" height="1" fill="#EFEBE1" />
<rect x="23" y="28" width="1" height="1" fill="#EFEBE1" />
<rect x="24" y="28" width="1" height="1" fill="#EFEBE1" />
<rect x="25" y="28" width="1" height="1" fill="#EFEBE1" />
<rect x="40" y="28" width="1" height="1" fill="#EFEBE1" />
<rect x="41" y="28" width="1" height="1" fill="#EFEBE1" />
<rect x="42" y="28" width="1" height="1" fill="#EFEBE1" />
<rect x="43" y="28" width="1" height="1" fill="#EFEBE1" />
<rect x="4" y="29" width="1" height="1" fill="#EFEBE1" />
<rect x="5" y="29" width="1" height="1" fill="#EFEBE1" />
<rect x="6" y="29" width="1" height="1" fill="#EFEBE1" />
<rect x="7" y="29" width="1" height="1" fill="#EFEBE1" />
<rect x="22" y="29" width="1" height="1" fill="#EFEBE1" />
<rect x="23" y="29" width="1" height="1" fill="#EFEBE1" />
<rect x="24" y="29" width="1" height="1" fill="#EFEBE1" />
<rect x="25" y="29" width="1" height="1" fill="#EFEBE1" />
<rect x="40" y="29" width="1" height="1" fill="#EFEBE1" />
<rect x="41" y="29" width="1" height="1" fill="#EFEBE1" />
<rect x="42" y="29" width="1" height="1" fill="#EFEBE1" />
<rect x="43" y="29" width="1" height="1" fill="#EFEBE1" />
<rect x="4" y="30" width="1" height="1" fill="#EFEBE1" />
<rect x="5" y="30" width="1" height="1" fill="#EFEBE1" />
<rect x="6" y="30" width="1" height="1" fill="#EFEBE1" />
<rect x="7" y="30" width="1" height="1" fill="#EFEBE1" />
<rect x="22" y="30" width="1" height="1" fill="#EFEBE1" />
<rect x="23" y="30" width="1" height="1" fill="#EFEBE1" />
<rect x="24" y="30" width="1" height="1" fill="#EFEBE1" />
<rect x="25" y="30" width="1" height="1" fill="#EFEBE1" />
<rect x="40" y="30" width="1" height="1" fill="#EFEBE1" />
<rect x="41" y="30" width="1" height="1" fill="#EFEBE1" />
<rect x="42" y="30" width="1" height="1" fill="#EFEBE1" />
<rect x="43" y="30" width="1" height="1" fill="#EFEBE1" />
<rect x="4" y="31" width="1" height="1" fill="#EFEBE1" />
<rect x="5" y="31" width="1" height="1" fill="#EFEBE1" />
<rect x="6" y="31" width="1" height="1" fill="#EFEBE1" />
<rect x="7" y="31" width="1" height="1" fill="#EFEBE1" />
<rect x="40" y="31" width="1" height="1" fill="#EFEBE1" />
<rect x="41" y="31" width="1" height="1" fill="#EFEBE1" />
<rect x="42" y="31" width="1" height="1" fill="#EFEBE1" />
<rect x="43" y="31" width="1" height="1" fill="#EFEBE1" />
<rect x="4" y="32" width="1" height="1" fill="#EFEBE1" />
<rect x="5" y="32" width="1" height="1" fill="#EFEBE1" />
<rect x="6" y="32" width="1" height="1" fill="#EFEBE1" />
<rect x="7" y="32" width="1" height="1" fill="#EFEBE1" />
<rect x="40" y="32" width="1" height="1" fill="#EFEBE1" />
<rect x="41" y="32" width="1" height="1" fill="#EFEBE1" />
<rect x="42" y="32" width="1" height="1" fill="#EFEBE1" />
<rect x="43" y="32" width="1" height="1" fill="#EFEBE1" />
<rect x="4" y="33" width="1" height="1" fill="#EFEBE1" />
<rect x="5" y="33" width="1" height="1" fill="#EFEBE1" />
<rect x="6" y="33" width="1" height="1" fill="#EFEBE1" />
<rect x="7" y="33" width="1" height="1" fill="#EFEBE1" />
<rect x="22" y="33" width="1" height="1" fill="#EFEBE1" />
<rect x="23" y="33" width="1" height="1" fill="#EFEBE1" />
<rect x="24" y="33" width="1" height="1" fill="#EFEBE1" />
<rect x="25" y="33" width="1" height="1" fill="#EFEBE1" />
<rect x="40" y="33" width="1" height="1" fill="#EFEBE1" />
<rect x="41" y="33" width="1" height="1" fill="#EFEBE1" />
<rect x="42" y="33" width="1" height="1" fill="#EFEBE1" />
<rect x="43" y="33" width="1" height="1" fill="#EFEBE1" />
<rect x="4" y="34" width="1" height="1" fill="#EFEBE1" />
<rect x="5" y="34" width="1" height="1" fill="#EFEBE1" />
<rect x="6" y="34" width="1" height="1" fill="#EFEBE1" />
<rect x="7" y="34" width="1" height="1" fill="#EFEBE1" />
<rect x="22" y="34" width="1" height="1" fill="#EFEBE1" />
<rect x="23" y="34" width="1" height="1" fill="#EFEBE1" />
<rect x="24" y="34" width="1" height="1" fill="#EFEBE1" />
<rect x="25" y="34" width="1" height="1" fill="#EFEBE1" />
<rect x="40" y="34" width="1" height="1" fill="#EFEBE1" />
<rect x="41" y="34" width="1" height="1" fill="#EFEBE1" />
<rect x="42" y="34" width="1" height="1" fill="#EFEBE1" />
<rect x="43" y="34" width="1" height="1" fill="#EFEBE1" />
<rect x="4" y="35" width="1" height="1" fill="#EFEBE1" />
<rect x="5" y="35" width="1" height="1" fill="#EFEBE1" />
<rect x="6" y="35" width="1" height="1" fill="#EFEBE1" />
<rect x="7" y="35" width="1" height="1" fill="#EFEBE1" />
<rect x="22" y="35" width="1" height="1" fill="#EFEBE1" />
<rect x="23" y="35" width="1" height="1" fill="#EFEBE1" />
<rect x="24" y="35" width="1" height="1" fill="#EFEBE1" />
<rect x="25" y="35" width="1" height="1" fill="#EFEBE1" />
<rect x="40" y="35" width="1" height="1" fill="#EFEBE1" />
<rect x="41" y="35" width="1" height="1" fill="#EFEBE1" />
<rect x="42" y="35" width="1" height="1" fill="#EFEBE1" />
<rect x="43" y="35" width="1" height="1" fill="#EFEBE1" />
<rect x="4" y="36" width="1" height="1" fill="#EFEBE1" />
<rect x="5" y="36" width="1" height="1" fill="#EFEBE1" />
<rect x="6" y="36" width="1" height="1" fill="#EFEBE1" />
<rect x="7" y="36" width="1" height="1" fill="#EFEBE1" />
<rect x="22" y="36" width="1" height="1" fill="#EFEBE1" />
<rect x="23" y="36" width="1" height="1" fill="#EFEBE1" />
<rect x="24" y="36" width="1" height="1" fill="#EFEBE1" />
<rect x="25" y="36" width="1" height="1" fill="#EFEBE1" />
<rect x="40" y="36" width="1" height="1" fill="#EFEBE1" />
<rect x="41" y="36" width="1" height="1" fill="#EFEBE1" />
<rect x="42" y="36" width="1" height="1" fill="#EFEBE1" />
<rect x="43" y="36" width="1" height="1" fill="#EFEBE1" />
<rect x="4" y="37" width="1" height="1" fill="#EFEBE1" />
<rect x="5" y="37" width="1" height="1" fill="#EFEBE1" />
<rect x="6" y="37" width="1" height="1" fill="#EFEBE1" />
<rect x="7" y="37" width="1" height="1" fill="#EFEBE1" />
<rect x="40" y="37" width="1" height="1" fill="#EFEBE1" />
<rect x="41" y="37" width="1" height="1" fill="#EFEBE1" />
<rect x="42" y="37" width="1" height="1" fill="#EFEBE1" />
<rect x="43" y="37" width="1" height="1" fill="#EFEBE1" />
<rect x="4" y="38" width="1" height="1" fill="#EFEBE1" />
<rect x="5" y="38" width="1" height="1" fill="#EFEBE1" />
<rect x="6" y="38" width="1" height="1" fill="#EFEBE1" />
<rect x="7" y="38" width="1" height="1" fill="#EFEBE1" />
<rect x="40" y="38" width="1" height="1" fill="#EFEBE1" />
<rect x="41" y="38" width="1" height="1" fill="#EFEBE1" />
<rect x="42" y="38" width="1" height="1" fill="#EFEBE1" />
<rect x="43" y="38" width="1" height="1" fill="#EFEBE1" />
<rect x="4" y="39" width="1" height="1" fill="#EFEBE1" />
<rect x="5" y="39" width="1" height="1" fill="#EFEBE1" />
<rect x="6" y="39" width="1" height="1" fill="#EFEBE1" />
<rect x="7" y="39" width="1" height="1" fill="#EFEBE1" />
<rect x="40" y="39" width="1" height="1" fill="#EFEBE1" />
<rect x="41" y="39" width="1" height="1" fill="#EFEBE1" />
<rect x="42" y="39" width="1" height="1" fill="#EFEBE1" />
<rect x="43" y="39" width="1" height="1" fill="#EFEBE1" />
<rect x="8" y="40" width="1" height="1" fill="#EFEBE1" />
<rect x="9" y="40" width="1" height="1" fill="#EFEBE1" />
<rect x="10" y="40" width="1" height="1" fill="#EFEBE1" />
<rect x="11" y="40" width="1" height="1" fill="#EFEBE1" />
<rect x="12" y="40" width="1" height="1" fill="#EFEBE1" />
<rect x="13" y="40" width="1" height="1" fill="#EFEBE1" />
<rect x="14" y="40" width="1" height="1" fill="#EFEBE1" />
<rect x="15" y="40" width="1" height="1" fill="#EFEBE1" />
<rect x="16" y="40" width="1" height="1" fill="#EFEBE1" />
<rect x="17" y="40" width="1" height="1" fill="#EFEBE1" />
<rect x="18" y="40" width="1" height="1" fill="#EFEBE1" />
<rect x="19" y="40" width="1" height="1" fill="#EFEBE1" />
<rect x="20" y="40" width="1" height="1" fill="#EFEBE1" />
<rect x="21" y="40" width="1" height="1" fill="#EFEBE1" />
<rect x="22" y="40" width="1" height="1" fill="#EFEBE1" />
<rect x="23" y="40" width="1" height="1" fill="#EFEBE1" />
<rect x="24" y="40" width="1" height="1" fill="#EFEBE1" />
<rect x="25" y="40" width="1" height="1" fill="#EFEBE1" />
<rect x="26" y="40" width="1" height="1" fill="#EFEBE1" />
<rect x="27" y="40" width="1" height="1" fill="#EFEBE1" />
<rect x="28" y="40" width="1" height="1" fill="#EFEBE1" />
<rect x="29" y="40" width="1" height="1" fill="#EFEBE1" />
<rect x="30" y="40" width="1" height="1" fill="#EFEBE1" />
<rect x="31" y="40" width="1" height="1" fill="#EFEBE1" />
<rect x="32" y="40" width="1" height="1" fill="#EFEBE1" />
<rect x="33" y="40" width="1" height="1" fill="#EFEBE1" />
<rect x="34" y="40" width="1" height="1" fill="#EFEBE1" />
<rect x="35" y="40" width="1" height="1" fill="#EFEBE1" />
<rect x="36" y="40" width="1" height="1" fill="#EFEBE1" />
<rect x="37" y="40" width="1" height="1" fill="#EFEBE1" />
<rect x="38" y="40" width="1" height="1" fill="#EFEBE1" />
<rect x="39" y="40" width="1" height="1" fill="#EFEBE1" />
<rect x="8" y="41" width="1" height="1" fill="#EFEBE1" />
<rect x="9" y="41" width="1" height="1" fill="#EFEBE1" />
<rect x="10" y="41" width="1" height="1" fill="#EFEBE1" />
<rect x="11" y="41" width="1" height="1" fill="#EFEBE1" />
<rect x="12" y="41" width="1" height="1" fill="#EFEBE1" />
<rect x="13" y="41" width="1" height="1" fill="#EFEBE1" />
<rect x="14" y="41" width="1" height="1" fill="#EFEBE1" />
<rect x="15" y="41" width="1" height="1" fill="#EFEBE1" />
<rect x="16" y="41" width="1" height="1" fill="#EFEBE1" />
<rect x="17" y="41" width="1" height="1" fill="#EFEBE1" />
<rect x="18" y="41" width="1" height="1" fill="#EFEBE1" />
<rect x="19" y="41" width="1" height="1" fill="#EFEBE1" />
<rect x="20" y="41" width="1" height="1" fill="#EFEBE1" />
<rect x="21" y="41" width="1" height="1" fill="#EFEBE1" />
<rect x="22" y="41" width="1" height="1" fill="#EFEBE1" />
<rect x="23" y="41" width="1" height="1" fill="#EFEBE1" />
<rect x="24" y="41" width="1" height="1" fill="#EFEBE1" />
<rect x="25" y="41" width="1" height="1" fill="#EFEBE1" />
<rect x="26" y="41" width="1" height="1" fill="#EFEBE1" />
<rect x="27" y="41" width="1" height="1" fill="#EFEBE1" />
<rect x="28" y="41" width="1" height="1" fill="#EFEBE1" />
<rect x="29" y="41" width="1" height="1" fill="#EFEBE1" />
<rect x="30" y="41" width="1" height="1" fill="#EFEBE1" />
<rect x="31" y="41" width="1" height="1" fill="#EFEBE1" />
<rect x="32" y="41" width="1" height="1" fill="#EFEBE1" />
<rect x="33" y="41" width="1" height="1" fill="#EFEBE1" />
<rect x="34" y="41" width="1" height="1" fill="#EFEBE1" />
<rect x="35" y="41" width="1" height="1" fill="#EFEBE1" />
<rect x="36" y="41" width="1" height="1" fill="#EFEBE1" />
<rect x="37" y="41" width="1" height="1" fill="#EFEBE1" />
<rect x="38" y="41" width="1" height="1" fill="#EFEBE1" />
<rect x="39" y="41" width="1" height="1" fill="#EFEBE1" />
<rect x="8" y="42" width="1" height="1" fill="#EFEBE1" />
<rect x="9" y="42" width="1" height="1" fill="#EFEBE1" />
<rect x="10" y="42" width="1" height="1" fill="#EFEBE1" />
<rect x="11" y="42" width="1" height="1" fill="#EFEBE1" />
<rect x="12" y="42" width="1" height="1" fill="#EFEBE1" />
<rect x="13" y="42" width="1" height="1" fill="#EFEBE1" />
<rect x="14" y="42" width="1" height="1" fill="#EFEBE1" />
<rect x="15" y="42" width="1" height="1" fill="#EFEBE1" />
<rect x="16" y="42" width="1" height="1" fill="#EFEBE1" />
<rect x="17" y="42" width="1" height="1" fill="#EFEBE1" />
<rect x="18" y="42" width="1" height="1" fill="#EFEBE1" />
<rect x="19" y="42" width="1" height="1" fill="#EFEBE1" />
<rect x="20" y="42" width="1" height="1" fill="#EFEBE1" />
<rect x="21" y="42" width="1" height="1" fill="#EFEBE1" />
<rect x="22" y="42" width="1" height="1" fill="#EFEBE1" />
<rect x="23" y="42" width="1" height="1" fill="#EFEBE1" />
<rect x="24" y="42" width="1" height="1" fill="#EFEBE1" />
<rect x="25" y="42" width="1" height="1" fill="#EFEBE1" />
<rect x="26" y="42" width="1" height="1" fill="#EFEBE1" />
<rect x="27" y="42" width="1" height="1" fill="#EFEBE1" />
<rect x="28" y="42" width="1" height="1" fill="#EFEBE1" />
<rect x="29" y="42" width="1" height="1" fill="#EFEBE1" />
<rect x="30" y="42" width="1" height="1" fill="#EFEBE1" />
<rect x="31" y="42" width="1" height="1" fill="#EFEBE1" />
<rect x="32" y="42" width="1" height="1" fill="#EFEBE1" />
<rect x="33" y="42" width="1" height="1" fill="#EFEBE1" />
<rect x="34" y="42" width="1" height="1" fill="#EFEBE1" />
<rect x="35" y="42" width="1" height="1" fill="#EFEBE1" />
<rect x="36" y="42" width="1" height="1" fill="#EFEBE1" />
<rect x="37" y="42" width="1" height="1" fill="#EFEBE1" />
<rect x="38" y="42" width="1" height="1" fill="#EFEBE1" />
<rect x="39" y="42" width="1" height="1" fill="#EFEBE1" />
<rect x="8" y="43" width="1" height="1" fill="#EFEBE1" />
<rect x="9" y="43" width="1" height="1" fill="#EFEBE1" />
<rect x="10" y="43" width="1" height="1" fill="#EFEBE1" />
<rect x="11" y="43" width="1" height="1" fill="#EFEBE1" />
<rect x="12" y="43" width="1" height="1" fill="#EFEBE1" />
<rect x="13" y="43" width="1" height="1" fill="#EFEBE1" />
<rect x="14" y="43" width="1" height="1" fill="#EFEBE1" />
<rect x="15" y="43" width="1" height="1" fill="#EFEBE1" />
<rect x="16" y="43" width="1" height="1" fill="#EFEBE1" />
<rect x="17" y="43" width="1" height="1" fill="#EFEBE1" />
<rect x="18" y="43" width="1" height="1" fill="#EFEBE1" />
<rect x="19" y="43" width="1" height="1" fill="#EFEBE1" />
<rect x="20" y="43" width="1" height="1" fill="#EFEBE1" />
<rect x="21" y="43" width="1" height="1" fill="#EFEBE1" />
<rect x="22" y="43" width="1" height="1" fill="#EFEBE1" />
<rect x="23" y="43" width="1" height="1" fill="#EFEBE1" />
<rect x="24" y="43" width="1" height="1" fill="#EFEBE1" />
<rect x="25" y="43" width="1" height="1" fill="#EFEBE1" />
<rect x="26" y="43" width="1" height="1" fill="#EFEBE1" />
<rect x="27" y="43" width="1" height="1" fill="#EFEBE1" />
<rect x="28" y="43" width="1" height="1" fill="#EFEBE1" />
<rect x="29" y="43" width="1" height="1" fill="#EFEBE1" />
<rect x="30" y="43" width="1" height="1" fill="#EFEBE1" />
<rect x="31" y="43" width="1" height="1" fill="#EFEBE1" />
<rect x="32" y="43" width="1" height="1" fill="#EFEBE1" />
<rect x="33" y="43" width="1" height="1" fill="#EFEBE1" />
<rect x="34" y="43" width="1" height="1" fill="#EFEBE1" />
<rect x="35" y="43" width="1" height="1" fill="#EFEBE1" />
<rect x="36" y="43" width="1" height="1" fill="#EFEBE1" />
<rect x="37" y="43" width="1" height="1" fill="#EFEBE1" />
<rect x="38" y="43" width="1" height="1" fill="#EFEBE1" />
<rect x="39" y="43" width="1" height="1" fill="#EFEBE1" />
</svg>