<?xml version="1.0" encoding="UTF-8" ?>
<svg version="1.1" width="48" height="48" xmlns="http://www.w3.org/2000/svg" shape-rendering="crispEdges">
<rect x="16" y="4" width="1" height="1" fill="#EFEBE1" />
<rect x="17" y="4" width="1" height="1" fill="#EFEBE1" />
<rect x="18" y="4" width="1" height="1" fill="#EFEBE1" />
<rect x="19" y="4" width="1" height="1" fill="#EFEBE1" />
<rect x="20" y="4" width="1" height="1" fill="#EFEBE1" />
<rect x="21" y="4" width="1" height="1" fill="#EFEBE1" />
<rect x="22" y="4" width="1" height="1" fill="#EFEBE1" />
<rect x="23" y="4" width="1" height="1" fill="#EFEBE1" />
<rect x="24" y="4" width="1" height="1" fill="#EFEBE1" />
<rect x="25" y="4" width="1" height="1" fill="#EFEBE1" />
<rect x="26" y="4" width="1" height="1" fill="#EFEBE1" />
<rect x="27" y="4" width="1" height="1" fill="#EFEBE1" />
<rect x="28" y="4" width="1" height="1" fill="#EFEBE1" />
<rect x="29" y="4" width="1" height="1" fill="#EFEBE1" />
<rect x="30" y="4" width="1" height="1" fill="#EFEBE1" />
<rect x="31" y="4" width="1" height="1" fill="#EFEBE1" />
<rect x="16" y="5" width="1" height="1" fill="#EFEBE1" />
<rect x="17" y="5" width="1" height="1" fill="#EFEBE1" />
<rect x="18" y="5" width="1" height="1" fill="#EFEBE1" />
<rect x="19" y="5" width="1" height="1" fill="#EFEBE1" />
<rect x="20" y="5" width="1" height="1" fill="#EFEBE1" />
<rect x="21" y="5" width="1" height="1" fill="#EFEBE1" />
<rect x="22" y="5" width="1" height="1" fill="#EFEBE1" />
<rect x="23" y="5" width="1" height="1" fill="#EFEBE1" />
<rect x="24" y="5" width="1" height="1" fill="#EFEBE1" />
<rect x="25" y="5" width="1" height="1" fill="#EFEBE1" />
<rect x="26" y="5" width="1" height="1" fill="#EFEBE1" />
<rect x="27" y="5" width="1" height="1" fill="#EFEBE1" />
<rect x="28" y="5" width="1" height="1" fill="#EFEBE1" />
<rect x="29" y="5" width="1" height="1" fill="#EFEBE1" />
<rect x="30" y="5" width="1" height="1" fill="#EFEBE1" />
<rect x="31" y="5" width="1" height="1" fill="#EFEBE1" />
<rect x="16" y="6" width="1" height="1" fill="#EFEBE1" />
<rect x="17" y="6" width="1" height="1" fill="#EFEBE1" />
<rect x="18" y="6" width="1" height="1" fill="#EFEBE1" />
<rect x="19" y="6" width="1" height="1" fill="#EFEBE1" />
<rect x="20" y="6" width="1" height="1" fill="#EFEBE1" />
<rect x="21" y="6" width="1" height="1" fill="#EFEBE1" />
<rect x="22" y="6" width="1" height="1" fill="#EFEBE1" />
<rect x="23" y="6" width="1" height="1" fill="#EFEBE1" />
<rect x="24" y="6" width="1" height="1" fill="#EFEBE1" />
<rect x="25" y="6" width="1" height="1" fill="#EFEBE1" />
<rect x="26" y="6" width="1" height="1" fill="#EFEBE1" />
<rect x="27" y="6" width="1" height="1" fill="#EFEBE1" />
<rect x="28" y="6" width="1" height="1" fill="#EFEBE1" />
<rect x="29" y="6" width="1" height="1" fill="#EFEBE1" />
<rect x="30" y="6" width="1" height="1" fill="#EFEBE1" />
<rect x="31" y="6" width="1" height="1" fill="#EFEBE1" />
<rect x="16" y="7" width="1" height="1" fill="#EFEBE1" />
<rect x="17" y="7" width="1" height="1" fill="#EFEBE1" />
<rect x="18" y="7" width="1" height="1" fill="#EFEBE1" />
<rect x="19" y="7" width="1" height="1" fill="#EFEBE1" />
<rect x="20" y="7" width="1" height="1" fill="#EFEBE1" />
<rect x="21" y="7" width="1" height="1" fill="#EFEBE1" />
<rect x="22" y="7" width="1" height="1" fill="#EFEBE1" />
<rect x="23" y="7" width="1" height="1" fill="#EFEBE1" />
<rect x="24" y="7" width="1" height="1" fill="#EFEBE1" />
<rect x="25" y="7" width="1" height="1" fill="#EFEBE1" />
<rect x="26" y="7" width="1" height="1" fill="#EFEBE1" />
<rect x="27" y="7" width="1" height="1" fill="#EFEBE1" />
<rect x="28" y="7" width="1" height="1" fill="#EFEBE1" />
<rect x="29" y="7" width="1" height="1" fill="#EFEBE1" />
<rect x="30" y="7" width="1" height="1" fill="#EFEBE1" />
<rect x="31" y="7" width="1" height="1" fill="#EFEBE1" />
<rect x="12" y="8" width="1" height="1" fill="#EFEBE1" />
<rect x="13" y="8" width="1" height="1" fill="#EFEBE1" />
<rect x="14" y="8" width="1" height="1" fill="#EFEBE1" />
<rect x="15" y="8" width="1" height="1" fill="#EFEBE1" />
<rect x="32" y="8" width="1" height="1" fill="#EFEBE1" />
<rect x="33" y="8" width="1" height="1" fill="#EFEBE1" />
<rect x="34" y="8" width="1" height="1" fill="#EFEBE1" />
<rect x="35" y="8" width="1" height="1" fill="#EFEBE1" />
<rect x="12" y="9" width="1" height="1" fill="#EFEBE1" />
<rect x="13" y="9" width="1" height="1" fill="#EFEBE1" />
<rect x="14" y="9" width="1" height="1" fill="#EFEBE1" />
<rect x="15" y="9" width="1" height="1" fill="#EFEBE1" />
<rect x="32" y="9" width="1" height="1" fill="#EFEBE1" />
<rect x="33" y="9" width="1" height="1" fill="#EFEBE1" />
<rect x="34" y="9" width="1" height="1" fill="#EFEBE1" />
<rect x="35" y="9" width="1" height="1" fill="#EFEBE1" />
<rect x="12" y="10" width="1" height="1" fill="#EFEBE1" />
<rect x="13" y="10" width="1" height="1" fill="#EFEBE1" />
<rect x="14" y="10" width="1" height="1" fill="#EFEBE1" />
<rect x="15" y="10" width="1" height="1" fill="#EFEBE1" />
<rect x="32" y="10" width="1" height="1" fill="#EFEBE1" />
<rect x="33" y="10" width="1" height="1" fill="#EFEBE1" />
<rect x="34" y="10" width="1" height="1" fill="#EFEBE1" />
<rect x="35" y="10" width="1" height="1" fill="#EFEBE1" />
<rect x="12" y="11" width="1" height="1" fill="#EFEBE1" />
<rect x="13" y="11" width="1" height="1" fill="#EFEBE1" />
<rect x="14" y="11" width="1" height="1" fill="#EFEBE1" />
<rect x="15" y="11" width="1" height="1" fill="#EFEBE1" />
<rect x="32" y="11" width="1" height="1" fill="#EFEBE1" />
<rect x="33" y="11" width="1" height="1" fill="#EFEBE1" />
<rect x="34" y="11" width="1" height="1" fill="#EFEBE1" />
<rect x="35" y="11" width="1" height="1" fill="#EFEBE1" />
<rect x="8" y="12" width="1" height="1" fill="#EFEBE1" />
<rect x="9" y="12" width="1" height="1" fill="#EFEBE1" />
<rect x="10" y="12" width="1" height="1" fill="#EFEBE1" />
<rect x="11" y="12" width="1" height="1" fill="#EFEBE1" />
<rect x="36" y="12" width="1" height="1" fill="#EFEBE1" />
<rect x="37" y="12" width="1" height="1" fill="#EFEBE1" />
<rect x="38" y="12" width="1" height="1" fill="#EFEBE1" />
<rect x="39" y="12" width="1" height="1" fill="#EFEBE1" />
<rect x="8" y="13" width="1" height="1" fill="#EFEBE1" />
<rect x="9" y="13" width="1" height="1" fill="#EFEBE1" />
<rect x="10" y="13" width="1" height="1" fill="#EFEBE1" />
<rect x="11" y="13" width="1" height="1" fill="#EFEBE1" />
<rect x="36" y="13" width="1" height="1" fill="#EFEBE1" />
<rect x="37" y="13" width="1" height="1" fill="#EFEBE1" />
<rect x="38" y="13" width="1" height="1" fill="#EFEBE1" />
<rect x="39" y="13" width="1" height="1" fill="#EFEBE1" />
<rect x="8" y="14" width="1" height="1" fill="#EFEBE1" />
<rect x="9" y="14" width="1" height="1" fill="#EFEBE1" />
<rect x="10" y="14" width="1" height="1" fill="#EFEBE1" />
<rect x="11" y="14" width="1" height="1" fill="#EFEBE1" />
<rect x="36" y="14" width="1" height="1" fill="#EFEBE1" />
<rect x="37" y="14" width="1" height="1" fill="#EFEBE1" />
<rect x="38" y="14" width="1" height="1" fill="#EFEBE1" />
<rect x="39" y="14" width="1" height="1" fill="#EFEBE1" />
<rect x="8" y="15" width="1" height="1" fill="#EFEBE1" />
<rect x="9" y="15" width="1" height="1" fill="#EFEBE1" />
<rect x="10" y="15" width="1" height="1" fill="#EFEBE1" />
<rect x="11" y="15" width="1" height="1" fill="#EFEBE1" />
<rect x="36" y="15" width="1" height="1" fill="#EFEBE1" />
<rect x="37" y="15" width="1" height="1" fill="#EFEBE1" />
<rect x="38" y="15" width="1" height="1" fill="#EFEBE1" />
<rect x="39" y="15" width="1" height="1" fill="#EFEBE1" />
<rect x="8" y="16" width="1" height="1" fill="#EFEBE1" />
<rect x="9" y="16" width="1" height="1" fill="#EFEBE1" />
<rect x="10" y="16" width="1" height="1" fill="#EFEBE1" />
<rect x="11" y="16" width="1" height="1" fill="#EFEBE1" />
<rect x="36" y="16" width="1" height="1" fill="#EFEBE1" />
<rect x="37" y="16" width="1" height="1" fill="#EFEBE1" />
<rect x="38" y="16" width="1" height="1" fill="#EFEBE1" />
<rect x="39" y="16" width="1" height="1" fill="#EFEBE1" />
<rect x="8" y="17" width="1" height="1" fill="#EFEBE1" />
<rect x="9" y="17" width="1" height="1" fill="#EFEBE1" />
<rect x="10" y="17" width="1" height="1" fill="#EFEBE1" />
<rect x="11" y="17" width="1" height="1" fill="#EFEBE1" />
<rect x="36" y="17" width="1" height="1" fill="#EFEBE1" />
<rect x="37" y="17" width="1" height="1" fill="#EFEBE1" />
<rect x="38" y="17" width="1" height="1" fill="#EFEBE1" />
<rect x="39" y="17" width="1" height="1" fill="#EFEBE1" />
<rect x="8" y="18" width="1" height="1" fill="#EFEBE1" />
<rect x="9" y="18" width="1" height="1" fill="#EFEBE1" />
<rect x="10" y="18" width="1" height="1" fill="#EFEBE1" />
<rect x="11" y="18" width="1" height="1" fill="#EFEBE1" />
<rect x="36" y="18" width="1" height="1" fill="#EFEBE1" />
<rect x="37" y="18" width="1" height="1" fill="#EFEBE1" />
<rect x="38" y="18" width="1" height="1" fill="#EFEBE1" />
<rect x="39" y="18" width="1" height="1" fill="#EFEBE1" />
<rect x="8" y="19" width="1" height="1" fill="#EFEBE1" />
<rect x="9" y="19" width="1" height="1" fill="#EFEBE1" />
<rect x="10" y="19" width="1" height="1" fill="#EFEBE1" />
<rect x="11" y="19" width="1" height="1" fill="#EFEBE1" />
<rect x="36" y="19" width="1" height="1" fill="#EFEBE1" />
<rect x="37" y="19" width="1" height="1" fill="#EFEBE1" />
<rect x="38" y="19" width="1" height="1" fill="#EFEBE1" />
<rect x="39" y="19" width="1" height="1" fill="#EFEBE1" />
<rect x="8" y="20" width="1" height="1" fill="#EFEBE1" />
<rect x="9" y="20" width="1" height="1" fill="#EFEBE1" />
<rect x="10" y="20" width="1" height="1" fill="#EFEBE1" />
<rect x="11" y="20" width="1" height="1" fill="#EFEBE1" />
<rect x="36" y="20" width="1" height="1" fill="#EFEBE1" />
<rect x="37" y="20" width="1" height="1" fill="#EFEBE1" />
<rect x="38" y="20" width="1" height="1" fill="#EFEBE1" />
<rect x="39" y="20" width="1" height="1" fill="#EFEBE1" />
<rect x="8" y="21" width="1" height="1" fill="#EFEBE1" />
<rect x="9" y="21" width="1" height="1" fill="#EFEBE1" />
<rect x="10" y="21" width="1" height="1" fill="#EFEBE1" />
<rect x="11" y="21" width="1" height="1" fill="#EFEBE1" />
<rect x="36" y="21" width="1" height="1" fill="#EFEBE1" />
<rect x="37" y="21" width="1" height="1" fill="#EFEBE1" />
<rect x="38" y="21" width="1" height="1" fill="#EFEBE1" />
<rect x="39" y="21" width="1" height="1" fill="#EFEBE1" />
<rect x="8" y="22" width="1" height="1" fill="#EFEBE1" />
<rect x="9" y="22" width="1" height="1" fill="#EFEBE1" />
<rect x="10" y="22" width="1" height="1" fill="#EFEBE1" />
<rect x="11" y="22" width="1" height="1" fill="#EFEBE1" />
<rect x="36" y="22" width="1" height="1" fill="#EFEBE1" />
<rect x="37" y="22" width="1" height="1" fill="#EFEBE1" />
<rect x="38" y="22" width="1" height="1" fill="#EFEBE1" />
<rect x="39" y="22" width="1" height="1" fill="#EFEBE1" />
<rect x="8" y="23" width="1" height="1" fill="#EFEBE1" />
<rect x="9" y="23" width="1" height="1" fill="#EFEBE1" />
<rect x="10" y="23" width="1" height="1" fill="#EFEBE1" />
<rect x="11" y="23" width="1" height="1" fill="#EFEBE1" />
<rect x="36" y="23" width="1" height="1" fill="#EFEBE1" />
<rect x="37" y="23" width="1" height="1" fill="#EFEBE1" />
<rect x="38" y="23" width="1" height="1" fill="#EFEBE1" />
<rect x="39" y="23" width="1" height="1" fill="#EFEBE1" />
<rect x="8" y="24" width="1" height="1" fill="#EFEBE1" />
<rect x="9" y="24" width="1" height="1" fill="#EFEBE1" />
<rect x="10" y="24" width="1" height="1" fill="#EFEBE1" />
<rect x="11" y="24" width="1" height="1" fill="#EFEBE1" />
<rect x="36" y="24" width="1" height="1" fill="#EFEBE1" />
<rect x="37" y="24" width="1" height="1" fill="#EFEBE1" />
<rect x="38" y="24" width="1" height="1" fill="#EFEBE1" />
<rect x="39" y="24" width="1" height="1" fill="#EFEBE1" />
<rect x="8" y="25" width="1" height="1" fill="#EFEBE1" />
<rect x="9" y="25" width="1" height="1" fill="#EFEBE1" />
<rect x="10" y="25" width="1" height="1" fill="#EFEBE1" />
<rect x="11" y="25" width="1" height="1" fill="#EFEBE1" />
<rect x="36" y="25" width="1" height="1" fill="#EFEBE1" />
<rect x="37" y="25" width="1" height="1" fill="#EFEBE1" />
<rect x="38" y="25" width="1" height="1" fill="#EFEBE1" />
<rect x="39" y="25" width="1" height="1" fill="#EFEBE1" />
<rect x="8" y="26" width="1" height="1" fill="#EFEBE1" />
<rect x="9" y="26" width="1" height="1" fill="#EFEBE1" />
<rect x="10" y="26" width="1" height="1" fill="#EFEBE1" />
<rect x="11" y="26" width="1" height="1" fill="#EFEBE1" />
<rect x="36" y="26" width="1" height="1" fill="#EFEBE1" />
<rect x="37" y="26" width="1" height="1" fill="#EFEBE1" />
<rect x="38" y="26" width="1" height="1" fill="#EFEBE1" />
<rect x="39" y="26" width="1" height="1" fill="#EFEBE1" />
<rect x="8" y="27" width="1" height="1" fill="#EFEBE1" />
<rect x="9" y="27" width="1" height="1" fill="#EFEBE1" />
<rect x="10" y="27" width="1" height="1" fill="#EFEBE1" />
<rect x="11" y="27" width="1" height="1" fill="#EFEBE1" />
<rect x="36" y="27" width="1" height="1" fill="#EFEBE1" />
<rect x="37" y="27" width="1" height="1" fill="#EFEBE1" />
<rect x="38" y="27" width="1" height="1" fill="#EFEBE1" />
<rect x="39" y="27" width="1" height="1" fill="#EFEBE1" />
<rect x="4" y="28" width="1" height="1" fill="#EFEBE1" />
<rect x="5" y="28" width="1" height="1" fill="#EFEBE1" />
<rect x="6" y="28" width="1" height="1" fill="#EFEBE1" />
<rect x="7" y="28" width="1" height="1" fill="#EFEBE1" />
<rect x="40" y="28" width="1" height="1" fill="#EFEBE1" />
<rect x="41" y="28" width="1" height="1" fill="#EFEBE1" />
<rect x="42" y="28" width="1" height="1" fill="#EFEBE1" />
<rect x="43" y="28" width="1" height="1" fill="#EFEBE1" />
<rect x="4" y="29" width="1" height="1" fill="#EFEBE1" />
<rect x="5" y="29" width="1" height="1" fill="#EFEBE1" />
<rect x="6" y="29" width="1" height="1" fill="#EFEBE1" />
<rect x="7" y="29" width="1" height="1" fill="#EFEBE1" />
<rect x="40" y="29" width="1" height="1" fill="#EFEBE1" />
<rect x="41" y="29" width="1" height="1" fill="#EFEBE1" />
<rect x="42" y="29" width="1" height="1" fill="#EFEBE1" />
<rect x="43" y="29" width="1" height="1" fill="#EFEBE1" />
<rect x="4" y="30" width="1" height="1" fill="#EFEBE1" />
<rect x="5" y="30" width="1" height="1" fill="#EFEBE1" />
<rect x="6" y="30" width="1" height="1" fill="#EFEBE1" />
<rect x="7" y="30" width="1" height="1" fill="#EFEBE1" />
<rect x="40" y="30" width="1" height="1" fill="#EFEBE1" />
<rect x="41" y="30" width="1" height="1" fill="#EFEBE1" />
<rect x="42" y="30" width="1" height="1" fill="#EFEBE1" />
<rect x="43" y="30" width="1" height="1" fill="#EFEBE1" />
<rect x="4" y="31" width="1" height="1" fill="#EFEBE1" />
<rect x="5" y="31" width="1" height="1" fill="#EFEBE1" />
<rect x="6" y="31" width="1" height="1" fill="#EFEBE1" />
<rect x="7" y="31" width="1" height="1" fill="#EFEBE1" />
<rect x="40" y="31" width="1" height="1" fill="#EFEBE1" />
<rect x="41" y="31" width="1" height="1" fill="#EFEBE1" />
<rect x="42" y="31" width="1" height="1" fill="#EFEBE1" />
<rect x="43" y="31" width="1" height="1" fill="#EFEBE1" />
<rect x="4" y="32" width="1" height="1" fill="#EFEBE1" />
<rect x="5" y="32" width="1" height="1" fill="#EFEBE1" />
<rect x="6" y="32" width="1" height="1" fill="#EFEBE1" />
<rect x="7" y="32" width="1" height="1" fill="#EFEBE1" />
<rect x="8" y="32" width="1" height="1" fill="#EFEBE1" />
<rect x="9" y="32" width="1" height="1" fill="#EFEBE1" />
<rect x="10" y="32" width="1" height="1" fill="#EFEBE1" />
<rect x="11" y="32" width="1" height="1" fill="#EFEBE1" />
<rect x="12" y="32" width="1" height="1" fill="#EFEBE1" />
<rect x="13" y="32" width="1" height="1" fill="#EFEBE1" />
<rect x="14" y="32" width="1" height="1" fill="#EFEBE1" />
<rect x="15" y="32" width="1" height="1" fill="#EFEBE1" />
<rect x="16" y="32" width="1" height="1" fill="#EFEBE1" />
<rect x="17" y="32" width="1" height="1" fill="#EFEBE1" />
<rect x="18" y="32" width="1" height="1" fill="#EFEBE1" />
<rect x="19" y="32" width="1" height="1" fill="#EFEBE1" />
<rect x="20" y="32" width="1" height="1" fill="#EFEBE1" />
<rect x="21" y="32" width="1" height="1" fill="#EFEBE1" />
<rect x="22" y="32" width="1" height="1" fill="#EFEBE1" />
<rect x="23" y="32" width="1" height="1" fill="#EFEBE1" />
<rect x="24" y="32" width="1" height="1" fill="#EFEBE1" />
<rect x="25" y="32" width="1" height="1" fill="#EFEBE1" />
<rect x="26" y="32" width="1" height="1" fill="#EFEBE1" />
<rect x="27" y="32" width="1" height="1" fill="#EFEBE1" />
<rect x="28" y="32" width="1" height="1" fill="#EFEBE1" />
<rect x="29" y="32" width="1" height="1" fill="#EFEBE1" />
<rect x="30" y="32" width="1" height="1" fill="#EFEBE1" />
<rect x="31" y="32" width="1" height="1" fill="#EFEBE1" />
<rect x="32" y="32" width="1" height="1" fill="#EFEBE1" />
<rect x="33" y="32" width="1" height="1" fill="#EFEBE1" />
<rect x="34" y="32" width="1" height="1" fill="#EFEBE1" />
<rect x="35" y="32" width="1" height="1" fill="#EFEBE1" />
<rect x="36" y="32" width="1" height="1" fill="#EFEBE1" />
<rect x="37" y="32" width="1" height="1" fill="#EFEBE1" />
<rect x="38" y="32" width="1" height="1" fill="#EFEBE1" />
<rect x="39" y="32" width="1" height="1" fill="#EFEBE1" />
<rect x="40" y="32" width="1" height="1" fill="#EFEBE1" />
<rect x="41" y="32" width="1" height="1" fill="#EFEBE1" />
<rect x="42" y="32" width="1" height="1" fill="#EFEBE1" />
<rect x="43" y="32" width="1" height="1" fill="#EFEBE1" />
<rect x="4" y="33" width="1" height="1" fill="#EFEBE1" />
<rect x="5" y="33" width="1" height="1" fill="#EFEBE1" />
<rect x="6" y="33" width="1" height="1" fill="#EFEBE1" />
<rect x="7" y="33" width="1" height="1" fill="#EFEBE1" />
<rect x="8" y="33" width="1" height="1" fill="#EFEBE1" />
<rect x="9" y="33" width="1" height="1" fill="#EFEBE1" />
<rect x="10" y="33" width="1" height="1" fill="#EFEBE1" />
<rect x="11" y="33" width="1" height="1" fill="#EFEBE1" />
<rect x="12" y="33" width="1" height="1" fill="#EFEBE1" />
<rect x="13" y="33" width="1" height="1" fill="#EFEBE1" />
<rect x="14" y="33" width="1" height="1" fill="#EFEBE1" />
<rect x="15" y="33" width="1" height="1" fill="#EFEBE1" />
<rect x="16" y="33" width="1" height="1" fill="#EFEBE1" />
<rect x="17" y="33" width="1" height="1" fill="#EFEBE1" />
<rect x="18" y="33" width="1" height="1" fill="#EFEBE1" />
<rect x="19" y="33" width="1" height="1" fill="#EFEBE1" />
<rect x="20" y="33" width="1" height="1" fill="#EFEBE1" />
<rect x="21" y="33" width="1" height="1" fill="#EFEBE1" />
<rect x="22" y="33" width="1" height="1" fill="#EFEBE1" />
<rect x="23" y="33" width="1" height="1" fill="#EFEBE1" />
<rect x="24" y="33" width="1" height="1" fill="#EFEBE1" />
<rect x="25" y="33" width="1" height="1" fill="#EFEBE1" />
<rect x="26" y="33" width="1" height="1" fill="#EFEBE1" />
<rect x="27" y="33" width="1" height="1" fill="#EFEBE1" />
<rect x="28" y="33" width="1" height="1" fill="#EFEBE1" />
<rect x="29" y="33" width="1" height="1" fill="#EFEBE1" />
<rect x="30" y="33" width="1" height="1" fill="#EFEBE1" />
<rect x="31" y="33" width="1" height="1" fill="#EFEBE1" />
<rect x="32" y="33" width="1" height="1" fill="#EFEBE1" />
<rect x="33" y="33" width="1" height="1" fill="#EFEBE1" />
<rect x="34" y="33" width="1" height="1" fill="#EFEBE1" />
<rect x="35" y="33" width="1" height="1" fill="#EFEBE1" />
<rect x="36" y="33" width="1" height="1" fill="#EFEBE1" />
<rect x="37" y="33" width="1" height="1" fill="#EFEBE1" />
<rect x="38" y="33" width="1" height="1" fill="#EFEBE1" />
<rect x="39" y="33" width="1" height="1" fill="#EFEBE1" />
<rect x="40" y="33" width="1" height="1" fill="#EFEBE1" />
<rect x="41" y="33" width="1" height="1" fill="#EFEBE1" />
<rect x="42" y="33" width="1" height="1" fill="#EFEBE1" />
<rect x="43" y="33" width="1" height="1" fill="#EFEBE1" />
<rect x="4" y="34" width="1" height="1" fill="#EFEBE1" />
<rect x="5" y="34" width="1" height="1" fill="#EFEBE1" />
<rect x="6" y="34" width="1" height="1" fill="#EFEBE1" />
<rect x="7" y="34" width="1" height="1" fill="#EFEBE1" />
<rect x="8" y="34" width="1" height="1" fill="#EFEBE1" />
<rect x="9" y="34" width="1" height="1" fill="#EFEBE1" />
<rect x="10" y="34" width="1" height="1" fill="#EFEBE1" />
<rect x="11" y="34" width="1" height="1" fill="#EFEBE1" />
<rect x="12" y="34" width="1" height="1" fill="#EFEBE1" />
<rect x="13" y="34" width="1" height="1" fill="#EFEBE1" />
<rect x="14" y="34" width="1" height="1" fill="#EFEBE1" />
<rect x="15" y="34" width="1" height="1" fill="#EFEBE1" />
<rect x="16" y="34" width="1" height="1" fill="#EFEBE1" />
<rect x="17" y="34" width="1" height="1" fill="#EFEBE1" />
<rect x="18" y="34" width="1" height="1" fill="#EFEBE1" />
<rect x="19" y="34" width="1" height="1" fill="#EFEBE1" />
<rect x="20" y="34" width="1" height="1" fill="#EFEBE1" />
<rect x="21" y="34" width="1" height="1" fill="#EFEBE1" />
<rect x="22" y="34" width="1" height="1" fill="#EFEBE1" />
<rect x="23" y="34" width="1" height="1" fill="#EFEBE1" />
<rect x="24" y="34" width="1" height="1" fill="#EFEBE1" />
<rect x="25" y="34" width="1" height="1" fill="#EFEBE1" />
<rect x="26" y="34" width="1" height="1" fill="#EFEBE1" />
<rect x="27" y="34" width="1" height="1" fill="#EFEBE1" />
<rect x="28" y="34" width="1" height="1" fill="#EFEBE1" />
<rect x="29" y="34" width="1" height="1" fill="#EFEBE1" />
<rect x="30" y="34" width="1" height="1" fill="#EFEBE1" />
<rect x="31" y="34" width="1" height="1" fill="#EFEBE1" />
<rect x="32" y="34" width="1" height="1" fill="#EFEBE1" />
<rect x="33" y="34" width="1" height="1" fill="#EFEBE1" />
<rect x="34" y="34" width="1" height="1" fill="#EFEBE1" />
<rect x="35" y="34" width="1" height="1" fill="#EFEBE1" />
<rect x="36" y="34" width="1" height="1" fill="#EFEBE1" />
<rect x="37" y="34" width="1" height="1" fill="#EFEBE1" />
<rect x="38" y="34" width="1" height="1" fill="#EFEBE1" />
<rect x="39" y="34" width="1" height="1" fill="#EFEBE1" />
<rect x="40" y="34" width="1" height="1" fill="#EFEBE1" />
<rect x="41" y="34" width="1" height="1" fill="#EFEBE1" />
<rect x="42" y="34" width="1" height="1" fill="#EFEBE1" />
<rect x="43" y="34" width="1" height="1" fill="#EFEBE1" />
<rect x="4" y="35" width="1" height="1" fill="#EFEBE1" />
<rect x="5" y="35" width="1" height="1" fill="#EFEBE1" />
<rect x="6" y="35" width="1" height="1" fill="#EFEBE1" />
<rect x="7" y="35" width="1" height="1" fill="#EFEBE1" />
<rect x="8" y="35" width="1" height="1" fill="#EFEBE1" />
<rect x="9" y="35" width="1" height="1" fill="#EFEBE1" />
<rect x="10" y="35" width="1" height="1" fill="#EFEBE1" />
<rect x="11" y="35" width="1" height="1" fill="#EFEBE1" />
<rect x="12" y="35" width="1" height="1" fill="#EFEBE1" />
<rect x="13" y="35" width="1" height="1" fill="#EFEBE1" />
<rect x="14" y="35" width="1" height="1" fill="#EFEBE1" />
<rect x="15" y="35" width="1" height="1" fill="#EFEBE1" />
<rect x="16" y="35" width="1" height="1" fill="#EFEBE1" />
<rect x="17" y="35" width="1" height="1" fill="#EFEBE1" />
<rect x="18" y="35" width="1" height="1" fill="#EFEBE1" />
<rect x="19" y="35" width="1" height="1" fill="#EFEBE1" />
<rect x="20" y="35" width="1" height="1" fill="#EFEBE1" />
<rect x="21" y="35" width="1" height="1" fill="#EFEBE1" />
<rect x="22" y="35" width="1" height="1" fill="#EFEBE1" />
<rect x="23" y="35" width="1" height="1" fill="#EFEBE1" />
<rect x="24" y="35" width="1" height="1" fill="#EFEBE1" />
<rect x="25" y="35" width="1" height="1" fill="#EFEBE1" />
<rect x="26" y="35" width="1" height="1" fill="#EFEBE1" />
<rect x="27" y="35" width="1" height="1" fill="#EFEBE1" />
<rect x="28" y="35" width="1" height="1" fill="#EFEBE1" />
<rect x="29" y="35" width="1" height="1" fill="#EFEBE1" />
<rect x="30" y="35" width="1" height="1" fill="#EFEBE1" />
<rect x="31" y="35" width="1" height="1" fill="#EFEBE1" />
<rect x="32" y="35" width="1" height="1" fill="#EFEBE1" />
<rect x="33" y="35" width="1" height="1" fill="#EFEBE1" />
<rect x="34" y="35" width="1" height="1" fill="#EFEBE1" />
<rect x="35" y="35" width="1" height="1" fill="#EFEBE1" />
<rect x="36" y="35" width="1" height="1" fill="#EFEBE1" />
<rect x="37" y="35" width="1" height="1" fill="#EFEBE1" />
<rect x="38" y="35" width="1" height="1" fill="#EFEBE1" />
<rect x="39" y="35" width="1" height="1" fill="#EFEBE1" />
<rect x="40" y="35" width="1" height="1" fill="#EFEBE1" />
<rect x="41" y="35" width="1" height="1" fill="#EFEBE1" />
<rect x="42" y="35" width="1" height="1" fill="#EFEBE1" />
<rect x="43" y="35" width="1" height="1" fill="#EFEBE1" />
<rect x="16" y="36" width="1" height="1" fill="#EFEBE1" />
<rect x="17" y="36" width="1" height="1" fill="#EFEBE1" />
<rect x="18" y="36" width="1" height="1" fill="#EFEBE1" />
<rect x="19" y="36" width="1" height="1" fill="#EFEBE1" />
<rect x="28" y="36" width="1" height="1" fill="#EFEBE1" />
<rect x="29" y="36" width="1" height="1" fill="#EFEBE1" />
<rect x="30" y="36" width="1" height="1" fill="#EFEBE1" />
<rect x="31" y="36" width="1" height="1" fill="#EFEBE1" />
<rect x="16" y="37" width="1" height="1" fill="#EFEBE1" />
<rect x="17" y="37" width="1" height="1" fill="#EFEBE1" />
<rect x="18" y="37" width="1" height="1" fill="#EFEBE1" />
<rect x="19" y="37" width="1" height="1" fill="#EFEBE1" />
<rect x="28" y="37" width="1" height="1" fill="#EFEBE1" />
<rect x="29" y="37" width="1" height="1" fill="#EFEBE1" />
<rect x="30" y="37" width="1" height="1" fill="#EFEBE1" />
<rect x="31" y="37" width="1" height="1" fill="#EFEBE1" />
<rect x="16" y="38" width="1" height="1" fill="#EFEBE1" />
<rect x="17" y="38" width="1" height="1" fill="#EFEBE1" />
<rect x="18" y="38" width="1" height="1" fill="#EFEBE1" />
<rect x="19" y="38" width="1" height="1" fill="#EFEBE1" />
<rect x="28" y="38" width="1" height="1" fill="#EFEBE1" />
<rect x="29" y="38" width="1" height="1" fill="#EFEBE1" />
<rect x="30" y="38" width="1" height="1" fill="#EFEBE1" />
<rect x="31" y="38" width="1" height="1" fill="#EFEBE1" />
<rect x="16" y="39" width="1" height="1" fill="#EFEBE1" />
<rect x="17" y="39" width="1" height="1" fill="#EFEBE1" />
<rect x="18" y="39" width="1" height="1" fill="#EFEBE1" />
<rect x="19" y="39" width="1" height="1" fill="#EFEBE1" />
<rect x="28" y="39" width="1" height="1" fill="#EFEBE1" />
<rect x="29" y="39" width="1" height="1" fill="#EFEBE1" />
<rect x="30" y="39" width="1" height="1" fill="#EFEBE1" />
<rect x="31" y="39" width="1" height="1" fill="#EFEBE1" />
<rect x="20" y="40" width="1" height="1" fill="#EFEBE1" />
<rect x="21" y="40" width="1" height="1" fill="#EFEBE1" />
<rect x="22" y="40" width="1" height="1" fill="#EFEBE1" />
<rect x="23" y="40" width="1" height="1" fill="#EFEBE1" />
<rect x="24" y="40" width="1" height="1" fill="#EFEBE1" />
<rect x="25" y="40" width="1" height="1" fill="#EFEBE1" />
<rect x="26" y="40" width="1" height="1" fill="#EFEBE1" />
<rect x="27" y="40" width="1" height="1" fill="#EFEBE1" />
<rect x="20" y="41" width="1" height="1" fill="#EFEBE1" />
<rect x="21" y="41" width="1" height="1" fill="#EFEBE1" />
<rect x="22" y="41" width="1" height="1" fill="#EFEBE1" />
<rect x="23" y="41" width="1" height="1" fill="#EFEBE1" />
<rect x="24" y="41" width="1" height="1" fill="#EFEBE1" />
<rect x="25" y="41" width="1" height="1" fill="#EFEBE1" />
<rect x="26" y="41" width="1" height="1" fill="#EFEBE1" />
<rect x="27" y="41" width="1" height="1" fill="#EFEBE1" />
<rect x="20" y="42" width="1" height="1" fill="#EFEBE1" />
<rect x="21" y="42" width="1" height="1" fill="#EFEBE1" />
<rect x="22" y="42" width="1" height="1" fill="#EFEBE1" />
<rect x="23" y="42" width="1" height="1" fill="#EFEBE1" />
<rect x="24" y="42" width="1" height="1" fill="#EFEBE1" />
<rect x="25" y="42" width="1" height="1" fill="#EFEBE1" />
<rect x="26" y="42" width="1" height="1" fill="#EFEBE1" />
<rect x="27" y="42" width="1" height="1" fill="#EFEBE1" />
<rect x="20" y="43" width="1" height="1" fill="#EFEBE1" />
<rect x="21" y="43" width="1" height="1" fill="#EFEBE1" />
<rect x="22" y="43" width="1" height="1" fill="#EFEBE1" />
<rect x="23" y="43" width="1" height="1" fill="#EFEBE1" />
<rect x="24" y="43" width="1" height="1" fill="#EFEBE1" />
<rect x="25" y="43" width="1" height="1" fill="#EFEBE1" />
<rect x="26" y="43" width="1" height="1" fill="#EFEBE1" />
<rect x="27" y="43" width="1" height="1" fill="#EFEBE1" />
</svg>