<?xml version="1.0" encoding="UTF-8" ?>
<svg version="1.1" width="60" height="30" xmlns="http://www.w3.org/2000/svg" shape-rendering="crispEdges">
<rect x="4" y="0" width="1" height="1" fill="#EFEBE1" />
<rect x="5" y="0" width="1" height="1" fill="#EFEBE1" />
<rect x="6" y="0" width="1" height="1" fill="#EFEBE1" />
<rect x="7" y="0" width="1" height="1" fill="#EFEBE1" />
<rect x="8" y="0" width="1" height="1" fill="#EFEBE1" />
<rect x="9" y="0" width="1" height="1" fill="#EFEBE1" />
<rect x="10" y="0" width="1" height="1" fill="#EFEBE1" />
<rect x="11" y="0" width="1" height="1" fill="#EFEBE1" />
<rect x="12" y="0" width="1" height="1" fill="#EFEBE1" />
<rect x="13" y="0" width="1" height="1" fill="#EFEBE1" />
<rect x="14" y="0" width="1" height="1" fill="#EFEBE1" />
<rect x="15" y="0" width="1" height="1" fill="#EFEBE1" />
<rect x="16" y="0" width="1" height="1" fill="#EFEBE1" />
<rect x="17" y="0" width="1" height="1" fill="#EFEBE1" />
<rect x="18" y="0" width="1" height="1" fill="#EFEBE1" />
<rect x="19" y="0" width="1" height="1" fill="#EFEBE1" />
<rect x="20" y="0" width="1" height="1" fill="#EFEBE1" />
<rect x="21" y="0" width="1" height="1" fill="#EFEBE1" />
<rect x="22" y="0" width="1" height="1" fill="#EFEBE1" />
<rect x="23" y="0" width="1" height="1" fill="#EFEBE1" />
<rect x="24" y="0" width="1" height="1" fill="#EFEBE1" />
<rect x="25" y="0" width="1" height="1" fill="#EFEBE1" />
<rect x="26" y="0" width="1" height="1" fill="#EFEBE1" />
<rect x="27" y="0" width="1" height="1" fill="#EFEBE1" />
<rect x="28" y="0" width="1" height="1" fill="#EFEBE1" />
<rect x="29" y="0" width="1" height="1" fill="#EFEBE1" />
<rect x="30" y="0" width="1" height="1" fill="#EFEBE1" />
<rect x="31" y="0" width="1" height="1" fill="#EFEBE1" />
<rect x="32" y="0" width="1" height="1" fill="#EFEBE1" />
<rect x="33" y="0" width="1" height="1" fill="#EFEBE1" />
<rect x="34" y="0" width="1" height="1" fill="#EFEBE1" />
<rect x="35" y="0" width="1" height="1" fill="#EFEBE1" />
<rect x="36" y="0" width="1" height="1" fill="#EFEBE1" />
<rect x="37" y="0" width="1" height="1" fill="#EFEBE1" />
<rect x="38" y="0" width="1" height="1" fill="#EFEBE1" />
<rect x="39" y="0" width="1" height="1" fill="#EFEBE1" />
<rect x="40" y="0" width="1" height="1" fill="#EFEBE1" />
<rect x="41" y="0" width="1" height="1" fill="#EFEBE1" />
<rect x="42" y="0" width="1" height="1" fill="#EFEBE1" />
<rect x="43" y="0" width="1" height="1" fill="#EFEBE1" />
<rect x="44" y="0" width="1" height="1" fill="#EFEBE1" />
<rect x="45" y="0" width="1" height="1" fill="#EFEBE1" />
<rect x="46" y="0" width="1" height="1" fill="#EFEBE1" />
<rect x="47" y="0" width="1" height="1" fill="#EFEBE1" />
<rect x="48" y="0" width="1" height="1" fill="#EFEBE1" />
<rect x="49" y="0" width="1" height="1" fill="#EFEBE1" />
<rect x="50" y="0" width="1" height="1" fill="#EFEBE1" />
<rect x="51" y="0" width="1" height="1" fill="#EFEBE1" />
<rect x="52" y="0" width="1" height="1" fill="#EFEBE1" />
<rect x="53" y="0" width="1" height="1" fill="#EFEBE1" />
<rect x="54" y="0" width="1" height="1" fill="#EFEBE1" />
<rect x="55" y="0" width="1" height="1" fill="#EFEBE1" />
<rect x="4" y="1" width="1" height="1" fill="#EFEBE1" />
<rect x="5" y="1" width="1" height="1" fill="#EFEBE1" />
<rect x="6" y="1" width="1" height="1" fill="#EFEBE1" />
<rect x="7" y="1" width="1" height="1" fill="#EFEBE1" />
<rect x="8" y="1" width="1" height="1" fill="#EFEBE1" />
<rect x="9" y="1" width="1" height="1" fill="#EFEBE1" />
<rect x="10" y="1" width="1" height="1" fill="#EFEBE1" />
<rect x="11" y="1" width="1" height="1" fill="#EFEBE1" />
<rect x="12" y="1" width="1" height="1" fill="#EFEBE1" />
<rect x="13" y="1" width="1" height="1" fill="#EFEBE1" />
<rect x="14" y="1" width="1" height="1" fill="#EFEBE1" />
<rect x="15" y="1" width="1" height="1" fill="#EFEBE1" />
<rect x="16" y="1" width="1" height="1" fill="#EFEBE1" />
<rect x="17" y="1" width="1" height="1" fill="#EFEBE1" />
<rect x="18" y="1" width="1" height="1" fill="#EFEBE1" />
<rect x="19" y="1" width="1" height="1" fill="#EFEBE1" />
<rect x="20" y="1" width="1" height="1" fill="#EFEBE1" />
<rect x="21" y="1" width="1" height="1" fill="#EFEBE1" />
<rect x="22" y="1" width="1" height="1" fill="#EFEBE1" />
<rect x="23" y="1" width="1" height="1" fill="#EFEBE1" />
<rect x="24" y="1" width="1" height="1" fill="#EFEBE1" />
<rect x="25" y="1" width="1" height="1" fill="#EFEBE1" />
<rect x="26" y="1" width="1" height="1" fill="#EFEBE1" />
<rect x="27" y="1" width="1" height="1" fill="#EFEBE1" />
<rect x="28" y="1" width="1" height="1" fill="#EFEBE1" />
<rect x="29" y="1" width="1" height="1" fill="#EFEBE1" />
<rect x="30" y="1" width="1" height="1" fill="#EFEBE1" />
<rect x="31" y="1" width="1" height="1" fill="#EFEBE1" />
<rect x="32" y="1" width="1" height="1" fill="#EFEBE1" />
<rect x="33" y="1" width="1" height="1" fill="#EFEBE1" />
<rect x="34" y="1" width="1" height="1" fill="#EFEBE1" />
<rect x="35" y="1" width="1" height="1" fill="#EFEBE1" />
<rect x="36" y="1" width="1" height="1" fill="#EFEBE1" />
<rect x="37" y="1" width="1" height="1" fill="#EFEBE1" />
<rect x="38" y="1" width="1" height="1" fill="#EFEBE1" />
<rect x="39" y="1" width="1" height="1" fill="#EFEBE1" />
<rect x="40" y="1" width="1" height="1" fill="#EFEBE1" />
<rect x="41" y="1" width="1" height="1" fill="#EFEBE1" />
<rect x="42" y="1" width="1" height="1" fill="#EFEBE1" />
<rect x="43" y="1" width="1" height="1" fill="#EFEBE1" />
<rect x="44" y="1" width="1" height="1" fill="#EFEBE1" />
<rect x="45" y="1" width="1" height="1" fill="#EFEBE1" />
<rect x="46" y="1" width="1" height="1" fill="#EFEBE1" />
<rect x="47" y="1" width="1" height="1" fill="#EFEBE1" />
<rect x="48" y="1" width="1" height="1" fill="#EFEBE1" />
<rect x="49" y="1" width="1" height="1" fill="#EFEBE1" />
<rect x="50" y="1" width="1" height="1" fill="#EFEBE1" />
<rect x="51" y="1" width="1" height="1" fill="#EFEBE1" />
<rect x="52" y="1" width="1" height="1" fill="#EFEBE1" />
<rect x="53" y="1" width="1" height="1" fill="#EFEBE1" />
<rect x="54" y="1" width="1" height="1" fill="#EFEBE1" />
<rect x="55" y="1" width="1" height="1" fill="#EFEBE1" />
<rect x="4" y="2" width="1" height="1" fill="#EFEBE1" />
<rect x="5" y="2" width="1" height="1" fill="#EFEBE1" />
<rect x="6" y="2" width="1" height="1" fill="#EFEBE1" />
<rect x="7" y="2" width="1" height="1" fill="#EFEBE1" />
<rect x="8" y="2" width="1" height="1" fill="#EFEBE1" />
<rect x="9" y="2" width="1" height="1" fill="#EFEBE1" />
<rect x="10" y="2" width="1" height="1" fill="#EFEBE1" />
<rect x="11" y="2" width="1" height="1" fill="#EFEBE1" />
<rect x="12" y="2" width="1" height="1" fill="#EFEBE1" />
<rect x="13" y="2" width="1" height="1" fill="#EFEBE1" />
<rect x="14" y="2" width="1" height="1" fill="#EFEBE1" />
<rect x="15" y="2" width="1" height="1" fill="#EFEBE1" />
<rect x="16" y="2" width="1" height="1" fill="#EFEBE1" />
<rect x="17" y="2" width="1" height="1" fill="#EFEBE1" />
<rect x="18" y="2" width="1" height="1" fill="#EFEBE1" />
<rect x="19" y="2" width="1" height="1" fill="#EFEBE1" />
<rect x="20" y="2" width="1" height="1" fill="#EFEBE1" />
<rect x="21" y="2" width="1" height="1" fill="#EFEBE1" />
<rect x="22" y="2" width="1" height="1" fill="#EFEBE1" />
<rect x="23" y="2" width="1" height="1" fill="#EFEBE1" />
<rect x="24" y="2" width="1" height="1" fill="#EFEBE1" />
<rect x="25" y="2" width="1" height="1" fill="#EFEBE1" />
<rect x="26" y="2" width="1" height="1" fill="#EFEBE1" />
<rect x="27" y="2" width="1" height="1" fill="#EFEBE1" />
<rect x="28" y="2" width="1" height="1" fill="#EFEBE1" />
<rect x="29" y="2" width="1" height="1" fill="#EFEBE1" />
<rect x="30" y="2" width="1" height="1" fill="#EFEBE1" />
<rect x="31" y="2" width="1" height="1" fill="#EFEBE1" />
<rect x="32" y="2" width="1" height="1" fill="#EFEBE1" />
<rect x="33" y="2" width="1" height="1" fill="#EFEBE1" />
<rect x="34" y="2" width="1" height="1" fill="#EFEBE1" />
<rect x="35" y="2" width="1" height="1" fill="#EFEBE1" />
<rect x="36" y="2" width="1" height="1" fill="#EFEBE1" />
<rect x="37" y="2" width="1" height="1" fill="#EFEBE1" />
<rect x="38" y="2" width="1" height="1" fill="#EFEBE1" />
<rect x="39" y="2" width="1" height="1" fill="#EFEBE1" />
<rect x="40" y="2" width="1" height="1" fill="#EFEBE1" />
<rect x="41" y="2" width="1" height="1" fill="#EFEBE1" />
<rect x="42" y="2" width="1" height="1" fill="#EFEBE1" />
<rect x="43" y="2" width="1" height="1" fill="#EFEBE1" />
<rect x="44" y="2" width="1" height="1" fill="#EFEBE1" />
<rect x="45" y="2" width="1" height="1" fill="#EFEBE1" />
<rect x="46" y="2" width="1" height="1" fill="#EFEBE1" />
<rect x="47" y="2" width="1" height="1" fill="#EFEBE1" />
<rect x="48" y="2" width="1" height="1" fill="#EFEBE1" />
<rect x="49" y="2" width="1" height="1" fill="#EFEBE1" />
<rect x="50" y="2" width="1" height="1" fill="#EFEBE1" />
<rect x="51" y="2" width="1" height="1" fill="#EFEBE1" />
<rect x="52" y="2" width="1" height="1" fill="#EFEBE1" />
<rect x="53" y="2" width="1" height="1" fill="#EFEBE1" />
<rect x="54" y="2" width="1" height="1" fill="#EFEBE1" />
<rect x="55" y="2" width="1" height="1" fill="#EFEBE1" />
<rect x="4" y="3" width="1" height="1" fill="#EFEBE1" />
<rect x="5" y="3" width="1" height="1" fill="#EFEBE1" />
<rect x="6" y="3" width="1" height="1" fill="#EFEBE1" />
<rect x="7" y="3" width="1" height="1" fill="#EFEBE1" />
<rect x="8" y="3" width="1" height="1" fill="#EFEBE1" />
<rect x="9" y="3" width="1" height="1" fill="#EFEBE1" />
<rect x="10" y="3" width="1" height="1" fill="#EFEBE1" />
<rect x="11" y="3" width="1" height="1" fill="#EFEBE1" />
<rect x="12" y="3" width="1" height="1" fill="#EFEBE1" />
<rect x="13" y="3" width="1" height="1" fill="#EFEBE1" />
<rect x="14" y="3" width="1" height="1" fill="#EFEBE1" />
<rect x="15" y="3" width="1" height="1" fill="#EFEBE1" />
<rect x="16" y="3" width="1" height="1" fill="#EFEBE1" />
<rect x="17" y="3" width="1" height="1" fill="#EFEBE1" />
<rect x="18" y="3" width="1" height="1" fill="#EFEBE1" />
<rect x="19" y="3" width="1" height="1" fill="#EFEBE1" />
<rect x="20" y="3" width="1" height="1" fill="#EFEBE1" />
<rect x="21" y="3" width="1" height="1" fill="#EFEBE1" />
<rect x="22" y="3" width="1" height="1" fill="#EFEBE1" />
<rect x="23" y="3" width="1" height="1" fill="#EFEBE1" />
<rect x="24" y="3" width="1" height="1" fill="#EFEBE1" />
<rect x="25" y="3" width="1" height="1" fill="#EFEBE1" />
<rect x="26" y="3" width="1" height="1" fill="#EFEBE1" />
<rect x="27" y="3" width="1" height="1" fill="#EFEBE1" />
<rect x="28" y="3" width="1" height="1" fill="#EFEBE1" />
<rect x="29" y="3" width="1" height="1" fill="#EFEBE1" />
<rect x="30" y="3" width="1" height="1" fill="#EFEBE1" />
<rect x="31" y="3" width="1" height="1" fill="#EFEBE1" />
<rect x="32" y="3" width="1" height="1" fill="#EFEBE1" />
<rect x="33" y="3" width="1" height="1" fill="#EFEBE1" />
<rect x="34" y="3" width="1" height="1" fill="#EFEBE1" />
<rect x="35" y="3" width="1" height="1" fill="#EFEBE1" />
<rect x="36" y="3" width="1" height="1" fill="#EFEBE1" />
<rect x="37" y="3" width="1" height="1" fill="#EFEBE1" />
<rect x="38" y="3" width="1" height="1" fill="#EFEBE1" />
<rect x="39" y="3" width="1" height="1" fill="#EFEBE1" />
<rect x="40" y="3" width="1" height="1" fill="#EFEBE1" />
<rect x="41" y="3" width="1" height="1" fill="#EFEBE1" />
<rect x="42" y="3" width="1" height="1" fill="#EFEBE1" />
<rect x="43" y="3" width="1" height="1" fill="#EFEBE1" />
<rect x="44" y="3" width="1" height="1" fill="#EFEBE1" />
<rect x="45" y="3" width="1" height="1" fill="#EFEBE1" />
<rect x="46" y="3" width="1" height="1" fill="#EFEBE1" />
<rect x="47" y="3" width="1" height="1" fill="#EFEBE1" />
<rect x="48" y="3" width="1" height="1" fill="#EFEBE1" />
<rect x="49" y="3" width="1" height="1" fill="#EFEBE1" />
<rect x="50" y="3" width="1" height="1" fill="#EFEBE1" />
<rect x="51" y="3" width="1" height="1" fill="#EFEBE1" />
<rect x="52" y="3" width="1" height="1" fill="#EFEBE1" />
<rect x="53" y="3" width="1" height="1" fill="#EFEBE1" />
<rect x="54" y="3" width="1" height="1" fill="#EFEBE1" />
<rect x="55" y="3" width="1" height="1" fill="#EFEBE1" />
<rect x="0" y="4" width="1" height="1" fill="#EFEBE1" />
<rect x="1" y="4" width="1" height="1" fill="#EFEBE1" />
<rect x="2" y="4" width="1" height="1" fill="#EFEBE1" />
<rect x="3" y="4" width="1" height="1" fill="#EFEBE1" />
<rect x="56" y="4" width="1" height="1" fill="#EFEBE1" />
<rect x="57" y="4" width="1" height="1" fill="#EFEBE1" />
<rect x="58" y="4" width="1" height="1" fill="#EFEBE1" />
<rect x="59" y="4" width="1" height="1" fill="#EFEBE1" />
<rect x="0" y="5" width="1" height="1" fill="#EFEBE1" />
<rect x="1" y="5" width="1" height="1" fill="#EFEBE1" />
<rect x="2" y="5" width="1" height="1" fill="#EFEBE1" />
<rect x="3" y="5" width="1" height="1" fill="#EFEBE1" />
<rect x="56" y="5" width="1" height="1" fill="#EFEBE1" />
<rect x="57" y="5" width="1" height="1" fill="#EFEBE1" />
<rect x="58" y="5" width="1" height="1" fill="#EFEBE1" />
<rect x="59" y="5" width="1" height="1" fill="#EFEBE1" />
<rect x="0" y="6" width="1" height="1" fill="#EFEBE1" />
<rect x="1" y="6" width="1" height="1" fill="#EFEBE1" />
<rect x="2" y="6" width="1" height="1" fill="#EFEBE1" />
<rect x="3" y="6" width="1" height="1" fill="#EFEBE1" />
<rect x="56" y="6" width="1" height="1" fill="#EFEBE1" />
<rect x="57" y="6" width="1" height="1" fill="#EFEBE1" />
<rect x="58" y="6" width="1" height="1" fill="#EFEBE1" />
<rect x="59" y="6" width="1" height="1" fill="#EFEBE1" />
<rect x="0" y="7" width="1" height="1" fill="#EFEBE1" />
<rect x="1" y="7" width="1" height="1" fill="#EFEBE1" />
<rect x="2" y="7" width="1" height="1" fill="#EFEBE1" />
<rect x="3" y="7" width="1" height="1" fill="#EFEBE1" />
<rect x="18" y="7" width="1" height="1" fill="#EFEBE1" />
<rect x="19" y="7" width="1" height="1" fill="#EFEBE1" />
<rect x="20" y="7" width="1" height="1" fill="#EFEBE1" />
<rect x="21" y="7" width="1" height="1" fill="#EFEBE1" />
<rect x="22" y="7" width="1" height="1" fill="#EFEBE1" />
<rect x="23" y="7" width="1" height="1" fill="#EFEBE1" />
<rect x="24" y="7" width="1" height="1" fill="#EFEBE1" />
<rect x="25" y="7" width="1" height="1" fill="#EFEBE1" />
<rect x="34" y="7" width="1" height="1" fill="#EFEBE1" />
<rect x="35" y="7" width="1" height="1" fill="#EFEBE1" />
<rect x="36" y="7" width="1" height="1" fill="#EFEBE1" />
<rect x="37" y="7" width="1" height="1" fill="#EFEBE1" />
<rect x="42" y="7" width="1" height="1" fill="#EFEBE1" />
<rect x="43" y="7" width="1" height="1" fill="#EFEBE1" />
<rect x="44" y="7" width="1" height="1" fill="#EFEBE1" />
<rect x="45" y="7" width="1" height="1" fill="#EFEBE1" />
<rect x="56" y="7" width="1" height="1" fill="#EFEBE1" />
<rect x="57" y="7" width="1" height="1" fill="#EFEBE1" />
<rect x="58" y="7" width="1" height="1" fill="#EFEBE1" />
<rect x="59" y="7" width="1" height="1" fill="#EFEBE1" />
<rect x="0" y="8" width="1" height="1" fill="#EFEBE1" />
<rect x="1" y="8" width="1" height="1" fill="#EFEBE1" />
<rect x="2" y="8" width="1" height="1" fill="#EFEBE1" />
<rect x="3" y="8" width="1" height="1" fill="#EFEBE1" />
<rect x="18" y="8" width="1" height="1" fill="#EFEBE1" />
<rect x="19" y="8" width="1" height="1" fill="#EFEBE1" />
<rect x="20" y="8" width="1" height="1" fill="#EFEBE1" />
<rect x="21" y="8" width="1" height="1" fill="#EFEBE1" />
<rect x="22" y="8" width="1" height="1" fill="#EFEBE1" />
<rect x="23" y="8" width="1" height="1" fill="#EFEBE1" />
<rect x="24" y="8" width="1" height="1" fill="#EFEBE1" />
<rect x="25" y="8" width="1" height="1" fill="#EFEBE1" />
<rect x="34" y="8" width="1" height="1" fill="#EFEBE1" />
<rect x="35" y="8" width="1" height="1" fill="#EFEBE1" />
<rect x="36" y="8" width="1" height="1" fill="#EFEBE1" />
<rect x="37" y="8" width="1" height="1" fill="#EFEBE1" />
<rect x="42" y="8" width="1" height="1" fill="#EFEBE1" />
<rect x="43" y="8" width="1" height="1" fill="#EFEBE1" />
<rect x="44" y="8" width="1" height="1" fill="#EFEBE1" />
<rect x="45" y="8" width="1" height="1" fill="#EFEBE1" />
<rect x="56" y="8" width="1" height="1" fill="#EFEBE1" />
<rect x="57" y="8" width="1" height="1" fill="#EFEBE1" />
<rect x="58" y="8" width="1" height="1" fill="#EFEBE1" />
<rect x="59" y="8" width="1" height="1" fill="#EFEBE1" />
<rect x="0" y="9" width="1" height="1" fill="#EFEBE1" />
<rect x="1" y="9" width="1" height="1" fill="#EFEBE1" />
<rect x="2" y="9" width="1" height="1" fill="#EFEBE1" />
<rect x="3" y="9" width="1" height="1" fill="#EFEBE1" />
<rect x="18" y="9" width="1" height="1" fill="#EFEBE1" />
<rect x="19" y="9" width="1" height="1" fill="#EFEBE1" />
<rect x="20" y="9" width="1" height="1" fill="#EFEBE1" />
<rect x="21" y="9" width="1" height="1" fill="#EFEBE1" />
<rect x="22" y="9" width="1" height="1" fill="#EFEBE1" />
<rect x="23" y="9" width="1" height="1" fill="#EFEBE1" />
<rect x="24" y="9" width="1" height="1" fill="#EFEBE1" />
<rect x="25" y="9" width="1" height="1" fill="#EFEBE1" />
<rect x="34" y="9" width="1" height="1" fill="#EFEBE1" />
<rect x="35" y="9" width="1" height="1" fill="#EFEBE1" />
<rect x="36" y="9" width="1" height="1" fill="#EFEBE1" />
<rect x="37" y="9" width="1" height="1" fill="#EFEBE1" />
<rect x="42" y="9" width="1" height="1" fill="#EFEBE1" />
<rect x="43" y="9" width="1" height="1" fill="#EFEBE1" />
<rect x="44" y="9" width="1" height="1" fill="#EFEBE1" />
<rect x="45" y="9" width="1" height="1" fill="#EFEBE1" />
<rect x="56" y="9" width="1" height="1" fill="#EFEBE1" />
<rect x="57" y="9" width="1" height="1" fill="#EFEBE1" />
<rect x="58" y="9" width="1" height="1" fill="#EFEBE1" />
<rect x="59" y="9" width="1" height="1" fill="#EFEBE1" />
<rect x="0" y="10" width="1" height="1" fill="#EFEBE1" />
<rect x="1" y="10" width="1" height="1" fill="#EFEBE1" />
<rect x="2" y="10" width="1" height="1" fill="#EFEBE1" />
<rect x="3" y="10" width="1" height="1" fill="#EFEBE1" />
<rect x="18" y="10" width="1" height="1" fill="#EFEBE1" />
<rect x="19" y="10" width="1" height="1" fill="#EFEBE1" />
<rect x="20" y="10" width="1" height="1" fill="#EFEBE1" />
<rect x="21" y="10" width="1" height="1" fill="#EFEBE1" />
<rect x="22" y="10" width="1" height="1" fill="#EFEBE1" />
<rect x="23" y="10" width="1" height="1" fill="#EFEBE1" />
<rect x="24" y="10" width="1" height="1" fill="#EFEBE1" />
<rect x="25" y="10" width="1" height="1" fill="#EFEBE1" />
<rect x="34" y="10" width="1" height="1" fill="#EFEBE1" />
<rect x="35" y="10" width="1" height="1" fill="#EFEBE1" />
<rect x="36" y="10" width="1" height="1" fill="#EFEBE1" />
<rect x="37" y="10" width="1" height="1" fill="#EFEBE1" />
<rect x="42" y="10" width="1" height="1" fill="#EFEBE1" />
<rect x="43" y="10" width="1" height="1" fill="#EFEBE1" />
<rect x="44" y="10" width="1" height="1" fill="#EFEBE1" />
<rect x="45" y="10" width="1" height="1" fill="#EFEBE1" />
<rect x="56" y="10" width="1" height="1" fill="#EFEBE1" />
<rect x="57" y="10" width="1" height="1" fill="#EFEBE1" />
<rect x="58" y="10" width="1" height="1" fill="#EFEBE1" />
<rect x="59" y="10" width="1" height="1" fill="#EFEBE1" />
<rect x="0" y="11" width="1" height="1" fill="#EFEBE1" />
<rect x="1" y="11" width="1" height="1" fill="#EFEBE1" />
<rect x="2" y="11" width="1" height="1" fill="#EFEBE1" />
<rect x="3" y="11" width="1" height="1" fill="#EFEBE1" />
<rect x="14" y="11" width="1" height="1" fill="#EFEBE1" />
<rect x="15" y="11" width="1" height="1" fill="#EFEBE1" />
<rect x="16" y="11" width="1" height="1" fill="#EFEBE1" />
<rect x="17" y="11" width="1" height="1" fill="#EFEBE1" />
<rect x="26" y="11" width="1" height="1" fill="#EFEBE1" />
<rect x="27" y="11" width="1" height="1" fill="#EFEBE1" />
<rect x="28" y="11" width="1" height="1" fill="#EFEBE1" />
<rect x="29" y="11" width="1" height="1" fill="#EFEBE1" />
<rect x="34" y="11" width="1" height="1" fill="#EFEBE1" />
<rect x="35" y="11" width="1" height="1" fill="#EFEBE1" />
<rect x="36" y="11" width="1" height="1" fill="#EFEBE1" />
<rect x="37" y="11" width="1" height="1" fill="#EFEBE1" />
<rect x="42" y="11" width="1" height="1" fill="#EFEBE1" />
<rect x="43" y="11" width="1" height="1" fill="#EFEBE1" />
<rect x="44" y="11" width="1" height="1" fill="#EFEBE1" />
<rect x="45" y="11" width="1" height="1" fill="#EFEBE1" />
<rect x="56" y="11" width="1" height="1" fill="#EFEBE1" />
<rect x="57" y="11" width="1" height="1" fill="#EFEBE1" />
<rect x="58" y="11" width="1" height="1" fill="#EFEBE1" />
<rect x="59" y="11" width="1" height="1" fill="#EFEBE1" />
<rect x="0" y="12" width="1" height="1" fill="#EFEBE1" />
<rect x="1" y="12" width="1" height="1" fill="#EFEBE1" />
<rect x="2" y="12" width="1" height="1" fill="#EFEBE1" />
<rect x="3" y="12" width="1" height="1" fill="#EFEBE1" />
<rect x="14" y="12" width="1" height="1" fill="#EFEBE1" />
<rect x="15" y="12" width="1" height="1" fill="#EFEBE1" />
<rect x="16" y="12" width="1" height="1" fill="#EFEBE1" />
<rect x="17" y="12" width="1" height="1" fill="#EFEBE1" />
<rect x="26" y="12" width="1" height="1" fill="#EFEBE1" />
<rect x="27" y="12" width="1" height="1" fill="#EFEBE1" />
<rect x="28" y="12" width="1" height="1" fill="#EFEBE1" />
<rect x="29" y="12" width="1" height="1" fill="#EFEBE1" />
<rect x="34" y="12" width="1" height="1" fill="#EFEBE1" />
<rect x="35" y="12" width="1" height="1" fill="#EFEBE1" />
<rect x="36" y="12" width="1" height="1" fill="#EFEBE1" />
<rect x="37" y="12" width="1" height="1" fill="#EFEBE1" />
<rect x="42" y="12" width="1" height="1" fill="#EFEBE1" />
<rect x="43" y="12" width="1" height="1" fill="#EFEBE1" />
<rect x="44" y="12" width="1" height="1" fill="#EFEBE1" />
<rect x="45" y="12" width="1" height="1" fill="#EFEBE1" />
<rect x="56" y="12" width="1" height="1" fill="#EFEBE1" />
<rect x="57" y="12" width="1" height="1" fill="#EFEBE1" />
<rect x="58" y="12" width="1" height="1" fill="#EFEBE1" />
<rect x="59" y="12" width="1" height="1" fill="#EFEBE1" />
<rect x="0" y="13" width="1" height="1" fill="#EFEBE1" />
<rect x="1" y="13" width="1" height="1" fill="#EFEBE1" />
<rect x="2" y="13" width="1" height="1" fill="#EFEBE1" />
<rect x="3" y="13" width="1" height="1" fill="#EFEBE1" />
<rect x="14" y="13" width="1" height="1" fill="#EFEBE1" />
<rect x="15" y="13" width="1" height="1" fill="#EFEBE1" />
<rect x="16" y="13" width="1" height="1" fill="#EFEBE1" />
<rect x="17" y="13" width="1" height="1" fill="#EFEBE1" />
<rect x="26" y="13" width="1" height="1" fill="#EFEBE1" />
<rect x="27" y="13" width="1" height="1" fill="#EFEBE1" />
<rect x="28" y="13" width="1" height="1" fill="#EFEBE1" />
<rect x="29" y="13" width="1" height="1" fill="#EFEBE1" />
<rect x="34" y="13" width="1" height="1" fill="#EFEBE1" />
<rect x="35" y="13" width="1" height="1" fill="#EFEBE1" />
<rect x="36" y="13" width="1" height="1" fill="#EFEBE1" />
<rect x="37" y="13" width="1" height="1" fill="#EFEBE1" />
<rect x="38" y="13" width="1" height="1" fill="#EFEBE1" />
<rect x="39" y="13" width="1" height="1" fill="#EFEBE1" />
<rect x="40" y="13" width="1" height="1" fill="#EFEBE1" />
<rect x="41" y="13" width="1" height="1" fill="#EFEBE1" />
<rect x="56" y="13" width="1" height="1" fill="#EFEBE1" />
<rect x="57" y="13" width="1" height="1" fill="#EFEBE1" />
<rect x="58" y="13" width="1" height="1" fill="#EFEBE1" />
<rect x="59" y="13" width="1" height="1" fill="#EFEBE1" />
<rect x="0" y="14" width="1" height="1" fill="#EFEBE1" />
<rect x="1" y="14" width="1" height="1" fill="#EFEBE1" />
<rect x="2" y="14" width="1" height="1" fill="#EFEBE1" />
<rect x="3" y="14" width="1" height="1" fill="#EFEBE1" />
<rect x="14" y="14" width="1" height="1" fill="#EFEBE1" />
<rect x="15" y="14" width="1" height="1" fill="#EFEBE1" />
<rect x="16" y="14" width="1" height="1" fill="#EFEBE1" />
<rect x="17" y="14" width="1" height="1" fill="#EFEBE1" />
<rect x="26" y="14" width="1" height="1" fill="#EFEBE1" />
<rect x="27" y="14" width="1" height="1" fill="#EFEBE1" />
<rect x="28" y="14" width="1" height="1" fill="#EFEBE1" />
<rect x="29" y="14" width="1" height="1" fill="#EFEBE1" />
<rect x="34" y="14" width="1" height="1" fill="#EFEBE1" />
<rect x="35" y="14" width="1" height="1" fill="#EFEBE1" />
<rect x="36" y="14" width="1" height="1" fill="#EFEBE1" />
<rect x="37" y="14" width="1" height="1" fill="#EFEBE1" />
<rect x="38" y="14" width="1" height="1" fill="#EFEBE1" />
<rect x="39" y="14" width="1" height="1" fill="#EFEBE1" />
<rect x="40" y="14" width="1" height="1" fill="#EFEBE1" />
<rect x="41" y="14" width="1" height="1" fill="#EFEBE1" />
<rect x="56" y="14" width="1" height="1" fill="#EFEBE1" />
<rect x="57" y="14" width="1" height="1" fill="#EFEBE1" />
<rect x="58" y="14" width="1" height="1" fill="#EFEBE1" />
<rect x="59" y="14" width="1" height="1" fill="#EFEBE1" />
<rect x="0" y="15" width="1" height="1" fill="#EFEBE1" />
<rect x="1" y="15" width="1" height="1" fill="#EFEBE1" />
<rect x="2" y="15" width="1" height="1" fill="#EFEBE1" />
<rect x="3" y="15" width="1" height="1" fill="#EFEBE1" />
<rect x="14" y="15" width="1" height="1" fill="#EFEBE1" />
<rect x="15" y="15" width="1" height="1" fill="#EFEBE1" />
<rect x="16" y="15" width="1" height="1" fill="#EFEBE1" />
<rect x="17" y="15" width="1" height="1" fill="#EFEBE1" />
<rect x="26" y="15" width="1" height="1" fill="#EFEBE1" />
<rect x="27" y="15" width="1" height="1" fill="#EFEBE1" />
<rect x="28" y="15" width="1" height="1" fill="#EFEBE1" />
<rect x="29" y="15" width="1" height="1" fill="#EFEBE1" />
<rect x="34" y="15" width="1" height="1" fill="#EFEBE1" />
<rect x="35" y="15" width="1" height="1" fill="#EFEBE1" />
<rect x="36" y="15" width="1" height="1" fill="#EFEBE1" />
<rect x="37" y="15" width="1" height="1" fill="#EFEBE1" />
<rect x="38" y="15" width="1" height="1" fill="#EFEBE1" />
<rect x="39" y="15" width="1" height="1" fill="#EFEBE1" />
<rect x="40" y="15" width="1" height="1" fill="#EFEBE1" />
<rect x="41" y="15" width="1" height="1" fill="#EFEBE1" />
<rect x="56" y="15" width="1" height="1" fill="#EFEBE1" />
<rect x="57" y="15" width="1" height="1" fill="#EFEBE1" />
<rect x="58" y="15" width="1" height="1" fill="#EFEBE1" />
<rect x="59" y="15" width="1" height="1" fill="#EFEBE1" />
<rect x="0" y="16" width="1" height="1" fill="#EFEBE1" />
<rect x="1" y="16" width="1" height="1" fill="#EFEBE1" />
<rect x="2" y="16" width="1" height="1" fill="#EFEBE1" />
<rect x="3" y="16" width="1" height="1" fill="#EFEBE1" />
<rect x="14" y="16" width="1" height="1" fill="#EFEBE1" />
<rect x="15" y="16" width="1" height="1" fill="#EFEBE1" />
<rect x="16" y="16" width="1" height="1" fill="#EFEBE1" />
<rect x="17" y="16" width="1" height="1" fill="#EFEBE1" />
<rect x="26" y="16" width="1" height="1" fill="#EFEBE1" />
<rect x="27" y="16" width="1" height="1" fill="#EFEBE1" />
<rect x="28" y="16" width="1" height="1" fill="#EFEBE1" />
<rect x="29" y="16" width="1" height="1" fill="#EFEBE1" />
<rect x="34" y="16" width="1" height="1" fill="#EFEBE1" />
<rect x="35" y="16" width="1" height="1" fill="#EFEBE1" />
<rect x="36" y="16" width="1" height="1" fill="#EFEBE1" />
<rect x="37" y="16" width="1" height="1" fill="#EFEBE1" />
<rect x="38" y="16" width="1" height="1" fill="#EFEBE1" />
<rect x="39" y="16" width="1" height="1" fill="#EFEBE1" />
<rect x="40" y="16" width="1" height="1" fill="#EFEBE1" />
<rect x="41" y="16" width="1" height="1" fill="#EFEBE1" />
<rect x="56" y="16" width="1" height="1" fill="#EFEBE1" />
<rect x="57" y="16" width="1" height="1" fill="#EFEBE1" />
<rect x="58" y="16" width="1" height="1" fill="#EFEBE1" />
<rect x="59" y="16" width="1" height="1" fill="#EFEBE1" />
<rect x="0" y="17" width="1" height="1" fill="#EFEBE1" />
<rect x="1" y="17" width="1" height="1" fill="#EFEBE1" />
<rect x="2" y="17" width="1" height="1" fill="#EFEBE1" />
<rect x="3" y="17" width="1" height="1" fill="#EFEBE1" />
<rect x="14" y="17" width="1" height="1" fill="#EFEBE1" />
<rect x="15" y="17" width="1" height="1" fill="#EFEBE1" />
<rect x="16" y="17" width="1" height="1" fill="#EFEBE1" />
<rect x="17" y="17" width="1" height="1" fill="#EFEBE1" />
<rect x="26" y="17" width="1" height="1" fill="#EFEBE1" />
<rect x="27" y="17" width="1" height="1" fill="#EFEBE1" />
<rect x="28" y="17" width="1" height="1" fill="#EFEBE1" />
<rect x="29" y="17" width="1" height="1" fill="#EFEBE1" />
<rect x="34" y="17" width="1" height="1" fill="#EFEBE1" />
<rect x="35" y="17" width="1" height="1" fill="#EFEBE1" />
<rect x="36" y="17" width="1" height="1" fill="#EFEBE1" />
<rect x="37" y="17" width="1" height="1" fill="#EFEBE1" />
<rect x="42" y="17" width="1" height="1" fill="#EFEBE1" />
<rect x="43" y="17" width="1" height="1" fill="#EFEBE1" />
<rect x="44" y="17" width="1" height="1" fill="#EFEBE1" />
<rect x="45" y="17" width="1" height="1" fill="#EFEBE1" />
<rect x="56" y="17" width="1" height="1" fill="#EFEBE1" />
<rect x="57" y="17" width="1" height="1" fill="#EFEBE1" />
<rect x="58" y="17" width="1" height="1" fill="#EFEBE1" />
<rect x="59" y="17" width="1" height="1" fill="#EFEBE1" />
<rect x="0" y="18" width="1" height="1" fill="#EFEBE1" />
<rect x="1" y="18" width="1" height="1" fill="#EFEBE1" />
<rect x="2" y="18" width="1" height="1" fill="#EFEBE1" />
<rect x="3" y="18" width="1" height="1" fill="#EFEBE1" />
<rect x="14" y="18" width="1" height="1" fill="#EFEBE1" />
<rect x="15" y="18" width="1" height="1" fill="#EFEBE1" />
<rect x="16" y="18" width="1" height="1" fill="#EFEBE1" />
<rect x="17" y="18" width="1" height="1" fill="#EFEBE1" />
<rect x="26" y="18" width="1" height="1" fill="#EFEBE1" />
<rect x="27" y="18" width="1" height="1" fill="#EFEBE1" />
<rect x="28" y="18" width="1" height="1" fill="#EFEBE1" />
<rect x="29" y="18" width="1" height="1" fill="#EFEBE1" />
<rect x="34" y="18" width="1" height="1" fill="#EFEBE1" />
<rect x="35" y="18" width="1" height="1" fill="#EFEBE1" />
<rect x="36" y="18" width="1" height="1" fill="#EFEBE1" />
<rect x="37" y="18" width="1" height="1" fill="#EFEBE1" />
<rect x="42" y="18" width="1" height="1" fill="#EFEBE1" />
<rect x="43" y="18" width="1" height="1" fill="#EFEBE1" />
<rect x="44" y="18" width="1" height="1" fill="#EFEBE1" />
<rect x="45" y="18" width="1" height="1" fill="#EFEBE1" />
<rect x="56" y="18" width="1" height="1" fill="#EFEBE1" />
<rect x="57" y="18" width="1" height="1" fill="#EFEBE1" />
<rect x="58" y="18" width="1" height="1" fill="#EFEBE1" />
<rect x="59" y="18" width="1" height="1" fill="#EFEBE1" />
<rect x="0" y="19" width="1" height="1" fill="#EFEBE1" />
<rect x="1" y="19" width="1" height="1" fill="#EFEBE1" />
<rect x="2" y="19" width="1" height="1" fill="#EFEBE1" />
<rect x="3" y="19" width="1" height="1" fill="#EFEBE1" />
<rect x="18" y="19" width="1" height="1" fill="#EFEBE1" />
<rect x="19" y="19" width="1" height="1" fill="#EFEBE1" />
<rect x="20" y="19" width="1" height="1" fill="#EFEBE1" />
<rect x="21" y="19" width="1" height="1" fill="#EFEBE1" />
<rect x="22" y="19" width="1" height="1" fill="#EFEBE1" />
<rect x="23" y="19" width="1" height="1" fill="#EFEBE1" />
<rect x="24" y="19" width="1" height="1" fill="#EFEBE1" />
<rect x="25" y="19" width="1" height="1" fill="#EFEBE1" />
<rect x="34" y="19" width="1" height="1" fill="#EFEBE1" />
<rect x="35" y="19" width="1" height="1" fill="#EFEBE1" />
<rect x="36" y="19" width="1" height="1" fill="#EFEBE1" />
<rect x="37" y="19" width="1" height="1" fill="#EFEBE1" />
<rect x="42" y="19" width="1" height="1" fill="#EFEBE1" />
<rect x="43" y="19" width="1" height="1" fill="#EFEBE1" />
<rect x="44" y="19" width="1" height="1" fill="#EFEBE1" />
<rect x="45" y="19" width="1" height="1" fill="#EFEBE1" />
<rect x="56" y="19" width="1" height="1" fill="#EFEBE1" />
<rect x="57" y="19" width="1" height="1" fill="#EFEBE1" />
<rect x="58" y="19" width="1" height="1" fill="#EFEBE1" />
<rect x="59" y="19" width="1" height="1" fill="#EFEBE1" />
<rect x="0" y="20" width="1" height="1" fill="#EFEBE1" />
<rect x="1" y="20" width="1" height="1" fill="#EFEBE1" />
<rect x="2" y="20" width="1" height="1" fill="#EFEBE1" />
<rect x="3" y="20" width="1" height="1" fill="#EFEBE1" />
<rect x="18" y="20" width="1" height="1" fill="#EFEBE1" />
<rect x="19" y="20" width="1" height="1" fill="#EFEBE1" />
<rect x="20" y="20" width="1" height="1" fill="#EFEBE1" />
<rect x="21" y="20" width="1" height="1" fill="#EFEBE1" />
<rect x="22" y="20" width="1" height="1" fill="#EFEBE1" />
<rect x="23" y="20" width="1" height="1" fill="#EFEBE1" />
<rect x="24" y="20" width="1" height="1" fill="#EFEBE1" />
<rect x="25" y="20" width="1" height="1" fill="#EFEBE1" />
<rect x="34" y="20" width="1" height="1" fill="#EFEBE1" />
<rect x="35" y="20" width="1" height="1" fill="#EFEBE1" />
<rect x="36" y="20" width="1" height="1" fill="#EFEBE1" />
<rect x="37" y="20" width="1" height="1" fill="#EFEBE1" />
<rect x="42" y="20" width="1" height="1" fill="#EFEBE1" />
<rect x="43" y="20" width="1" height="1" fill="#EFEBE1" />
<rect x="44" y="20" width="1" height="1" fill="#EFEBE1" />
<rect x="45" y="20" width="1" height="1" fill="#EFEBE1" />
<rect x="56" y="20" width="1" height="1" fill="#EFEBE1" />
<rect x="57" y="20" width="1" height="1" fill="#EFEBE1" />
<rect x="58" y="20" width="1" height="1" fill="#EFEBE1" />
<rect x="59" y="20" width="1" height="1" fill="#EFEBE1" />
<rect x="0" y="21" width="1" height="1" fill="#EFEBE1" />
<rect x="1" y="21" width="1" height="1" fill="#EFEBE1" />
<rect x="2" y="21" width="1" height="1" fill="#EFEBE1" />
<rect x="3" y="21" width="1" height="1" fill="#EFEBE1" />
<rect x="18" y="21" width="1" height="1" fill="#EFEBE1" />
<rect x="19" y="21" width="1" height="1" fill="#EFEBE1" />
<rect x="20" y="21" width="1" height="1" fill="#EFEBE1" />
<rect x="21" y="21" width="1" height="1" fill="#EFEBE1" />
<rect x="22" y="21" width="1" height="1" fill="#EFEBE1" />
<rect x="23" y="21" width="1" height="1" fill="#EFEBE1" />
<rect x="24" y="21" width="1" height="1" fill="#EFEBE1" />
<rect x="25" y="21" width="1" height="1" fill="#EFEBE1" />
<rect x="34" y="21" width="1" height="1" fill="#EFEBE1" />
<rect x="35" y="21" width="1" height="1" fill="#EFEBE1" />
<rect x="36" y="21" width="1" height="1" fill="#EFEBE1" />
<rect x="37" y="21" width="1" height="1" fill="#EFEBE1" />
<rect x="42" y="21" width="1" height="1" fill="#EFEBE1" />
<rect x="43" y="21" width="1" height="1" fill="#EFEBE1" />
<rect x="44" y="21" width="1" height="1" fill="#EFEBE1" />
<rect x="45" y="21" width="1" height="1" fill="#EFEBE1" />
<rect x="56" y="21" width="1" height="1" fill="#EFEBE1" />
<rect x="57" y="21" width="1" height="1" fill="#EFEBE1" />
<rect x="58" y="21" width="1" height="1" fill="#EFEBE1" />
<rect x="59" y="21" width="1" height="1" fill="#EFEBE1" />
<rect x="0" y="22" width="1" height="1" fill="#EFEBE1" />
<rect x="1" y="22" width="1" height="1" fill="#EFEBE1" />
<rect x="2" y="22" width="1" height="1" fill="#EFEBE1" />
<rect x="3" y="22" width="1" height="1" fill="#EFEBE1" />
<rect x="18" y="22" width="1" height="1" fill="#EFEBE1" />
<rect x="19" y="22" width="1" height="1" fill="#EFEBE1" />
<rect x="20" y="22" width="1" height="1" fill="#EFEBE1" />
<rect x="21" y="22" width="1" height="1" fill="#EFEBE1" />
<rect x="22" y="22" width="1" height="1" fill="#EFEBE1" />
<rect x="23" y="22" width="1" height="1" fill="#EFEBE1" />
<rect x="24" y="22" width="1" height="1" fill="#EFEBE1" />
<rect x="25" y="22" width="1" height="1" fill="#EFEBE1" />
<rect x="34" y="22" width="1" height="1" fill="#EFEBE1" />
<rect x="35" y="22" width="1" height="1" fill="#EFEBE1" />
<rect x="36" y="22" width="1" height="1" fill="#EFEBE1" />
<rect x="37" y="22" width="1" height="1" fill="#EFEBE1" />
<rect x="42" y="22" width="1" height="1" fill="#EFEBE1" />
<rect x="43" y="22" width="1" height="1" fill="#EFEBE1" />
<rect x="44" y="22" width="1" height="1" fill="#EFEBE1" />
<rect x="45" y="22" width="1" height="1" fill="#EFEBE1" />
<rect x="56" y="22" width="1" height="1" fill="#EFEBE1" />
<rect x="57" y="22" width="1" height="1" fill="#EFEBE1" />
<rect x="58" y="22" width="1" height="1" fill="#EFEBE1" />
<rect x="59" y="22" width="1" height="1" fill="#EFEBE1" />
<rect x="0" y="23" width="1" height="1" fill="#EFEBE1" />
<rect x="1" y="23" width="1" height="1" fill="#EFEBE1" />
<rect x="2" y="23" width="1" height="1" fill="#EFEBE1" />
<rect x="3" y="23" width="1" height="1" fill="#EFEBE1" />
<rect x="56" y="23" width="1" height="1" fill="#EFEBE1" />
<rect x="57" y="23" width="1" height="1" fill="#EFEBE1" />
<rect x="58" y="23" width="1" height="1" fill="#EFEBE1" />
<rect x="59" y="23" width="1" height="1" fill="#EFEBE1" />
<rect x="0" y="24" width="1" height="1" fill="#EFEBE1" />
<rect x="1" y="24" width="1" height="1" fill="#EFEBE1" />
<rect x="2" y="24" width="1" height="1" fill="#EFEBE1" />
<rect x="3" y="24" width="1" height="1" fill="#EFEBE1" />
<rect x="56" y="24" width="1" height="1" fill="#EFEBE1" />
<rect x="57" y="24" width="1" height="1" fill="#EFEBE1" />
<rect x="58" y="24" width="1" height="1" fill="#EFEBE1" />
<rect x="59" y="24" width="1" height="1" fill="#EFEBE1" />
<rect x="0" y="25" width="1" height="1" fill="#EFEBE1" />
<rect x="1" y="25" width="1" height="1" fill="#EFEBE1" />
<rect x="2" y="25" width="1" height="1" fill="#EFEBE1" />
<rect x="3" y="25" width="1" height="1" fill="#EFEBE1" />
<rect x="56" y="25" width="1" height="1" fill="#EFEBE1" />
<rect x="57" y="25" width="1" height="1" fill="#EFEBE1" />
<rect x="58" y="25" width="1" height="1" fill="#EFEBE1" />
<rect x="59" y="25" width="1" height="1" fill="#EFEBE1" />
<rect x="4" y="26" width="1" height="1" fill="#EFEBE1" />
<rect x="5" y="26" width="1" height="1" fill="#EFEBE1" />
<rect x="6" y="26" width="1" height="1" fill="#EFEBE1" />
<rect x="7" y="26" width="1" height="1" fill="#EFEBE1" />
<rect x="8" y="26" width="1" height="1" fill="#EFEBE1" />
<rect x="9" y="26" width="1" height="1" fill="#EFEBE1" />
<rect x="10" y="26" width="1" height="1" fill="#EFEBE1" />
<rect x="11" y="26" width="1" height="1" fill="#EFEBE1" />
<rect x="12" y="26" width="1" height="1" fill="#EFEBE1" />
<rect x="13" y="26" width="1" height="1" fill="#EFEBE1" />
<rect x="14" y="26" width="1" height="1" fill="#EFEBE1" />
<rect x="15" y="26" width="1" height="1" fill="#EFEBE1" />
<rect x="16" y="26" width="1" height="1" fill="#EFEBE1" />
<rect x="17" y="26" width="1" height="1" fill="#EFEBE1" />
<rect x="18" y="26" width="1" height="1" fill="#EFEBE1" />
<rect x="19" y="26" width="1" height="1" fill="#EFEBE1" />
<rect x="20" y="26" width="1" height="1" fill="#EFEBE1" />
<rect x="21" y="26" width="1" height="1" fill="#EFEBE1" />
<rect x="22" y="26" width="1" height="1" fill="#EFEBE1" />
<rect x="23" y="26" width="1" height="1" fill="#EFEBE1" />
<rect x="24" y="26" width="1" height="1" fill="#EFEBE1" />
<rect x="25" y="26" width="1" height="1" fill="#EFEBE1" />
<rect x="26" y="26" width="1" height="1" fill="#EFEBE1" />
<rect x="27" y="26" width="1" height="1" fill="#EFEBE1" />
<rect x="28" y="26" width="1" height="1" fill="#EFEBE1" />
<rect x="29" y="26" width="1" height="1" fill="#EFEBE1" />
<rect x="30" y="26" width="1" height="1" fill="#EFEBE1" />
<rect x="31" y="26" width="1" height="1" fill="#EFEBE1" />
<rect x="32" y="26" width="1" height="1" fill="#EFEBE1" />
<rect x="33" y="26" width="1" height="1" fill="#EFEBE1" />
<rect x="34" y="26" width="1" height="1" fill="#EFEBE1" />
<rect x="35" y="26" width="1" height="1" fill="#EFEBE1" />
<rect x="36" y="26" width="1" height="1" fill="#EFEBE1" />
<rect x="37" y="26" width="1" height="1" fill="#EFEBE1" />
<rect x="38" y="26" width="1" height="1" fill="#EFEBE1" />
<rect x="39" y="26" width="1" height="1" fill="#EFEBE1" />
<rect x="40" y="26" width="1" height="1" fill="#EFEBE1" />
<rect x="41" y="26" width="1" height="1" fill="#EFEBE1" />
<rect x="42" y="26" width="1" height="1" fill="#EFEBE1" />
<rect x="43" y="26" width="1" height="1" fill="#EFEBE1" />
<rect x="44" y="26" width="1" height="1" fill="#EFEBE1" />
<rect x="45" y="26" width="1" height="1" fill="#EFEBE1" />
<rect x="46" y="26" width="1" height="1" fill="#EFEBE1" />
<rect x="47" y="26" width="1" height="1" fill="#EFEBE1" />
<rect x="48" y="26" width="1" height="1" fill="#EFEBE1" />
<rect x="49" y="26" width="1" height="1" fill="#EFEBE1" />
<rect x="50" y="26" width="1" height="1" fill="#EFEBE1" />
<rect x="51" y="26" width="1" height="1" fill="#EFEBE1" />
<rect x="52" y="26" width="1" height="1" fill="#EFEBE1" />
<rect x="53" y="26" width="1" height="1" fill="#EFEBE1" />
<rect x="54" y="26" width="1" height="1" fill="#EFEBE1" />
<rect x="55" y="26" width="1" height="1" fill="#EFEBE1" />
<rect x="4" y="27" width="1" height="1" fill="#EFEBE1" />
<rect x="5" y="27" width="1" height="1" fill="#EFEBE1" />
<rect x="6" y="27" width="1" height="1" fill="#EFEBE1" />
<rect x="7" y="27" width="1" height="1" fill="#EFEBE1" />
<rect x="8" y="27" width="1" height="1" fill="#EFEBE1" />
<rect x="9" y="27" width="1" height="1" fill="#EFEBE1" />
<rect x="10" y="27" width="1" height="1" fill="#EFEBE1" />
<rect x="11" y="27" width="1" height="1" fill="#EFEBE1" />
<rect x="12" y="27" width="1" height="1" fill="#EFEBE1" />
<rect x="13" y="27" width="1" height="1" fill="#EFEBE1" />
<rect x="14" y="27" width="1" height="1" fill="#EFEBE1" />
<rect x="15" y="27" width="1" height="1" fill="#EFEBE1" />
<rect x="16" y="27" width="1" height="1" fill="#EFEBE1" />
<rect x="17" y="27" width="1" height="1" fill="#EFEBE1" />
<rect x="18" y="27" width="1" height="1" fill="#EFEBE1" />
<rect x="19" y="27" width="1" height="1" fill="#EFEBE1" />
<rect x="20" y="27" width="1" height="1" fill="#EFEBE1" />
<rect x="21" y="27" width="1" height="1" fill="#EFEBE1" />
<rect x="22" y="27" width="1" height="1" fill="#EFEBE1" />
<rect x="23" y="27" width="1" height="1" fill="#EFEBE1" />
<rect x="24" y="27" width="1" height="1" fill="#EFEBE1" />
<rect x="25" y="27" width="1" height="1" fill="#EFEBE1" />
<rect x="26" y="27" width="1" height="1" fill="#EFEBE1" />
<rect x="27" y="27" width="1" height="1" fill="#EFEBE1" />
<rect x="28" y="27" width="1" height="1" fill="#EFEBE1" />
<rect x="29" y="27" width="1" height="1" fill="#EFEBE1" />
<rect x="30" y="27" width="1" height="1" fill="#EFEBE1" />
<rect x="31" y="27" width="1" height="1" fill="#EFEBE1" />
<rect x="32" y="27" width="1" height="1" fill="#EFEBE1" />
<rect x="33" y="27" width="1" height="1" fill="#EFEBE1" />
<rect x="34" y="27" width="1" height="1" fill="#EFEBE1" />
<rect x="35" y="27" width="1" height="1" fill="#EFEBE1" />
<rect x="36" y="27" width="1" height="1" fill="#EFEBE1" />
<rect x="37" y="27" width="1" height="1" fill="#EFEBE1" />
<rect x="38" y="27" width="1" height="1" fill="#EFEBE1" />
<rect x="39" y="27" width="1" height="1" fill="#EFEBE1" />
<rect x="40" y="27" width="1" height="1" fill="#EFEBE1" />
<rect x="41" y="27" width="1" height="1" fill="#EFEBE1" />
<rect x="42" y="27" width="1" height="1" fill="#EFEBE1" />
<rect x="43" y="27" width="1" height="1" fill="#EFEBE1" />
<rect x="44" y="27" width="1" height="1" fill="#EFEBE1" />
<rect x="45" y="27" width="1" height="1" fill="#EFEBE1" />
<rect x="46" y="27" width="1" height="1" fill="#EFEBE1" />
<rect x="47" y="27" width="1" height="1" fill="#EFEBE1" />
<rect x="48" y="27" width="1" height="1" fill="#EFEBE1" />
<rect x="49" y="27" width="1" height="1" fill="#EFEBE1" />
<rect x="50" y="27" width="1" height="1" fill="#EFEBE1" />
<rect x="51" y="27" width="1" height="1" fill="#EFEBE1" />
<rect x="52" y="27" width="1" height="1" fill="#EFEBE1" />
<rect x="53" y="27" width="1" height="1" fill="#EFEBE1" />
<rect x="54" y="27" width="1" height="1" fill="#EFEBE1" />
<rect x="55" y="27" width="1" height="1" fill="#EFEBE1" />
<rect x="4" y="28" width="1" height="1" fill="#EFEBE1" />
<rect x="5" y="28" width="1" height="1" fill="#EFEBE1" />
<rect x="6" y="28" width="1" height="1" fill="#EFEBE1" />
<rect x="7" y="28" width="1" height="1" fill="#EFEBE1" />
<rect x="8" y="28" width="1" height="1" fill="#EFEBE1" />
<rect x="9" y="28" width="1" height="1" fill="#EFEBE1" />
<rect x="10" y="28" width="1" height="1" fill="#EFEBE1" />
<rect x="11" y="28" width="1" height="1" fill="#EFEBE1" />
<rect x="12" y="28" width="1" height="1" fill="#EFEBE1" />
<rect x="13" y="28" width="1" height="1" fill="#EFEBE1" />
<rect x="14" y="28" width="1" height="1" fill="#EFEBE1" />
<rect x="15" y="28" width="1" height="1" fill="#EFEBE1" />
<rect x="16" y="28" width="1" height="1" fill="#EFEBE1" />
<rect x="17" y="28" width="1" height="1" fill="#EFEBE1" />
<rect x="18" y="28" width="1" height="1" fill="#EFEBE1" />
<rect x="19" y="28" width="1" height="1" fill="#EFEBE1" />
<rect x="20" y="28" width="1" height="1" fill="#EFEBE1" />
<rect x="21" y="28" width="1" height="1" fill="#EFEBE1" />
<rect x="22" y="28" width="1" height="1" fill="#EFEBE1" />
<rect x="23" y="28" width="1" height="1" fill="#EFEBE1" />
<rect x="24" y="28" width="1" height="1" fill="#EFEBE1" />
<rect x="25" y="28" width="1" height="1" fill="#EFEBE1" />
<rect x="26" y="28" width="1" height="1" fill="#EFEBE1" />
<rect x="27" y="28" width="1" height="1" fill="#EFEBE1" />
<rect x="28" y="28" width="1" height="1" fill="#EFEBE1" />
<rect x="29" y="28" width="1" height="1" fill="#EFEBE1" />
<rect x="30" y="28" width="1" height="1" fill="#EFEBE1" />
<rect x="31" y="28" width="1" height="1" fill="#EFEBE1" />
<rect x="32" y="28" width="1" height="1" fill="#EFEBE1" />
<rect x="33" y="28" width="1" height="1" fill="#EFEBE1" />
<rect x="34" y="28" width="1" height="1" fill="#EFEBE1" />
<rect x="35" y="28" width="1" height="1" fill="#EFEBE1" />
<rect x="36" y="28" width="1" height="1" fill="#EFEBE1" />
<rect x="37" y="28" width="1" height="1" fill="#EFEBE1" />
<rect x="38" y="28" width="1" height="1" fill="#EFEBE1" />
<rect x="39" y="28" width="1" height="1" fill="#EFEBE1" />
<rect x="40" y="28" width="1" height="1" fill="#EFEBE1" />
<rect x="41" y="28" width="1" height="1" fill="#EFEBE1" />
<rect x="42" y="28" width="1" height="1" fill="#EFEBE1" />
<rect x="43" y="28" width="1" height="1" fill="#EFEBE1" />
<rect x="44" y="28" width="1" height="1" fill="#EFEBE1" />
<rect x="45" y="28" width="1" height="1" fill="#EFEBE1" />
<rect x="46" y="28" width="1" height="1" fill="#EFEBE1" />
<rect x="47" y="28" width="1" height="1" fill="#EFEBE1" />
<rect x="48" y="28" width="1" height="1" fill="#EFEBE1" />
<rect x="49" y="28" width="1" height="1" fill="#EFEBE1" />
<rect x="50" y="28" width="1" height="1" fill="#EFEBE1" />
<rect x="51" y="28" width="1" height="1" fill="#EFEBE1" />
<rect x="52" y="28" width="1" height="1" fill="#EFEBE1" />
<rect x="53" y="28" width="1" height="1" fill="#EFEBE1" />
<rect x="54" y="28" width="1" height="1" fill="#EFEBE1" />
<rect x="55" y="28" width="1" height="1" fill="#EFEBE1" />
<rect x="4" y="29" width="1" height="1" fill="#EFEBE1" />
<rect x="5" y="29" width="1" height="1" fill="#EFEBE1" />
<rect x="6" y="29" width="1" height="1" fill="#EFEBE1" />
<rect x="7" y="29" width="1" height="1" fill="#EFEBE1" />
<rect x="8" y="29" width="1" height="1" fill="#EFEBE1" />
<rect x="9" y="29" width="1" height="1" fill="#EFEBE1" />
<rect x="10" y="29" width="1" height="1" fill="#EFEBE1" />
<rect x="11" y="29" width="1" height="1" fill="#EFEBE1" />
<rect x="12" y="29" width="1" height="1" fill="#EFEBE1" />
<rect x="13" y="29" width="1" height="1" fill="#EFEBE1" />
<rect x="14" y="29" width="1" height="1" fill="#EFEBE1" />
<rect x="15" y="29" width="1" height="1" fill="#EFEBE1" />
<rect x="16" y="29" width="1" height="1" fill="#EFEBE1" />
<rect x="17" y="29" width="1" height="1" fill="#EFEBE1" />
<rect x="18" y="29" width="1" height="1" fill="#EFEBE1" />
<rect x="19" y="29" width="1" height="1" fill="#EFEBE1" />
<rect x="20" y="29" width="1" height="1" fill="#EFEBE1" />
<rect x="21" y="29" width="1" height="1" fill="#EFEBE1" />
<rect x="22" y="29" width="1" height="1" fill="#EFEBE1" />
<rect x="23" y="29" width="1" height="1" fill="#EFEBE1" />
<rect x="24" y="29" width="1" height="1" fill="#EFEBE1" />
<rect x="25" y="29" width="1" height="1" fill="#EFEBE1" />
<rect x="26" y="29" width="1" height="1" fill="#EFEBE1" />
<rect x="27" y="29" width="1" height="1" fill="#EFEBE1" />
<rect x="28" y="29" width="1" height="1" fill="#EFEBE1" />
<rect x="29" y="29" width="1" height="1" fill="#EFEBE1" />
<rect x="30" y="29" width="1" height="1" fill="#EFEBE1" />
<rect x="31" y="29" width="1" height="1" fill="#EFEBE1" />
<rect x="32" y="29" width="1" height="1" fill="#EFEBE1" />
<rect x="33" y="29" width="1" height="1" fill="#EFEBE1" />
<rect x="34" y="29" width="1" height="1" fill="#EFEBE1" />
<rect x="35" y="29" width="1" height="1" fill="#EFEBE1" />
<rect x="36" y="29" width="1" height="1" fill="#EFEBE1" />
<rect x="37" y="29" width="1" height="1" fill="#EFEBE1" />
<rect x="38" y="29" width="1" height="1" fill="#EFEBE1" />
<rect x="39" y="29" width="1" height="1" fill="#EFEBE1" />
<rect x="40" y="29" width="1" height="1" fill="#EFEBE1" />
<rect x="41" y="29" width="1" height="1" fill="#EFEBE1" />
<rect x="42" y="29" width="1" height="1" fill="#EFEBE1" />
<rect x="43" y="29" width="1" height="1" fill="#EFEBE1" />
<rect x="44" y="29" width="1" height="1" fill="#EFEBE1" />
<rect x="45" y="29" width="1" height="1" fill="#EFEBE1" />
<rect x="46" y="29" width="1" height="1" fill="#EFEBE1" />
<rect x="47" y="29" width="1" height="1" fill="#EFEBE1" />
<rect x="48" y="29" width="1" height="1" fill="#EFEBE1" />
<rect x="49" y="29" width="1" height="1" fill="#EFEBE1" />
<rect x="50" y="29" width="1" height="1" fill="#EFEBE1" />
<rect x="51" y="29" width="1" height="1" fill="#EFEBE1" />
<rect x="52" y="29" width="1" height="1" fill="#EFEBE1" />
<rect x="53" y="29" width="1" height="1" fill="#EFEBE1" />
<rect x="54" y="29" width="1" height="1" fill="#EFEBE1" />
<rect x="55" y="29" width="1" height="1" fill="#EFEBE1" />
</svg>