<svg width="45" height="39" viewBox="0 0 45 39" fill="none" xmlns="http://www.w3.org/2000/svg">
<path d="M14.4227 22.1893H13.0732C10.0969 22.1893 7.69473 24.601 7.69473 27.5869V32.9463C7.69473 35.9227 10.1064 38.3439 13.0732 38.3439H14.4227C15.9061 38.3439 17.1119 37.1381 17.1119 35.6451V24.8881C17.1215 23.3951 15.9156 22.1893 14.4227 22.1893ZM31.9172 22.1893H30.5678C29.0844 22.1893 27.8785 23.3951 27.8785 24.8881V35.6451C27.8785 37.1381 29.0844 38.3439 30.5678 38.3439H31.9172C34.8936 38.3439 37.2957 35.9322 37.2957 32.9463V27.5869C37.3053 24.6105 34.8936 22.1893 31.9172 22.1893ZM22.5 0.656055C10.4605 0.656055 1.34961 10.6762 0.966797 22.1893V31.6064C0.966797 32.3529 1.56973 32.9559 2.31621 32.9559H3.66563C4.41211 32.9559 5.01504 32.3529 5.01504 31.6064V22.1893C5.01504 12.5424 12.8627 4.71387 22.5096 4.7043C32.1564 4.7043 40.0041 12.5424 40.0041 22.1893V31.6064C40.0041 32.3529 40.607 32.9559 41.3535 32.9559H42.7029C43.4494 32.9559 44.0523 32.3529 44.0523 31.6064V22.1893C43.6504 10.6762 34.5395 0.656055 22.5 0.656055Z" fill="white"/>
</svg>
