<svg width="18" height="28" viewBox="0 0 18 28" fill="none" xmlns="http://www.w3.org/2000/svg">
<path d="M8.94598 0C13.8871 0 17.8921 4.00498 17.8921 8.94608C17.8921 11.0768 17.1428 13.0305 15.8979 14.5662C15.4966 15.0605 14.8253 15.8387 14.4754 16.3709C12.4604 19.432 9.87542 23.8777 9.12209 27.5261C8.99285 28.1491 8.83707 28.16 8.66935 27.5463C8.13204 25.5791 6.7385 21.2808 3.86065 16.7832C3.51749 16.2468 2.82172 15.4962 2.38979 15.0288C1.76418 14.3513 1.24348 13.5756 0.847822 12.7299C0.308409 11.5762 -3.8147e-06 10.299 -3.8147e-06 8.94713C-3.8147e-06 4.00546 4.00497 0 8.94598 0ZM8.94598 13.7796C11.7038 13.7796 13.9395 11.544 13.9395 8.7861C13.9395 6.02871 11.7038 3.79317 8.94598 3.79317C6.18811 3.79317 3.95248 6.0288 3.95248 8.7861C3.95248 11.5441 6.18811 13.7796 8.94598 13.7796Z" fill="white"/>
</svg>
