<svg width="32" height="34" viewBox="0 0 32 34" fill="none" xmlns="http://www.w3.org/2000/svg">
<g opacity="0.5">
<circle cx="17.5639" cy="19.4129" r="12.1686" fill="black" stroke="white" stroke-width="4"/>
<path d="M17.2499 20.6335L3.38358 12.6278L17.2499 4.62211L17.2499 20.6335Z" fill="black"/>
<path d="M9.39087 7.78106L16.4341 3.71466L16.4341 11.8475L9.39087 7.78106Z" fill="white"/>
<path d="M12.7142 24.6407V16.6974L10.3627 17.6066V15.8771L13.7738 14.5714H14.8197V24.6407H12.7142ZM17.6908 21.1886V18.1329C17.6908 17.0437 17.987 16.1642 18.5795 15.4943C19.1719 14.8198 20.031 14.4825 21.1566 14.4825C22.2777 14.4825 23.1345 14.8175 23.7269 15.4874C24.3239 16.1573 24.6224 17.0392 24.6224 18.1329V21.1886C24.6224 22.2823 24.3217 23.1642 23.7201 23.8341C23.1231 24.504 22.2686 24.839 21.1566 24.839C20.031 24.839 19.1719 24.504 18.5795 23.8341C17.987 23.1642 17.6908 22.2823 17.6908 21.1886ZM19.8578 21.38C19.8578 21.936 19.9581 22.3872 20.1586 22.7335C20.3591 23.0753 20.6941 23.2462 21.1635 23.2462C21.6283 23.2462 21.961 23.0753 22.1615 22.7335C22.362 22.3872 22.4623 21.936 22.4623 21.38V17.9484C22.4623 17.3924 22.362 16.9435 22.1615 16.6017C21.961 16.2553 21.6283 16.0822 21.1635 16.0822C20.6986 16.0822 20.3637 16.2553 20.1586 16.6017C19.9581 16.9435 19.8578 17.3924 19.8578 17.9484V21.38Z" fill="white"/>
</g>
</svg>
