<?xml version="1.0" encoding="UTF-8"?>
<svg id="Vrstva_2" data-name="Vrstva 2" xmlns="http://www.w3.org/2000/svg" viewBox="0 0 208.59 208.59">
  <defs>
    <style>
      .cls-1 {
        opacity: 0;
      }

      .cls-1, .cls-2 {
        fill: #fff;
        stroke-width: 0px;
      }
    </style>
  </defs>
  <g id="Vrstva_1-2" data-name="Vrstva 1">
    <circle class="cls-1" cx="104.29" cy="104.29" r="104.29"/>
    <g>
      <path class="cls-2" d="m114.09,63.99v-6.14c0-1.94-1.79-3.15-3.23-2.19l-16.01,10.7c-1.45.97-1.45,3.42,0,4.39l16.01,10.7c1.44.96,3.23-.25,3.23-2.19v-7.04c15.61,4.01,26.97,18.71,25.78,35.81-1.19,16.96-14.93,30.7-31.89,31.89-20.09,1.4-36.89-14.55-36.89-34.35,0-10.87,5.07-20.57,12.96-26.89,1.6-1.28,1.98-3.55.88-5.27-1.28-2-4.01-2.46-5.86-.98-10.53,8.42-16.98,21.74-15.85,36.48,1.59,20.71,18.33,37.41,39.04,38.97,24.86,1.87,45.69-17.83,45.69-42.31,0-20.46-14.56-37.59-33.86-41.56Z"/>
      <path class="cls-2" d="m82.16,99.4c-.44.33-.66.85-.66,1.56,0,.61.22,1.14.67,1.61.45.46.96.69,1.55.69,1.22,0,3.58-1.35,7.1-4.05v18.88c0,1.11.26,1.94.77,2.51s1.19.85,2.03.85c1.9,0,2.84-1.39,2.84-4.17v-23.76c0-1-.22-1.78-.66-2.34-.44-.57-1.03-.85-1.76-.85-.65,0-1.09.12-1.33.37-.24.25-.74.91-1.51,1.99-.77,1.08-1.66,2.05-2.67,2.92s-2.34,1.7-4.01,2.49c-1.12.53-1.9.95-2.34,1.29Z"/>
      <path class="cls-2" d="m107.3,114.69c.84,2.1,2.1,3.75,3.77,4.94,1.67,1.19,3.55,1.78,5.65,1.78,1.83,0,3.49-.44,4.98-1.33,1.49-.88,2.71-2.14,3.65-3.78.75-1.33,1.26-2.81,1.54-4.44.28-1.63.42-3.58.42-5.85,0-4.18-.53-7.41-1.58-9.69-.61-1.31-1.35-2.42-2.23-3.31-.88-.89-1.9-1.57-3.06-2.03-1.16-.46-2.46-.7-3.88-.7-2.16,0-4.01.52-5.57,1.57-1.56,1.04-2.74,2.56-3.56,4.55-.47,1.2-.82,2.64-1.04,4.32-.22,1.67-.33,3.56-.33,5.64,0,1.62.1,3.12.3,4.51.2,1.39.52,2.66.94,3.81Zm5.53-17.43c.71-1.84,1.98-2.76,3.81-2.76,1.27,0,2.27.41,2.99,1.23s1.23,2.04,1.54,3.65c.3,1.61.46,3.68.46,6.21,0,2.67-.15,4.83-.44,6.47-.29,1.65-.8,2.91-1.51,3.8-.72.89-1.71,1.33-2.99,1.33s-2.21-.43-2.93-1.28c-.72-.85-1.23-2.11-1.54-3.77-.3-1.66-.46-3.79-.46-6.39,0-3.83.36-6.67,1.07-8.51Z"/>
    </g>
  </g>
</svg>