<?xml version="1.0" encoding="UTF-8"?>
<svg id="Vrstva_2" data-name="Vrstva 2" xmlns="http://www.w3.org/2000/svg" viewBox="0 0 208.59 208.59">
  <defs>
    <style>
      .cls-1 {
        opacity: 0;
      }

      .cls-1, .cls-2 {
        fill: #fff;
        stroke-width: 0px;
      }
    </style>
  </defs>
  <g id="Vrstva_1-2" data-name="Vrstva 1">
    <circle class="cls-1" cx="104.29" cy="104.29" r="104.29"/>
    <g id="layer1">
      <g id="g9357">
        <path id="path9347" class="cls-2" d="m119.63,52.97c.02,6.09-5.91,11.28-12,10.29-9.08-1.03-12.41-13.15-5.2-18.75,6.67-5.49,17.17-.54,17.2,8.08v.38Z"/>
        <path id="path9349" class="cls-2" d="m92.29,85.29c.46-.07.3.47.26.82-.88,4.56-5.14,26.14-8.01,38.32-.89,3.47-1.24,5.86-2.53,8.71-2.99,5.29-9.59,15.66-12.74,20.89-.9,1.47-1.72,2.86-1.91,4.62-.98,7.59,9.77,9.62,13.43,3.66,2.94-4.55,9.71-15.22,13.05-21.56,1.26-2.35,2.02-4.69,2.6-7.27.86-3.6,1.81-8.86,2.28-10.92.26-1.26.73-1.43,1.65-.48,2.79,2.95,10.21,10.21,13.35,14.73,1.79,3.2,2.05,5.88,3.08,10.25.92,4.42,1.77,9.29,2.25,12.06.23,4.09,3.24,7.57,7.68,7.28,3.16-.03,6.33-2.24,6.74-5.47.09-3.95-1.16-9.58-1.72-13.9-1.25-6.17-1.51-12.94-5.08-18.16-2.98-4.17-9.85-11.79-13.9-16.24-1.29-1.59-3.67-3.26-3.23-5.02.07-.58.21-1.23.35-1.87.81-3.56,2.51-11.14,3.27-14.41.21-.59.27-1.7.89-1.57.53.14,2.29,3.71,3.45,5.21,1.97,2.98,5.01,5.19,8.44,7.38,1.72,1.12,3.58,2.28,5.3,3.32,2.8,1.6,4.07,2.81,6.36,2.45,3.97-.79,4.79-5.96,1.58-8.22-3.5-2.55-8.56-5.41-12.15-8.17-5.17-3.91-7.76-12.58-10.19-18.05-.62-1.54-1.21-2.99-2.28-4.26-3.63-4.76-10.92-5.3-15.71-1.86-3.99,2.73-9.47,6.91-13.67,10.17-3.7,3.1-7.76,5.33-8.83,10.2-1.46,5.78-3.16,13.54-3.63,19.12.06,3.56,4.8,4.98,7.44,3.02,1.61-1.17,1.69-2.91,2.15-5.79.29-1.85.62-3.92.97-5.81.66-3.52,1.21-6.27,2.98-8.43,1.44-1.79,4.07-3.91,5.99-4.75h.05Z"/>
      </g>
    </g>
  </g>
</svg>